<svg xmlns="http://www.w3.org/2000/svg" xmlns:xlink="http://www.w3.org/1999/xlink" width="609.762" height="459.159" viewBox="0 0 609.762 459.159">
  <defs>
    <linearGradient id="linear-gradient" x1="0.5" x2="0.5" y2="1" gradientUnits="objectBoundingBox">
      <stop offset="0" stop-color="#1a65bc"/>
      <stop offset="1" stop-color="#008ff2"/>
    </linearGradient>
    <linearGradient id="linear-gradient-2" x1="0.5" x2="0.5" y2="1" gradientUnits="objectBoundingBox">
      <stop offset="0" stop-color="#ff5a00"/>
      <stop offset="1" stop-color="#ffbc00"/>
    </linearGradient>
    <clipPath id="clip-path">
      <rect id="Rectángulo_4364" data-name="Rectángulo 4364" width="603.724" height="447.125" fill="url(#linear-gradient)"/>
    </clipPath>
    <clipPath id="clip-path-2">
      <rect id="Rectángulo_4368" data-name="Rectángulo 4368" width="141.762" height="362.124" fill="url(#linear-gradient-2)"/>
    </clipPath>
    <linearGradient id="linear-gradient-8" x1="0.5" x2="0.5" y2="1" gradientUnits="objectBoundingBox">
      <stop offset="0" stop-color="#d109c8"/>
      <stop offset="1" stop-color="#f40019"/>
    </linearGradient>
    <clipPath id="clip-path-5">
      <rect id="Rectángulo_4365" data-name="Rectángulo 4365" width="39.688" height="35.754" transform="translate(0 0)" fill="none"/>
    </clipPath>
    <clipPath id="clip-path-6">
      <rect id="Rectángulo_4365-2" data-name="Rectángulo 4365" width="25.688" height="23.142" fill="none"/>
    </clipPath>
  </defs>
  <g id="Grupo_9216" data-name="Grupo 9216" transform="translate(-645 -161)">
    <g id="Grupo_9163" data-name="Grupo 9163" transform="translate(1248.724 614.125) rotate(180)" opacity="0.04">
      <g id="Grupo_9162" data-name="Grupo 9162" clip-path="url(#clip-path)">
        <path id="Trazado_12849" data-name="Trazado 12849" d="M535.679,5.929c40.6,7.4,86.285,57.089,60.571,152.449s-95.211,65.671-70.269,164.5S412,461.464,360.777,442.554s-59.293-36.618-149.286-4.617S59.674,394.829,77.047,329.337c20.294-76.5-151.552-94.506-37.836-211.207C127.811,27.2,410.639-16.861,535.679,5.929" transform="translate(0 0)" fill="url(#linear-gradient)"/>
      </g>
    </g>
    <g id="Grupo_9173" data-name="Grupo 9173" transform="translate(1113 161)" opacity="0.17">
      <g id="Grupo_9172" data-name="Grupo 9172" clip-path="url(#clip-path-2)">
        <g id="Grupo_9171" data-name="Grupo 9171">
          <g id="Grupo_9170" data-name="Grupo 9170" clip-path="url(#clip-path-2)">
            <g id="Grupo_9169" data-name="Grupo 9169" style="mix-blend-mode: multiply;isolation: isolate">
              <g id="Grupo_9168" data-name="Grupo 9168">
                <g id="Grupo_9167" data-name="Grupo 9167" clip-path="url(#clip-path-2)">
                  <path id="Trazado_12856" data-name="Trazado 12856" d="M138.253,7.018a3.509,3.509,0,1,1,3.509-3.509,3.509,3.509,0,0,1-3.509,3.509m3.509,12.632a3.509,3.509,0,1,0-3.509,3.509,3.509,3.509,0,0,0,3.509-3.509m0,16.142a3.509,3.509,0,1,0-3.509,3.509,3.509,3.509,0,0,0,3.509-3.509m0,16.141a3.509,3.509,0,1,0-3.509,3.509,3.509,3.509,0,0,0,3.509-3.509m0,16.141a3.509,3.509,0,1,0-3.509,3.509,3.509,3.509,0,0,0,3.509-3.509m0,16.141a3.509,3.509,0,1,0-3.509,3.509,3.509,3.509,0,0,0,3.509-3.509m0,16.141a3.509,3.509,0,1,0-3.509,3.509,3.509,3.509,0,0,0,3.509-3.509m0,16.141a3.509,3.509,0,1,0-3.509,3.509,3.509,3.509,0,0,0,3.509-3.509m0,16.141a3.509,3.509,0,1,0-3.509,3.509,3.509,3.509,0,0,0,3.509-3.509m0,16.141a3.509,3.509,0,1,0-3.509,3.509,3.509,3.509,0,0,0,3.509-3.509m0,16.141a3.509,3.509,0,1,0-3.509,3.509,3.509,3.509,0,0,0,3.509-3.509m0,16.142a3.509,3.509,0,1,0-3.509,3.509,3.509,3.509,0,0,0,3.509-3.509m0,16.141a3.509,3.509,0,1,0-3.509,3.509,3.509,3.509,0,0,0,3.509-3.509m0,16.141a3.509,3.509,0,1,0-3.509,3.509,3.509,3.509,0,0,0,3.509-3.509m0,16.141a3.509,3.509,0,1,0-3.509,3.509,3.509,3.509,0,0,0,3.509-3.509m0,16.141a3.509,3.509,0,1,0-3.509,3.509,3.509,3.509,0,0,0,3.509-3.509m0,16.141a3.509,3.509,0,1,0-3.509,3.509,3.509,3.509,0,0,0,3.509-3.509m0,16.141a3.509,3.509,0,1,0-3.509,3.509,3.509,3.509,0,0,0,3.509-3.509m0,16.141a3.509,3.509,0,1,0-3.509,3.509,3.509,3.509,0,0,0,3.509-3.509m0,16.142a3.509,3.509,0,1,0-3.509,3.509,3.509,3.509,0,0,0,3.509-3.509m0,16.141a3.509,3.509,0,1,0-3.509,3.509,3.509,3.509,0,0,0,3.509-3.509m0,16.141a3.509,3.509,0,1,0-3.509,3.509,3.509,3.509,0,0,0,3.509-3.509m0,16.141a3.509,3.509,0,1,0-3.509,3.509,3.509,3.509,0,0,0,3.509-3.509M124.919,3.509a3.509,3.509,0,1,0-3.509,3.509,3.509,3.509,0,0,0,3.509-3.509m0,16.141a3.509,3.509,0,1,0-3.509,3.509,3.509,3.509,0,0,0,3.509-3.509m0,16.142A3.509,3.509,0,1,0,121.41,39.3a3.509,3.509,0,0,0,3.509-3.509m0,16.141a3.509,3.509,0,1,0-3.509,3.509,3.509,3.509,0,0,0,3.509-3.509m0,16.141a3.509,3.509,0,1,0-3.509,3.509,3.509,3.509,0,0,0,3.509-3.509m0,16.141a3.509,3.509,0,1,0-3.509,3.509,3.509,3.509,0,0,0,3.509-3.509m0,16.141a3.509,3.509,0,1,0-3.509,3.509,3.509,3.509,0,0,0,3.509-3.509m0,16.141a3.509,3.509,0,1,0-3.509,3.509,3.509,3.509,0,0,0,3.509-3.509m0,16.141a3.509,3.509,0,1,0-3.509,3.509,3.509,3.509,0,0,0,3.509-3.509m0,16.141a3.509,3.509,0,1,0-3.509,3.509,3.509,3.509,0,0,0,3.509-3.509m0,16.141a3.509,3.509,0,1,0-3.509,3.509,3.509,3.509,0,0,0,3.509-3.509m0,16.142a3.509,3.509,0,1,0-3.509,3.509,3.509,3.509,0,0,0,3.509-3.509m0,16.141a3.509,3.509,0,1,0-3.509,3.509,3.509,3.509,0,0,0,3.509-3.509m0,16.141a3.509,3.509,0,1,0-3.509,3.509,3.509,3.509,0,0,0,3.509-3.509m0,16.141a3.509,3.509,0,1,0-3.509,3.509,3.509,3.509,0,0,0,3.509-3.509m0,16.141a3.509,3.509,0,1,0-3.509,3.509,3.509,3.509,0,0,0,3.509-3.509m0,16.141a3.509,3.509,0,1,0-3.509,3.509,3.509,3.509,0,0,0,3.509-3.509m0,16.141a3.509,3.509,0,1,0-3.509,3.509,3.509,3.509,0,0,0,3.509-3.509m0,16.141a3.509,3.509,0,1,0-3.509,3.509,3.509,3.509,0,0,0,3.509-3.509m0,16.142a3.509,3.509,0,1,0-3.509,3.509,3.509,3.509,0,0,0,3.509-3.509m0,16.141a3.509,3.509,0,1,0-3.509,3.509,3.509,3.509,0,0,0,3.509-3.509m0,16.141a3.509,3.509,0,1,0-3.509,3.509,3.509,3.509,0,0,0,3.509-3.509m0,16.141a3.509,3.509,0,1,0-3.509,3.509,3.509,3.509,0,0,0,3.509-3.509M108.076,3.509a3.509,3.509,0,1,0-3.509,3.509,3.509,3.509,0,0,0,3.509-3.509m0,16.141a3.509,3.509,0,1,0-3.509,3.509,3.509,3.509,0,0,0,3.509-3.509m0,16.142a3.509,3.509,0,1,0-3.509,3.509,3.509,3.509,0,0,0,3.509-3.509m0,16.141a3.509,3.509,0,1,0-3.509,3.509,3.509,3.509,0,0,0,3.509-3.509m0,16.141a3.509,3.509,0,1,0-3.509,3.509,3.509,3.509,0,0,0,3.509-3.509m0,16.141a3.509,3.509,0,1,0-3.509,3.509,3.509,3.509,0,0,0,3.509-3.509m0,16.141a3.509,3.509,0,1,0-3.509,3.509,3.509,3.509,0,0,0,3.509-3.509m0,16.141a3.509,3.509,0,1,0-3.509,3.509,3.509,3.509,0,0,0,3.509-3.509m0,16.141a3.509,3.509,0,1,0-3.509,3.509,3.509,3.509,0,0,0,3.509-3.509m0,16.141a3.509,3.509,0,1,0-3.509,3.509,3.509,3.509,0,0,0,3.509-3.509m0,16.141a3.509,3.509,0,1,0-3.509,3.509,3.509,3.509,0,0,0,3.509-3.509m0,16.142a3.509,3.509,0,1,0-3.509,3.509,3.509,3.509,0,0,0,3.509-3.509m0,16.141a3.509,3.509,0,1,0-3.509,3.509,3.509,3.509,0,0,0,3.509-3.509m0,16.141a3.509,3.509,0,1,0-3.509,3.509,3.509,3.509,0,0,0,3.509-3.509m0,16.141a3.509,3.509,0,1,0-3.509,3.509,3.509,3.509,0,0,0,3.509-3.509m0,16.141a3.509,3.509,0,1,0-3.509,3.509,3.509,3.509,0,0,0,3.509-3.509m0,16.141a3.509,3.509,0,1,0-3.509,3.509,3.509,3.509,0,0,0,3.509-3.509m0,16.141a3.509,3.509,0,1,0-3.509,3.509,3.509,3.509,0,0,0,3.509-3.509m0,16.141a3.509,3.509,0,1,0-3.509,3.509,3.509,3.509,0,0,0,3.509-3.509m0,16.142a3.509,3.509,0,1,0-3.509,3.509,3.509,3.509,0,0,0,3.509-3.509m0,16.141a3.509,3.509,0,1,0-3.509,3.509,3.509,3.509,0,0,0,3.509-3.509m0,16.141a3.509,3.509,0,1,0-3.509,3.509,3.509,3.509,0,0,0,3.509-3.509m0,16.141a3.509,3.509,0,1,0-3.509,3.509,3.509,3.509,0,0,0,3.509-3.509M91.233,3.509a3.509,3.509,0,1,0-3.509,3.509,3.509,3.509,0,0,0,3.509-3.509m0,16.141a3.509,3.509,0,1,0-3.509,3.509,3.509,3.509,0,0,0,3.509-3.509m0,16.142A3.509,3.509,0,1,0,87.724,39.3a3.509,3.509,0,0,0,3.509-3.509m0,16.141a3.509,3.509,0,1,0-3.509,3.509,3.509,3.509,0,0,0,3.509-3.509m0,16.141a3.509,3.509,0,1,0-3.509,3.509,3.509,3.509,0,0,0,3.509-3.509m0,16.141a3.509,3.509,0,1,0-3.509,3.509,3.509,3.509,0,0,0,3.509-3.509m0,16.141a3.509,3.509,0,1,0-3.509,3.509,3.509,3.509,0,0,0,3.509-3.509m0,16.141a3.509,3.509,0,1,0-3.509,3.509,3.509,3.509,0,0,0,3.509-3.509m0,16.141a3.509,3.509,0,1,0-3.509,3.509,3.509,3.509,0,0,0,3.509-3.509m0,16.141a3.509,3.509,0,1,0-3.509,3.509,3.509,3.509,0,0,0,3.509-3.509m0,16.141a3.509,3.509,0,1,0-3.509,3.509,3.509,3.509,0,0,0,3.509-3.509m0,16.142a3.509,3.509,0,1,0-3.509,3.509,3.509,3.509,0,0,0,3.509-3.509m0,16.141a3.509,3.509,0,1,0-3.509,3.509,3.509,3.509,0,0,0,3.509-3.509m0,16.141a3.509,3.509,0,1,0-3.509,3.509,3.509,3.509,0,0,0,3.509-3.509m0,16.141a3.509,3.509,0,1,0-3.509,3.509,3.509,3.509,0,0,0,3.509-3.509m0,16.141a3.509,3.509,0,1,0-3.509,3.509,3.509,3.509,0,0,0,3.509-3.509m0,16.141a3.509,3.509,0,1,0-3.509,3.509,3.509,3.509,0,0,0,3.509-3.509m0,16.141a3.509,3.509,0,1,0-3.509,3.509,3.509,3.509,0,0,0,3.509-3.509m0,16.141a3.509,3.509,0,1,0-3.509,3.509,3.509,3.509,0,0,0,3.509-3.509m0,16.142a3.509,3.509,0,1,0-3.509,3.509,3.509,3.509,0,0,0,3.509-3.509m0,16.141a3.509,3.509,0,1,0-3.509,3.509,3.509,3.509,0,0,0,3.509-3.509m0,16.141a3.509,3.509,0,1,0-3.509,3.509,3.509,3.509,0,0,0,3.509-3.509m0,16.141a3.509,3.509,0,1,0-3.509,3.509,3.509,3.509,0,0,0,3.509-3.509M74.39,3.509a3.509,3.509,0,1,0-3.509,3.509A3.509,3.509,0,0,0,74.39,3.509m0,16.141a3.509,3.509,0,1,0-3.509,3.509A3.509,3.509,0,0,0,74.39,19.65m0,16.142A3.509,3.509,0,1,0,70.881,39.3a3.509,3.509,0,0,0,3.509-3.509m0,16.141a3.509,3.509,0,1,0-3.509,3.509,3.509,3.509,0,0,0,3.509-3.509m0,16.141a3.509,3.509,0,1,0-3.509,3.509,3.509,3.509,0,0,0,3.509-3.509m0,16.141a3.509,3.509,0,1,0-3.509,3.509,3.509,3.509,0,0,0,3.509-3.509m0,16.141a3.509,3.509,0,1,0-3.509,3.509,3.509,3.509,0,0,0,3.509-3.509m0,16.141a3.509,3.509,0,1,0-3.509,3.509A3.509,3.509,0,0,0,74.39,116.5m0,16.141a3.509,3.509,0,1,0-3.509,3.509,3.509,3.509,0,0,0,3.509-3.509m0,16.141a3.509,3.509,0,1,0-3.509,3.509,3.509,3.509,0,0,0,3.509-3.509m0,16.141a3.509,3.509,0,1,0-3.509,3.509,3.509,3.509,0,0,0,3.509-3.509m0,16.142a3.509,3.509,0,1,0-3.509,3.509,3.509,3.509,0,0,0,3.509-3.509m0,16.141a3.509,3.509,0,1,0-3.509,3.509A3.509,3.509,0,0,0,74.39,197.2m0,16.141a3.509,3.509,0,1,0-3.509,3.509,3.509,3.509,0,0,0,3.509-3.509m0,16.141a3.509,3.509,0,1,0-3.509,3.509,3.509,3.509,0,0,0,3.509-3.509m0,16.141a3.509,3.509,0,1,0-3.509,3.509,3.509,3.509,0,0,0,3.509-3.509m0,16.141a3.509,3.509,0,1,0-3.509,3.509,3.509,3.509,0,0,0,3.509-3.509m0,16.141a3.509,3.509,0,1,0-3.509,3.509,3.509,3.509,0,0,0,3.509-3.509m0,16.141a3.509,3.509,0,1,0-3.509,3.509,3.509,3.509,0,0,0,3.509-3.509m0,16.142a3.509,3.509,0,1,0-3.509,3.509,3.509,3.509,0,0,0,3.509-3.509m0,16.141a3.509,3.509,0,1,0-3.509,3.509,3.509,3.509,0,0,0,3.509-3.509m0,16.141a3.509,3.509,0,1,0-3.509,3.509,3.509,3.509,0,0,0,3.509-3.509m0,16.141a3.509,3.509,0,1,0-3.509,3.509,3.509,3.509,0,0,0,3.509-3.509M57.547,3.509a3.509,3.509,0,1,0-3.509,3.509,3.509,3.509,0,0,0,3.509-3.509m0,16.141a3.509,3.509,0,1,0-3.509,3.509,3.509,3.509,0,0,0,3.509-3.509m0,16.142A3.509,3.509,0,1,0,54.038,39.3a3.509,3.509,0,0,0,3.509-3.509m0,16.141a3.509,3.509,0,1,0-3.509,3.509,3.509,3.509,0,0,0,3.509-3.509m0,16.141a3.509,3.509,0,1,0-3.509,3.509,3.509,3.509,0,0,0,3.509-3.509m0,16.141a3.509,3.509,0,1,0-3.509,3.509,3.509,3.509,0,0,0,3.509-3.509m0,16.141a3.509,3.509,0,1,0-3.509,3.509,3.509,3.509,0,0,0,3.509-3.509m0,16.141a3.509,3.509,0,1,0-3.509,3.509,3.509,3.509,0,0,0,3.509-3.509m0,16.141a3.509,3.509,0,1,0-3.509,3.509,3.509,3.509,0,0,0,3.509-3.509m0,16.141a3.509,3.509,0,1,0-3.509,3.509,3.509,3.509,0,0,0,3.509-3.509m0,16.141a3.509,3.509,0,1,0-3.509,3.509,3.509,3.509,0,0,0,3.509-3.509m0,16.142a3.509,3.509,0,1,0-3.509,3.509,3.509,3.509,0,0,0,3.509-3.509m0,16.141a3.509,3.509,0,1,0-3.509,3.509,3.509,3.509,0,0,0,3.509-3.509m0,16.141a3.509,3.509,0,1,0-3.509,3.509,3.509,3.509,0,0,0,3.509-3.509m0,16.141a3.509,3.509,0,1,0-3.509,3.509,3.509,3.509,0,0,0,3.509-3.509m0,16.141a3.509,3.509,0,1,0-3.509,3.509,3.509,3.509,0,0,0,3.509-3.509m0,16.141a3.509,3.509,0,1,0-3.509,3.509,3.509,3.509,0,0,0,3.509-3.509m0,16.141a3.509,3.509,0,1,0-3.509,3.509,3.509,3.509,0,0,0,3.509-3.509m0,16.141a3.509,3.509,0,1,0-3.509,3.509,3.509,3.509,0,0,0,3.509-3.509m0,16.142a3.509,3.509,0,1,0-3.509,3.509,3.509,3.509,0,0,0,3.509-3.509m0,16.141a3.509,3.509,0,1,0-3.509,3.509,3.509,3.509,0,0,0,3.509-3.509m0,16.141a3.509,3.509,0,1,0-3.509,3.509,3.509,3.509,0,0,0,3.509-3.509m0,16.141a3.509,3.509,0,1,0-3.509,3.509,3.509,3.509,0,0,0,3.509-3.509M40.7,3.509a3.509,3.509,0,1,0-3.509,3.509A3.509,3.509,0,0,0,40.7,3.509m0,16.141a3.509,3.509,0,1,0-3.509,3.509A3.509,3.509,0,0,0,40.7,19.65m0,16.142A3.509,3.509,0,1,0,37.195,39.3,3.509,3.509,0,0,0,40.7,35.792m0,16.141a3.509,3.509,0,1,0-3.509,3.509A3.509,3.509,0,0,0,40.7,51.933m0,16.141a3.509,3.509,0,1,0-3.509,3.509A3.509,3.509,0,0,0,40.7,68.074m0,16.141a3.509,3.509,0,1,0-3.509,3.509A3.509,3.509,0,0,0,40.7,84.215m0,16.141a3.509,3.509,0,1,0-3.509,3.509,3.509,3.509,0,0,0,3.509-3.509m0,16.141a3.509,3.509,0,1,0-3.509,3.509A3.509,3.509,0,0,0,40.7,116.5m0,16.141a3.509,3.509,0,1,0-3.509,3.509,3.509,3.509,0,0,0,3.509-3.509m0,16.141a3.509,3.509,0,1,0-3.509,3.509,3.509,3.509,0,0,0,3.509-3.509m0,16.141a3.509,3.509,0,1,0-3.509,3.509,3.509,3.509,0,0,0,3.509-3.509m0,16.142a3.509,3.509,0,1,0-3.509,3.509,3.509,3.509,0,0,0,3.509-3.509m0,16.141a3.509,3.509,0,1,0-3.509,3.509A3.509,3.509,0,0,0,40.7,197.2m0,16.141a3.509,3.509,0,1,0-3.509,3.509,3.509,3.509,0,0,0,3.509-3.509m0,16.141a3.509,3.509,0,1,0-3.509,3.509,3.509,3.509,0,0,0,3.509-3.509m0,16.141a3.509,3.509,0,1,0-3.509,3.509,3.509,3.509,0,0,0,3.509-3.509m0,16.141a3.509,3.509,0,1,0-3.509,3.509,3.509,3.509,0,0,0,3.509-3.509m0,16.141a3.509,3.509,0,1,0-3.509,3.509,3.509,3.509,0,0,0,3.509-3.509m0,16.141a3.509,3.509,0,1,0-3.509,3.509A3.509,3.509,0,0,0,40.7,294.05m0,16.142a3.509,3.509,0,1,0-3.509,3.509,3.509,3.509,0,0,0,3.509-3.509m0,16.141a3.509,3.509,0,1,0-3.509,3.509,3.509,3.509,0,0,0,3.509-3.509m0,16.141a3.509,3.509,0,1,0-3.509,3.509,3.509,3.509,0,0,0,3.509-3.509m0,16.141a3.509,3.509,0,1,0-3.509,3.509,3.509,3.509,0,0,0,3.509-3.509M23.861,3.509a3.509,3.509,0,1,0-3.509,3.509,3.509,3.509,0,0,0,3.509-3.509m0,16.141a3.509,3.509,0,1,0-3.509,3.509,3.509,3.509,0,0,0,3.509-3.509m0,16.142A3.509,3.509,0,1,0,20.352,39.3a3.509,3.509,0,0,0,3.509-3.509m0,16.141a3.509,3.509,0,1,0-3.509,3.509,3.509,3.509,0,0,0,3.509-3.509m0,16.141a3.509,3.509,0,1,0-3.509,3.509,3.509,3.509,0,0,0,3.509-3.509m0,16.141a3.509,3.509,0,1,0-3.509,3.509,3.509,3.509,0,0,0,3.509-3.509m0,16.141a3.509,3.509,0,1,0-3.509,3.509,3.509,3.509,0,0,0,3.509-3.509m0,16.141a3.509,3.509,0,1,0-3.509,3.509,3.509,3.509,0,0,0,3.509-3.509m0,16.141a3.509,3.509,0,1,0-3.509,3.509,3.509,3.509,0,0,0,3.509-3.509m0,16.141a3.509,3.509,0,1,0-3.509,3.509,3.509,3.509,0,0,0,3.509-3.509m0,16.141a3.509,3.509,0,1,0-3.509,3.509,3.509,3.509,0,0,0,3.509-3.509m0,16.142a3.509,3.509,0,1,0-3.509,3.509,3.509,3.509,0,0,0,3.509-3.509m0,16.141a3.509,3.509,0,1,0-3.509,3.509,3.509,3.509,0,0,0,3.509-3.509m0,16.141a3.509,3.509,0,1,0-3.509,3.509,3.509,3.509,0,0,0,3.509-3.509m0,16.141a3.509,3.509,0,1,0-3.509,3.509,3.509,3.509,0,0,0,3.509-3.509m0,16.141a3.509,3.509,0,1,0-3.509,3.509,3.509,3.509,0,0,0,3.509-3.509m0,16.141a3.509,3.509,0,1,0-3.509,3.509,3.509,3.509,0,0,0,3.509-3.509m0,16.141a3.509,3.509,0,1,0-3.509,3.509,3.509,3.509,0,0,0,3.509-3.509m0,16.141a3.509,3.509,0,1,0-3.509,3.509,3.509,3.509,0,0,0,3.509-3.509m0,16.142a3.509,3.509,0,1,0-3.509,3.509,3.509,3.509,0,0,0,3.509-3.509m0,16.141a3.509,3.509,0,1,0-3.509,3.509,3.509,3.509,0,0,0,3.509-3.509m0,16.141a3.509,3.509,0,1,0-3.509,3.509,3.509,3.509,0,0,0,3.509-3.509m0,16.141a3.509,3.509,0,1,0-3.509,3.509,3.509,3.509,0,0,0,3.509-3.509M7.018,3.509A3.509,3.509,0,1,0,3.509,7.018,3.509,3.509,0,0,0,7.018,3.509m0,16.141a3.509,3.509,0,1,0-3.509,3.509A3.509,3.509,0,0,0,7.018,19.65m0,16.142A3.509,3.509,0,1,0,3.509,39.3a3.509,3.509,0,0,0,3.509-3.509m0,16.141a3.509,3.509,0,1,0-3.509,3.509,3.509,3.509,0,0,0,3.509-3.509m0,16.141a3.509,3.509,0,1,0-3.509,3.509,3.509,3.509,0,0,0,3.509-3.509m0,16.141a3.509,3.509,0,1,0-3.509,3.509,3.509,3.509,0,0,0,3.509-3.509m0,16.141a3.509,3.509,0,1,0-3.509,3.509,3.509,3.509,0,0,0,3.509-3.509m0,16.141a3.509,3.509,0,1,0-3.509,3.509A3.509,3.509,0,0,0,7.018,116.5m0,16.141a3.509,3.509,0,1,0-3.509,3.509,3.509,3.509,0,0,0,3.509-3.509m0,16.141a3.509,3.509,0,1,0-3.509,3.509,3.509,3.509,0,0,0,3.509-3.509m0,16.141a3.509,3.509,0,1,0-3.509,3.509,3.509,3.509,0,0,0,3.509-3.509m0,16.142a3.509,3.509,0,1,0-3.509,3.509,3.509,3.509,0,0,0,3.509-3.509m0,16.141a3.509,3.509,0,1,0-3.509,3.509A3.509,3.509,0,0,0,7.018,197.2m0,16.141a3.509,3.509,0,1,0-3.509,3.509,3.509,3.509,0,0,0,3.509-3.509m0,16.141a3.509,3.509,0,1,0-3.509,3.509,3.509,3.509,0,0,0,3.509-3.509m0,16.141a3.509,3.509,0,1,0-3.509,3.509,3.509,3.509,0,0,0,3.509-3.509m0,16.141a3.509,3.509,0,1,0-3.509,3.509,3.509,3.509,0,0,0,3.509-3.509m0,16.141a3.509,3.509,0,1,0-3.509,3.509,3.509,3.509,0,0,0,3.509-3.509m0,16.141a3.509,3.509,0,1,0-3.509,3.509,3.509,3.509,0,0,0,3.509-3.509m0,16.142A3.509,3.509,0,1,0,3.509,313.7a3.509,3.509,0,0,0,3.509-3.509m0,16.141a3.509,3.509,0,1,0-3.509,3.509,3.509,3.509,0,0,0,3.509-3.509m0,16.141a3.509,3.509,0,1,0-3.509,3.509,3.509,3.509,0,0,0,3.509-3.509m0,16.141a3.509,3.509,0,1,0-3.509,3.509,3.509,3.509,0,0,0,3.509-3.509" fill="url(#linear-gradient-2)"/>
                </g>
              </g>
            </g>
          </g>
        </g>
      </g>
    </g>
    <g id="Grupo_9140" data-name="Grupo 9140" transform="translate(661 161)">
      <path id="Trazado_12855" data-name="Trazado 12855" d="M149.5,171.349H262.877a15.558,15.558,0,0,0,15.513-15.51V42.458A15.558,15.558,0,0,0,262.877,26.95H149.5a15.557,15.557,0,0,0-15.51,15.508V155.839a15.558,15.558,0,0,0,15.51,15.51" transform="translate(-94.903 51.197)" fill="#fff"/>
      <path id="Trazado_12854" data-name="Trazado 12854" d="M44.7,278.682s-14.327-31.265-18.106-40.6-12.825-31.36-16.459-45.461-7.325-26.782-5.266-37.241,13.716-9.784,17.616-7.9S35.2,158.269,35.2,158.269s-1.45-19.785-2.268-34.564-.664-31.52,4.341-43.455,14.931-12.335,20.182-7.893S70.421,88.5,72.285,116.772s-.006,63.332-1.1,75.943S67.6,228.056,67.6,228.056s5.028-16.63,11.958-26.367,11.912-10.619,16.618-8.827,5.2,13,1.366,24.3S80.857,257.83,75.521,267.634s-5.936,10.871-5.936,10.871-15.18,1.563-24.888.177" transform="translate(459.505 132.51)" fill="#fff"/>
      <path id="Trazado_12551" data-name="Trazado 12551" d="M94.031,108.576c3.706-2.323,12.324-5.64,17.471-5.64H220.3c9.766,0,18.407,5.231,21.365,12.927l28.661,74.653a15.608,15.608,0,0,1-1.777,14.629l-10.7,7.841s-7.191,4.526-11.613,4.526H221.473l-107.886-65.44Z" transform="translate(27.948 195.547)" fill="#fff"/>
      <path id="Trazado_12552" data-name="Trazado 12552" d="M221.6,218.627h24.758c4.567,0,11.674-4.434,11.973-4.622l10.743-7.873a16.184,16.184,0,0,0,2.012-15.421l-28.658-74.656c-3.077-7.989-11.915-13.353-22-13.353H111.631c-5.292,0-14.1,3.4-17.83,5.736-.261.853,19.3,44.351,19.3,44.351.264.3,108.147,65.739,108.147,65.739a.7.7,0,0,0,.354.1m46.578-13.518-10.607,7.774c-.029.015-7.035,4.387-11.213,4.387H221.787L114.246,152.041,95.024,109.282c3.836-2.233,11.773-5.225,16.607-5.225H220.424c9.528,0,17.862,5.019,20.736,12.489L269.821,191.2a14.877,14.877,0,0,1-1.644,13.907" transform="translate(27.822 195.105)" fill="#1a1a1a"/>
      <path id="Trazado_12563" data-name="Trazado 12563" d="M195.542,215.737h63.643c15.165,0,25.952-12.19,21.362-24.143l-28.663-74.653c-2.955-7.7-11.6-12.93-21.362-12.93h-108.8c-15.165,0-25.952,12.193-21.362,24.146L129.02,202.81c2.958,7.7,11.6,12.927,21.365,12.927h45.157Z" transform="translate(2.472 197.591)" fill="#fff"/>
      <rect id="Rectángulo_4341" data-name="Rectángulo 4341" width="572" height="459.158" transform="translate(0.003 0)" fill="none"/>
      <path id="Trazado_12672" data-name="Trazado 12672" d="M195.542,215.737h63.643c15.165,0,25.952-12.19,21.362-24.143l-28.663-74.653c-2.955-7.7-11.6-12.93-21.362-12.93h-108.8c-15.165,0-25.952,12.193-21.362,24.146L129.02,202.81c2.958,7.7,11.6,12.927,21.365,12.927h45.157Z" transform="translate(2.472 197.591)" opacity="0.4" fill="url(#linear-gradient-2)"/>
      <path id="Trazado_12550" data-name="Trazado 12550" d="M19.47,222.6H262.488a16.8,16.8,0,0,0,16.8-16.8V56.85a16.806,16.806,0,0,0-16.8-16.8H19.47a16.8,16.8,0,0,0-16.8,16.8V205.8a16.8,16.8,0,0,0,16.8,16.8" transform="translate(284.972 76.075)" fill="#fff"/>
      <path id="Trazado_12553" data-name="Trazado 12553" d="M149.5,171.349H262.877a15.558,15.558,0,0,0,15.513-15.51V42.458A15.558,15.558,0,0,0,262.877,26.95H149.5a15.557,15.557,0,0,0-15.51,15.508V155.839a15.558,15.558,0,0,0,15.51,15.51" transform="translate(-94.903 51.197)" opacity="0.3" fill="url(#linear-gradient-8)"/>
      <path id="Trazado_12554" data-name="Trazado 12554" d="M154.8,76.23h16.749a3.936,3.936,0,0,0,3.923-3.926V58.373a3.936,3.936,0,0,0-3.923-3.926H154.8a3.937,3.937,0,0,0-3.926,3.926V72.3A3.937,3.937,0,0,0,154.8,76.23" transform="translate(-40.954 103.433)" fill="#fff"/>
      <path id="Trazado_12555" data-name="Trazado 12555" d="M159.944,109.526s14.939,4.152,30,32.59,18.665,45.511,20.979,58.327-.258,30.125-3.857,35.675h-69.6a9.566,9.566,0,0,0-6.869-3.952c-4.755-.525-84.894,0-84.894,0s1.206-13.9-5.211-18.265l10.163-7.519,9.894.194s1.589-24.856,3.108-39.677a88.971,88.971,0,0,1,14.838-40.433c8.018-12.045,20.747-22.131,36.617-22.937s44.832,6,44.832,6" transform="translate(242.783 196.549)" fill="#294859"/>
      <path id="Trazado_12556" data-name="Trazado 12556" d="M75.768,138.3,75.533,126.7s-6.675.58-9.149-4.341-2.488-14.5-2.4-20.507.818-16.7.818-16.7.742,3.746,7.594,3.79,15.595-.429,18.764,3.683l1.954,5.846s7.728-2.636,10.256,5.359-6.768,9.418-9.853,7.89c0,0-7.188,6.988-8.308,13.849s.751,16.734,4.251,18.889c0,0-6.481,9.523-10.079,9.2S75.768,138.3,75.768,138.3" transform="translate(282.73 161.78)" fill="#fff"/>
      <path id="Trazado_12557" data-name="Trazado 12557" d="M97.738,159.817a12.314,12.314,0,0,1,2.824-8.337,55.36,55.36,0,0,1,7.47-7.052H135.3s8.9-1.531,9.294-2.879c0,0,6.434,3.758,5.211,18.268h-27s-.821-2.908,3.1-4.062,8.977-2.645,8.977-2.645a5.315,5.315,0,0,0-3.256-1.087,15.5,15.5,0,0,0-8.429,2.508c-2.239,1.543-3.984,5.286-3.984,5.286Z" transform="translate(138.686 268.9)" fill="#fff"/>
      <path id="Trazado_12558" data-name="Trazado 12558" d="M69.346,148.9s4.019-10.975,13.579-10.88L74.362,148.06s7.084.476,8.83-.571l8.435-8.424a84.74,84.74,0,0,1,10.105,4.184c3.668,1.986,7.319,2.549,16.186,1.815,0,0,6.168,4.089,7.325,10.741s-1.1,14.661-1.1,14.661a6.6,6.6,0,0,0-5.97-3.662c-4.37,0-36.667-.731-36.667-.731s-4.686-.27-7.113-3.549c0,0-4.6-.989-5.814-3.065a7.969,7.969,0,0,1-1.253-3.384s-2.024-1.279-1.647-3.2,3.662-3.975,3.662-3.975" transform="translate(256.102 262.198)" fill="#fff"/>
      <path id="Trazado_12559" data-name="Trazado 12559" d="M44.7,278.682s-14.327-31.265-18.106-40.6-12.825-31.36-16.459-45.461-7.325-26.782-5.266-37.241,13.716-9.784,17.616-7.9S35.2,158.269,35.2,158.269s-1.45-19.785-2.268-34.564-.664-31.52,4.341-43.455,14.931-12.335,20.182-7.893S70.421,88.5,72.285,116.772s-.006,63.332-1.1,75.943S67.6,228.056,67.6,228.056s5.028-16.63,11.958-26.367,11.912-10.619,16.618-8.827,5.2,13,1.366,24.3S80.857,257.83,75.521,267.634s-5.936,10.871-5.936,10.871-15.18,1.563-24.888.177" transform="translate(459.505 132.51)" opacity="0.4" fill="url(#linear-gradient-2)"/>
      <path id="Trazado_12560" data-name="Trazado 12560" d="M57.248,100.586S52.9,97.393,55.172,89.738s9.633-8.774,19.28-9.8,22.7.374,28.768,6.055,6.321,12.063,6.321,12.063-3.778,18.932-4.692,25.39-2.665,12.637,2.665,14.629,15.131,2.621,16.29,11.576-1.58,10.308-1.58,10.308l-9.337-5.141s-14,6.89-23.923,3.836S77.424,146.6,77.5,141.715s1.856-11.318,5.382-15.392,3.909-3.845,3.909-3.845,6.472,2.355,9.212-5.011-6.263-9.717-9.9-8.073l-2.1-6.736a11.276,11.276,0,0,0-8.055-3.1c-5.4-.084-9.853.171-12.593-.6s-5.628-2.146-6.113-4.245Z" transform="translate(289.84 151.262)"/>
      <path id="Trazado_12561" data-name="Trazado 12561" d="M82.811,100.239l.6,11.581-7.348,1.406a9.6,9.6,0,0,1-2.436-6.13c.049-3.535,3.135-8,3.135-8s4.892,1.74,6.046,1.14" transform="translate(275.084 188.258)"/>
      <path id="Trazado_12562" data-name="Trazado 12562" d="M276.68,82.589H0V51.353S2.154,37.188,15.366,37.188H260.4s14.252.043,16.143,14.165Z" transform="translate(295.323 70.646)" fill="#294859"/>
      <path id="Trazado_12564" data-name="Trazado 12564" d="M84.3,151.929l2.685-7.278s2.166,4.176,4.468,4.306Z" transform="translate(236.117 274.793)" fill="#fff"/>
      <path id="Trazado_12565" data-name="Trazado 12565" d="M75.169,155.015,94.447,134.5l4.819,3.984L85.643,153.779Z" transform="translate(254.769 255.513)" fill="#fff"/>
      <path id="Trazado_12566" data-name="Trazado 12566" d="M114.289,161.462H234.055a6.3,6.3,0,0,0,6.313-6.759c0-6.8-5.97-6.756-5.97-6.756H66.128v4.21h45.14a4.913,4.913,0,0,1,2.888,5.5Z" transform="translate(139.884 281.055)" opacity="0.4" fill="url(#linear-gradient-2)"/>
      <path id="Trazado_12567" data-name="Trazado 12567" d="M126.782,146.141l-7.968-20.481s-1.885-4.025,4.37-6.339l33.074-.171s3.387-.023,5.185,4.219,8.331,20.823,8.331,20.823a6.034,6.034,0,0,1-5.44,6.345,56.909,56.909,0,0,1-12.35,0s3.384-11.99,3.274-12.254-.244-7.136-.244-7.136l-21.139-.029s-5.892,7.142-7.093,15.023" transform="translate(58.477 226.351)" fill="#1a1a1a"/>
      <path id="Trazado_12568" data-name="Trazado 12568" d="M231.837,151.591l-18.973,12.35-99.6-.038s-2.984-1.334-3.659-2.7v6.2s.7,2.827,3.094,2.966H213.029l18.062-11.387a3.777,3.777,0,0,0,.731-2.4c-.133-1.285.014-4.985.014-4.985" transform="translate(22.351 287.977)" opacity="0.4" fill="url(#linear-gradient-2)"/>
      <path id="Trazado_12569" data-name="Trazado 12569" d="M128.212,149.617l-17.656,11.613s-2.125,3.32,0,5.356,3.8,1.719,3.8,1.719l98.775.017,18.222-11.863s2.6-4.735-2.027-6.533l-45.4-.31-.232,9.757-5.19,3.21-20.385-.064-.3-13.237Z" transform="translate(22.088 283.595)" fill="#1a1a1a"/>
      <path id="Trazado_12570" data-name="Trazado 12570" d="M16.165,139.091l-3.857,7.386s11.5-1.1,12.077-3.216-8.221-4.17-8.221-4.17" transform="translate(511.899 264.231)" fill="#1a1a1a"/>
      <path id="Trazado_12571" data-name="Trazado 12571" d="M36.2,139.091l3.491,7.386s-14.011-.844-14.4-3.633S36.2,139.091,36.2,139.091" transform="translate(459.008 264.231)" fill="#1a1a1a"/>
      <path id="Trazado_12572" data-name="Trazado 12572" d="M64.566,140.529l-2.885,25.027H14.825l-2.639-24.824s6.443,3.964,26.19,3.964,26.19-4.167,26.19-4.167" transform="translate(472.101 266.963)" fill="#1a1a1a"/>
      <path id="Trazado_12573" data-name="Trazado 12573" d="M84.291,52.432a7.415,7.415,0,1,0,7.415-7.415,7.413,7.413,0,0,0-7.415,7.415" transform="translate(228.465 85.519)" fill="#fff"/>
      <path id="Trazado_12574" data-name="Trazado 12574" d="M74.4,52.432a7.415,7.415,0,1,0,7.415-7.415A7.413,7.413,0,0,0,74.4,52.432" transform="translate(267.048 85.519)" fill="#fff"/>
      <path id="Trazado_12575" data-name="Trazado 12575" d="M64.5,52.432a7.415,7.415,0,1,0,7.415-7.415A7.413,7.413,0,0,0,64.5,52.432" transform="translate(305.632 85.519)" fill="#fff"/>
      <path id="Trazado_12576" data-name="Trazado 12576" d="M156.949,123.307s-7.223,3.517-10.874,38.4-2.027,50.281-2.027,50.281l-20.385-.064s-.293-21.44,1.1-42.979,4.257-38.783,11.048-45.667Z" transform="translate(56.541 234.191)" fill="#fff"/>
      <path id="Trazado_12577" data-name="Trazado 12577" d="M136.543,123.288v7.136s-2.7,6.385-4.367,21.681-2.8,30.719-2.816,39.329-.528,17.326-.528,17.326l-5.19,3.21s-.122-20.759.928-36.006,2.381-30.189,5.2-38.511,3.042-10.723,6.768-14.165" transform="translate(76.947 234.21)" fill="#1a1a1a"/>
      <path id="Trazado_12579" data-name="Trazado 12579" d="M173.886,58.2l27.825,56.643s-3.14,19.419-12.138,30.351H156.807s-8.514-11.344-11.222-29.98Zm-.238,61.189a8.934,8.934,0,1,0-8.934-8.931,8.931,8.931,0,0,0,8.934,8.931" transform="translate(-51.861 110.57)" fill="#fff"/>
      <path id="Trazado_12580" data-name="Trazado 12580" d="M113.021,64.957a9.475,9.475,0,1,0,9.473-9.473,9.473,9.473,0,0,0-9.473,9.473" transform="translate(112.306 105.403)" fill="#1a1a1a"/>
      <path id="Trazado_12581" data-name="Trazado 12581" d="M190.493,64.957a9.475,9.475,0,1,0,9.473-9.473,9.473,9.473,0,0,0-9.473,9.473" transform="translate(-189.812 105.403)" fill="#1a1a1a"/>
      <path id="Trazado_12582" data-name="Trazado 12582" d="M151.973,102.086h32.01a3.541,3.541,0,0,0,3.529-3.532V93.483a3.543,3.543,0,0,0-3.529-3.532h-32.01a3.544,3.544,0,0,0-3.532,3.532v5.072a3.542,3.542,0,0,0,3.532,3.532" transform="translate(-45.943 170.88)" fill="#1a1a1a"/>
      <path id="Trazado_12583" data-name="Trazado 12583" d="M103.069,152.946a13.159,13.159,0,0,1,5.417-6.608c4.051-2.378,9.262-.4,9.262-.4s-.133.786-4.442,1.554-8.374,1.577-7.333,5.738Z" transform="translate(155.387 275.772)" fill="#1a1a1a"/>
      <path id="Trazado_12584" data-name="Trazado 12584" d="M71.349,94.511v5.872S67,97.19,69.273,89.532s9.636-8.772,19.28-9.8c-5.985.792-12.463,9.209-11.779,12.938.687,3.746,7.455,3.97,13.025,4.654a11.656,11.656,0,0,1,7.5,4.419,11.928,11.928,0,0,0-7.249-2.389c-5.4-.084-9.853.171-12.593-.6s-5.628-2.149-6.113-4.245" transform="translate(275.739 151.465)" fill="#fff"/>
      <path id="Trazado_12585" data-name="Trazado 12585" d="M61.387,113.389c.081-4.883,1.856-11.318,5.382-15.392a32.946,32.946,0,0,1,3.294-3.462c-1.7,4.6-11.648,34.483,15.995,35.075.713.017,1.369.041,1.995.07-4.66,1.273-10.4,2.123-15.2.644-9.926-3.053-11.541-12.051-11.463-16.934" transform="translate(305.956 179.588)" fill="#fff"/>
      <path id="Trazado_12586" data-name="Trazado 12586" d="M80.868,112.513c.043.043-3.465.713-3.465.713a9.6,9.6,0,0,1-2.433-6.13c.049-3.535,3.135-8,3.135-8l2.763,1.308s-4.625,8.18,0,12.106" transform="translate(273.748 188.258)" fill="#fff"/>
      <path id="Trazado_12587" data-name="Trazado 12587" d="M6.057,150.33H181.416c0-1.354-175.359-1.354-175.359-1.354-.679,1.055-.374,1.354,0,1.354" transform="translate(374.192 283.009)" fill="#1a1a1a"/>
      <path id="Trazado_12589" data-name="Trazado 12589" d="M152.661,151.675h11.286a7.225,7.225,0,0,0,6.043-2.94,5.1,5.1,0,0,0,.6-4.77l-8.061-20.988a6.957,6.957,0,0,0-6.643-4.068H125.294a7.227,7.227,0,0,0-6.046,2.94,5.08,5.08,0,0,0-.586,4.773l8.05,20.988c1.27-.493-6.785-21.481-6.785-21.481a3.7,3.7,0,0,1,.444-3.512,5.948,5.948,0,0,1,4.924-2.355h30.592a5.612,5.612,0,0,1,5.379,3.2l8.055,20.991a3.718,3.718,0,0,1-.449,3.517,5.953,5.953,0,0,1-4.924,2.346H152.661c-.676,1.055-.377,1.357,0,1.357" transform="translate(57.996 225.889)" fill="#1a1a1a"/>
      <path id="Trazado_12590" data-name="Trazado 12590" d="M124.221,212.288c.679-84.314,13.052-88.641,13.173-88.67-.818-1.235-13.849,2.038-13.849,87.991a.673.673,0,0,0,.676.678" transform="translate(76.366 234.515)" fill="#1a1a1a"/>
      <path id="Trazado_12591" data-name="Trazado 12591" d="M124.016,204.543c1.012-52.351,5.631-71.744,8.351-78.709-4.019,6.553-8.7,26.126-9.03,78.025.673.684.679.684.679.684" transform="translate(81.996 239.047)" fill="#1a1a1a"/>
      <path id="Trazado_12592" data-name="Trazado 12592" d="M126.771,212.288h21.075c.365-.11,5.4-3.32,5.4-3.32-.725-1.14-5.591,1.963-5.591,1.963H127.446c.067-82.984,12.367-87.284,12.492-87.313-.824-1.235-13.846,2.038-13.846,87.991a.674.674,0,0,0,.679.678" transform="translate(53.132 234.515)" fill="#1a1a1a"/>
      <path id="Trazado_12593" data-name="Trazado 12593" d="M144.053,131.827c.679-.676.679-8.1.679-8.1-.679-.679-21.371-.679-21.371-.679,0,1.354,20.014,1.354,20.014,1.354v6.753a.673.673,0,0,0,.679.676" transform="translate(69.562 233.747)" fill="#1a1a1a"/>
      <path id="Trazado_12594" data-name="Trazado 12594" d="M114.466,169.226h98.146a5.053,5.053,0,0,0,2.743-.806l15.464-9.9a5.077,5.077,0,0,0-2.737-9.354H184.705c0,1.357,43.377,1.357,43.377,1.357a3.72,3.72,0,0,1,2,6.858l-15.464,9.9a3.7,3.7,0,0,1-2.007.586H114.466a3.726,3.726,0,0,1-2.007-6.864l15.464-9.9a3.751,3.751,0,0,1,2.007-.58h28.289c0-1.357-28.289-1.357-28.289-1.357a5.109,5.109,0,0,0-2.734.795l-15.47,9.908a5.079,5.079,0,0,0,2.74,9.357" transform="translate(21.684 283.37)" fill="#1a1a1a"/>
      <path id="Trazado_12595" data-name="Trazado 12595" d="M113.193,167.334h98.146a5.137,5.137,0,0,0,2.737-.795l15.47-9.905a5,5,0,0,0,2.2-3.019,11.59,11.59,0,0,0-2.94,1.879l-15.464,9.9a3.724,3.724,0,0,1-2.007.586H113.193a3.638,3.638,0,0,1-3.61-2.83c-.745,2.636,1.238,4.184,3.61,4.184" transform="translate(22.956 291.824)" fill="#1a1a1a"/>
      <path id="Trazado_12596" data-name="Trazado 12596" d="M110.1,158.255c.679-.678.679-6.811.679-6.811-1.357,0-1.357,6.133-1.357,6.133a.676.676,0,0,0,.679.678" transform="translate(143.937 287.698)" fill="#1a1a1a"/>
      <path id="Trazado_12597" data-name="Trazado 12597" d="M152.2,161.525c.679-.679.679-6.62.679-6.62-1.357,0-1.357,5.941-1.357,5.941a.676.676,0,0,0,.678.679" transform="translate(-20.248 294.273)" fill="#1a1a1a"/>
      <path id="Trazado_12598" data-name="Trazado 12598" d="M68.953,104.877c5.251-.621,8.244-4.521,7.69-8.757a7.78,7.78,0,0,0-8.69-6.669,7.681,7.681,0,0,0-4.12,1.873,15.5,15.5,0,0,0,4.3-.528,6.389,6.389,0,1,1,1.664,12.669,6.189,6.189,0,0,1-3.384-.476,2.249,2.249,0,0,0,2.543,1.888" transform="translate(310.199 169.82)" fill="#1a1a1a"/>
      <path id="Trazado_12599" data-name="Trazado 12599" d="M71.19,98.683c.377-1.244-3.888-4.1-3.888-4.1l4.312-3.662c-.879-1.035-5.875,3.21-5.875,3.21.064,1.084,5.074,4.437,5.074,4.437a.7.7,0,0,0,.377.113" transform="translate(309.766 172.418)" fill="#1a1a1a"/>
      <path id="Trazado_12600" data-name="Trazado 12600" d="M113.017,22.174c3.932-.3,6.608-1.693,8.513-3.958a11.084,11.084,0,1,0-8.513,3.958m.041-20.82a9.732,9.732,0,0,1,7.432,15.989,9.73,9.73,0,0,1-14.9-12.515A9.674,9.674,0,0,1,112.2,1.392c.287-.026.574-.038.858-.038" transform="translate(152.247 0)" fill="#1a1a1a"/>
      <path id="Trazado_12601" data-name="Trazado 12601" d="M121.721,161.052c2.8-1.519,3.857-4.77,3.3-9.233s-2.337-7.673-5.28-9.569a13.523,13.523,0,0,0-2.16-1.1,31.629,31.629,0,0,0-3.975-1.229c-2.592-.673-5.037-1.314-6.9-3.036a7.318,7.318,0,0,1-1.879-6.478c2.778-20.611,5.562-31.659,5.591-31.766a16.532,16.532,0,0,0-7.667-13.565c-11.5-7.733-28.014-5.718-34.588-4.495-4.625.864-10.987,2.6-12.889,7.676a14.53,14.53,0,0,0,1.142,13.214,20.791,20.791,0,0,1,.128-12.738c1.662-4.431,7.568-6.014,11.866-6.814,6.405-1.2,22.5-3.184,33.581,4.289a15.191,15.191,0,0,1,7.084,12.2c-.287,1.171-2.946,12.179-5.6,31.821a8.655,8.655,0,0,0,2.305,7.655c2.114,1.954,4.84,2.665,7.475,3.352a30.849,30.849,0,0,1,3.81,1.169,12.338,12.338,0,0,1,1.94.989c2.587,1.667,4.158,4.555,4.666,8.595.278,2.253.354,6.263-2.3,7.8-.122,1.142.11,1.264.342,1.264" transform="translate(289.621 150.84)" fill="#1a1a1a"/>
      <path id="Trazado_12602" data-name="Trazado 12602" d="M118.93,152.651c-23.441-20.666-71.095-12.967-71.576-12.883.7,1.258,47.755-6.347,71.147,12.736a.713.713,0,0,0,.429.148" transform="translate(315.761 262.72)" fill="#1a1a1a"/>
      <path id="Trazado_12603" data-name="Trazado 12603" d="M87.4,233.214c14.536-27.306-4.387-75.865-19.59-100.144a138.841,138.841,0,0,0-11.721-16.56c-4.129-4.848-9.81-8.05-15.76-11.164,5.422,4.373,10.752,7.377,14.728,12.037a139.127,139.127,0,0,1,11.6,16.4c15.041,24.03,33.808,72,20.138,98.439.389.966.5.989.6.989" transform="translate(362.454 200.126)" fill="#1a1a1a"/>
      <path id="Trazado_12604" data-name="Trazado 12604" d="M74.266,207.454a101.167,101.167,0,0,0,1.467-12.4c.246-3.271.493-6.542.687-9.83,1-16.856,2.908-36.232,13.005-52.914,6.2-10.245,17.213-23.186,34.477-26.7,1.406-.287,5.646-1.021,5.646-1.021l-.232-1.337s-4.265.742-5.683,1.029c-17.743,3.61-29.026,16.853-35.368,27.324-10.259,16.949-12.19,36.519-13.2,53.531-.194,3.285-.438,6.55-.684,9.813-.287,3.859-.583,7.841-.792,11.784a6.448,6.448,0,0,0,.676.716" transform="translate(229.066 196.155)" fill="#1a1a1a"/>
      <path id="Trazado_12605" data-name="Trazado 12605" d="M82.064,127.627c.623,0,1.285-.035,1.992-.093,2.273-.2,5.605-.594,7.931-1.067-2.54-.87-5.811-.476-8.047-.287a13.6,13.6,0,0,1-5.466-.4c-2.418-.768-4.068-2.592-5.048-5.591-1.638-4.987-1.551-10.407-1.467-15.647l.029-1.978c.064-4.553.2-14.017.307-17.523-1.464,3.474-1.6,12.947-1.664,17.505l-.029,1.969c-.084,5.356-.174,10.891,1.534,16.1,1.128,3.439,3.068,5.55,5.927,6.455a13.145,13.145,0,0,0,4,.557" transform="translate(275.402 161.554)" fill="#1a1a1a"/>
      <path id="Trazado_12606" data-name="Trazado 12606" d="M73.02,89.639c-.539-.087-.9.145-1.058,2.1-.174,2.175.389,2.558.879,2.54s.977-.693.954-2.244-.064-2.282-.774-2.392" transform="translate(289.633 170.258)" fill="#1a1a1a"/>
      <path id="Trazado_12607" data-name="Trazado 12607" d="M77.829,89.337c-.536-.1-.908.113-1.128,2.059-.249,2.172.3,2.572.789,2.569s1-.658,1.029-2.212.014-2.282-.69-2.415" transform="translate(271.245 169.673)" fill="#1a1a1a"/>
      <path id="Trazado_12608" data-name="Trazado 12608" d="M76.491,89.3a4.631,4.631,0,0,1,4.41-.754c-2.555-2.056-4.007-1.171-4.857-.438.067,1.113.255,1.192.447,1.192" transform="translate(270.597 165.795)" fill="#1a1a1a"/>
      <path id="Trazado_12609" data-name="Trazado 12609" d="M72.746,127.031c3.77,0,9.914-7.49,11.19-9.1-4.234,3.152-9.552,8.395-11.558,7.681-2.294-.89-2.6-9.412-2.256-14.577l-.606-11.5c-1.354.075-.748,11.494-.748,11.494-.162,2.314-.763,14.345,3.12,15.844a2.36,2.36,0,0,0,.858.157" transform="translate(289.055 189.088)" fill="#1a1a1a"/>
      <path id="Trazado_12610" data-name="Trazado 12610" d="M78.1,113.06c-3.952-7.42,1.989-13.689,2.05-13.75-1.044-.873-7.754,6.211-2.6,13.463a.672.672,0,0,0,.554.287" transform="translate(272.573 188.52)" fill="#1a1a1a"/>
      <path id="Trazado_12611" data-name="Trazado 12611" d="M96.252,101.46c.244-2.56-.8-6.661-1.58-7.417-3.764-3.642-9.592-3.773-14.733-3.886-6.2-.142-11.547-.261-12.318-5.994-.42,7.064,6.04,7.206,12.286,7.348,5.132.113,10.439.232,13.823,3.509a29.283,29.283,0,0,1,1.862,5.924.681.681,0,0,0,.661.516" transform="translate(279.694 159.884)" fill="#1a1a1a"/>
      <path id="Trazado_12612" data-name="Trazado 12612" d="M75.923,131.537c8.957,0,18.019-4.3,18.538-4.55-.757-1.14-17.645,6.866-27.541,1.055-4.318-2.529-6.727-7.368-7.162-14.388-.568-9.091,5.8-16.769,8.975-19.063C64.567,95.929,57.8,104.086,58.4,113.739c.467,7.5,3.1,12.709,7.832,15.476a18.992,18.992,0,0,0,9.688,2.323" transform="translate(308.302 179.696)" fill="#1a1a1a"/>
      <path id="Trazado_12613" data-name="Trazado 12613" d="M67.1,181.227c3.021-24.407-10.187-63.77-10.323-64.165-1.151.824,11.967,39.914,9.647,63.422.632.742.652.742.676.742" transform="translate(340.038 222.383)" fill="#1a1a1a"/>
      <path id="Trazado_12614" data-name="Trazado 12614" d="M73.706,99.326a4.774,4.774,0,0,0,2.775-.821A6.426,6.426,0,0,0,78.853,94.2c-1.357-.107-1.595,2.134-3.146,3.2a4.316,4.316,0,0,1-3.688.325c.365,1.508,1.053,1.606,1.688,1.606" transform="translate(284.32 178.938)" fill="#1a1a1a"/>
      <path id="Trazado_12615" data-name="Trazado 12615" d="M88.628,169.684c1.633-4.651,2.514-9.1,1.725-14.087-1.778-11.219-10.851-17.01-18.338-16.8-2.036.061-3.613.406-6.582,2.1,3.41-.38,4.773-.684,6.623-.742,7-.2,15.3,5.214,16.955,15.664.754,4.747-.064,8.873-1.041,13.037.554.826.606.832.658.832" transform="translate(291.621 263.656)" fill="#1a1a1a"/>
      <path id="Trazado_12616" data-name="Trazado 12616" d="M115.912,144.278c-8.487-4.007-18.8-5.4-30.45-5.486,11.509,1.438,21.69,2.816,30.25,5.46a.79.79,0,0,0,.2.026" transform="translate(208.277 263.663)" fill="#1a1a1a"/>
      <path id="Trazado_12617" data-name="Trazado 12617" d="M102.2,160.99a17.749,17.749,0,0,0,.647-8.554,19.068,19.068,0,0,0-5.388-11.146c1.763,3.662,3.352,6.965,4.045,11.358a25.548,25.548,0,0,1,.02,7.574c.618.768.647.768.676.768" transform="translate(186.283 268.406)" fill="#1a1a1a"/>
      <path id="Trazado_12618" data-name="Trazado 12618" d="M88.661,182.673c-10.688-41.93-1.722-66.713-1.633-66.954-1.363-.235-10.491,24.92.98,66.455a.677.677,0,0,0,.652.5" transform="translate(244.703 219.828)" fill="#1a1a1a"/>
      <path id="Trazado_12619" data-name="Trazado 12619" d="M113.342,162.585H232.664a7.436,7.436,0,1,0,0-14.873H65.894c0,1.357,166.77,1.357,166.77,1.357a6.081,6.081,0,1,1,0,12.161H113.342c-.679,1.056-.377,1.354,0,1.354" transform="translate(140.828 280.608)" fill="#1a1a1a"/>
      <path id="Trazado_12620" data-name="Trazado 12620" d="M78.622,106.6c-.534-1.783-2.4-5.011-2.163-6.205a24.54,24.54,0,0,1,3.694-.5c.652-.644,1.16-11.712,1.16-11.712-1.357-.067-1.833,10.39-1.833,10.39-.661.046-1.792.142-3.1.342a1.445,1.445,0,0,0-1.25,1.227c-.354,1.812,1.85,5.6,3.149,6.368a.629.629,0,0,0,.345.1" transform="translate(272.952 167.506)" fill="#1a1a1a"/>
      <path id="Trazado_12623" data-name="Trazado 12623" d="M87.1,153.2c3.282,0,7.829-.684,14.052-2.763-12.965,2.908-18.236,1.163-19.927.229a3.426,3.426,0,0,1-1.815-2.105c-.592-2.517,3.175-3.883,3.767-4.08,1.38-.052,14.826-.65,19.6-3.735-5.353,1.844-19.6,2.381-19.738,2.386-.406.1-5.872,1.8-4.95,5.736a4.723,4.723,0,0,0,2.476,2.978A13.337,13.337,0,0,0,87.1,153.2" transform="translate(243.092 267.373)" fill="#1a1a1a"/>
      <path id="Trazado_12625" data-name="Trazado 12625" d="M80.7,150.121c.626-.415,3.894-6.359,6.733-8.7,2.775-2.288,7.742-2.7,7.791-2.7-.325-1.34-5.547-.91-8.656,1.656-3.039,2.508-6.327,8.493-6.466,8.746.374.977.487,1,.6,1" transform="translate(244.488 262.109)" fill="#1a1a1a"/>
      <path id="Trazado_12626" data-name="Trazado 12626" d="M86.3,146.061a73.125,73.125,0,0,0,8.25-.536c-3.677-.9-13.243-.165-15.337-2.036A23.564,23.564,0,0,0,68,138.148c-.133,1.351,5.689,2.239,10.308,6.356,1.366,1.221,4.692,1.557,7.992,1.557" transform="translate(280.287 262.44)" fill="#1a1a1a"/>
      <path id="Trazado_12627" data-name="Trazado 12627" d="M97.929,151.86c-.058-1.366-2.763-1.583-4.55-1.624-10,.119-15.577-1.177-17.526-3.993,2.233,5.6,13.06,5.422,16.633,5.359,2.607.032,5.362.252,5.388.258Z" transform="translate(254.12 277.818)" fill="#1a1a1a"/>
      <path id="Trazado_12628" data-name="Trazado 12628" d="M79.4,91.395c-2.993-6.324-8.522-3.613-8.577-3.584.8,1.125,5.141-.986,8.012,3.288a.69.69,0,0,0,.565.3" transform="translate(287.226 165.67)" fill="#1a1a1a"/>
      <path id="Trazado_12629" data-name="Trazado 12629" d="M50.321,231.544c1.38-5.828,17.819-129.269-6.385-156.621a14.529,14.529,0,0,0-11.144-5.359,12.012,12.012,0,0,0-9.3,4.347c-9.035,10.311-10.8,39.117-5.231,85.614-4.094-45.612-2.4-74.853,6.246-84.72a10.514,10.514,0,0,1,8.108-3.883,13.3,13.3,0,0,1,10.306,4.9c23.792,26.886,6.9,153.675,6.727,154.954.612.768.641.768.673.768" transform="translate(471.198 132.151)" fill="#1a1a1a"/>
      <path id="Trazado_12630" data-name="Trazado 12630" d="M61.977,229.557c.11-2-49.211-103.719-38.073-127.276A7.4,7.4,0,0,1,29.048,97.9a18.242,18.242,0,0,1,16.128,3.555c27.219,21.177,28.869,116.542,28.887,117.5,1.3-3.967-.322-96.992-28.052-118.574a19.6,19.6,0,0,0-17.282-3.8,8.779,8.779,0,0,0-6.055,5.124c-11.41,24.143,36.641,123.266,38.691,127.474a.683.683,0,0,0,.612.383" transform="translate(436.954 182.316)" fill="#1a1a1a"/>
      <path id="Trazado_12631" data-name="Trazado 12631" d="M6.5,200.2c.818-1.453,15.29-87.179,36.823-87.179a8.376,8.376,0,0,1,1.311.1,5.942,5.942,0,0,1,4.729,3.488c7.876,16.5-29.064,81.273-29.438,81.925,2.72-2.012,38.839-65.371,30.664-82.511a7.3,7.3,0,0,0-5.738-4.239C21.21,108.037,6.447,195.678,5.83,199.41c.6.783.635.789.67.789" transform="translate(503.308 212.139)" fill="#1a1a1a"/>
      <path id="Trazado_12632" data-name="Trazado 12632" d="M40.865,104.057H82.658c0-1.354-41.793-1.354-41.793-1.354-.679,1.053-.374,1.354,0,1.354" transform="translate(372.017 195.105)" fill="#1a1a1a"/>
      <path id="Trazado_12633" data-name="Trazado 12633" d="M93.917,140.25h44.951c0-1.354-44.951-1.354-44.951-1.354a15.621,15.621,0,0,1-15.6-15.6V83.651c-1.354,0-1.354,39.642-1.354,39.642A16.975,16.975,0,0,0,93.917,140.25" transform="translate(209.974 158.912)" fill="#1a1a1a"/>
      <path id="Trazado_12634" data-name="Trazado 12634" d="M245.374,223.387H263.5a16.977,16.977,0,0,0,16.957-16.957V56.845A16.977,16.977,0,0,0,263.5,39.888H19.383A16.975,16.975,0,0,0,2.426,56.845v47.372c1.354,0,1.354-47.372,1.354-47.372a15.619,15.619,0,0,1,15.6-15.6H263.5a15.618,15.618,0,0,1,15.6,15.6V206.429a15.621,15.621,0,0,1-15.6,15.6H245.374c-.679,1.053-.374,1.354,0,1.354" transform="translate(284.508 75.775)" fill="#1a1a1a"/>
      <path id="Trazado_12635" data-name="Trazado 12635" d="M9.545,56.91H242.286c0-1.354-232.741-1.354-232.741-1.354-.679,1.053-.377,1.354,0,1.354" transform="translate(303.211 105.54)" fill="#1a1a1a"/>
      <path id="Trazado_12636" data-name="Trazado 12636" d="M92.15,60.969a8.093,8.093,0,1,0-8.093-8.093,8.1,8.1,0,0,0,8.093,8.093m0-14.829a6.737,6.737,0,1,1-6.739,6.736A6.746,6.746,0,0,1,92.15,46.14" transform="translate(228.02 85.074)" fill="#1a1a1a"/>
      <path id="Trazado_12638" data-name="Trazado 12638" d="M72.359,60.969a8.093,8.093,0,1,0-8.09-8.093,8.1,8.1,0,0,0,8.09,8.093m0-14.829a6.737,6.737,0,1,1-6.736,6.736,6.743,6.743,0,0,1,6.736-6.736" transform="translate(305.19 85.074)" fill="#1a1a1a"/>
      <path id="Trazado_12639" data-name="Trazado 12639" d="M26.223,91.218c.679-.679.679-35.428.679-35.428-1.357,0-1.357,34.75-1.357,34.75a.678.678,0,0,0,.679.679" transform="translate(471.032 105.982)" fill="#1a1a1a"/>
      <path id="Trazado_12640" data-name="Trazado 12640" d="M12.627,166.459c.673-.6,3.558-26.048,3.558-26.048-1.345-.148-4.231,25.294-4.231,25.294.623.754.65.754.673.754" transform="translate(521.155 266.738)" fill="#1a1a1a"/>
      <path id="Trazado_12641" data-name="Trazado 12641" d="M31.875,166.556c.67-.754-2.212-26.2-2.212-26.2-1.345.148,1.54,25.593,1.54,25.593a.675.675,0,0,0,.673.6" transform="translate(455.051 266.642)" fill="#1a1a1a"/>
      <path id="Trazado_12642" data-name="Trazado 12642" d="M38.945,148.374c9.337,0,26.99-1.1,26.99-5.266,0-2.2-6.5-3.642-9.294-4.158,5.193,2.343,7.771,3.694,7.942,4.193,0,1.334-8.806,3.877-25.639,3.877s-25.636-2.543-25.636-3.912c0-.644,2.21-2.111,10.564-3.077-11.921.009-11.921,2.32-11.921,3.077,0,4.164,17.659,5.266,26.993,5.266" transform="translate(471.41 263.963)" fill="#1a1a1a"/>
      <path id="Trazado_12643" data-name="Trazado 12643" d="M9.558,181.608c.635-.432,25.671-65.327,25.671-65.327-1.264-.49-26.306,64.405-26.306,64.405.47.91.554.922.635.922" transform="translate(510.9 220.893)" fill="#1a1a1a"/>
      <path id="Trazado_12644" data-name="Trazado 12644" d="M50.275,205.418c-3.062-32.97-26.2-101.863-26.437-102.556-1.05,1.125,22.046,69.88,25.764,101.956a.675.675,0,0,0,.673.6" transform="translate(452.703 195.405)" fill="#1a1a1a"/>
      <path id="Trazado_12645" data-name="Trazado 12645" d="M24.787,213.319c.679-.7-3.755-137.083-3.755-137.083-1.357.046,3.077,136.428,3.077,136.428a.675.675,0,0,0,.679.655" transform="translate(486.908 144.825)" fill="#1a1a1a"/>
      <path id="Trazado_12646" data-name="Trazado 12646" d="M108.665,156.32c1.74-3.126,4.352-9.444,11.393-12.576-8.093,2.117-10.845,8.783-12.022,11.631.452.925.539.945.629.945" transform="translate(138.673 273.07)" fill="#1a1a1a"/>
      <path id="Trazado_12647" data-name="Trazado 12647" d="M103.54,153.976a14.645,14.645,0,0,1,3.952-5.051c2.876-2.5,9.337-3.738,11.75-2.047-2.247-3.222-9.3-1.882-12.164.621a12.213,12.213,0,0,0-4.167,5.541c.455.922.545.937.629.937" transform="translate(154.35 275.42)" fill="#1a1a1a"/>
      <path id="Trazado_12648" data-name="Trazado 12648" d="M103.175,153.995c.586-.174.768-.565.635-.913a1.955,1.955,0,0,1,.038-1.691c.879-1.644,4.312-2.447,6.359-2.923,3.59-.809,6.376-1.418,6.823-3.349a25.6,25.6,0,0,1-5.364,1.612c-4.19.98-7.847,1.835-9.012,4.019a3.247,3.247,0,0,0-.113,2.8.678.678,0,0,0,.635.444" transform="translate(158.395 275.682)" fill="#1a1a1a"/>
      <path id="Trazado_12649" data-name="Trazado 12649" d="M111,156.9c1.65-4.1,6.008-11.506,11.173-13.457-5.889.774-10.619,8.226-11.822,12.6.534.847.589.855.65.855" transform="translate(129.861 272.497)" fill="#1a1a1a"/>
      <path id="Trazado_12650" data-name="Trazado 12650" d="M112.586,157.648a24.055,24.055,0,0,1,2.723-7.125,19.547,19.547,0,0,1,8.427-7.768c-5.4,1-8.023,4.561-9.578,7.052-.568.919-2.621,4.848-2.241,7.267a.679.679,0,0,0,.67.574" transform="translate(123.878 271.191)" fill="#1a1a1a"/>
      <path id="Trazado_12654" data-name="Trazado 12654" d="M153.182,103.208h30.38a4.888,4.888,0,0,0,4.883-4.886V94.6a4.886,4.886,0,0,0-4.883-4.88h-30.38a4.885,4.885,0,0,0-4.877,4.88v3.723a4.886,4.886,0,0,0,4.877,4.886m30.38-12.135a3.532,3.532,0,0,1,3.526,3.526v3.723a3.533,3.533,0,0,1-3.526,3.529h-30.38a3.529,3.529,0,0,1-3.52-3.529V94.6a3.529,3.529,0,0,1,3.52-3.526Z" transform="translate(-46.482 170.439)" fill="#1a1a1a"/>
      <path id="Trazado_12657" data-name="Trazado 12657" d="M156.219,77.9h1.488c0-1.357-1.488-1.357-1.488-1.357a4.1,4.1,0,0,1-4.091-4.091v-12.9a4.1,4.1,0,0,1,4.091-4.1h14.664a4.1,4.1,0,0,1,4.1,4.1v12.9a4.1,4.1,0,0,1-4.1,4.091h-1.815c0,1.357,1.815,1.357,1.815,1.357a5.456,5.456,0,0,0,5.454-5.449v-12.9a5.457,5.457,0,0,0-5.454-5.454H156.219a5.454,5.454,0,0,0-5.446,5.454v12.9a5.453,5.453,0,0,0,5.446,5.449" transform="translate(-41.53 102.772)" fill="#1a1a1a"/>
      <path id="Trazado_12658" data-name="Trazado 12658" d="M122.939,75.551A10.15,10.15,0,1,0,112.787,65.4a10.163,10.163,0,0,0,10.152,10.149m0-18.944a8.793,8.793,0,1,1-8.795,8.795,8.8,8.8,0,0,1,8.795-8.795" transform="translate(111.864 104.958)" fill="#1a1a1a"/>
      <path id="Trazado_12659" data-name="Trazado 12659" d="M146.849,179.379h25.2c0-1.357-25.2-1.357-25.2-1.357a15.621,15.621,0,0,1-15.6-15.6V50.577a15.621,15.621,0,0,1,15.6-15.6H258.688a15.621,15.621,0,0,1,15.6,15.6V162.419a15.621,15.621,0,0,1-15.6,15.6h-26.8c0,1.357,26.8,1.357,26.8,1.357a16.978,16.978,0,0,0,16.957-16.96V50.577a16.978,16.978,0,0,0-16.957-16.96H146.849a16.978,16.978,0,0,0-16.957,16.96V162.419a16.978,16.978,0,0,0,16.957,16.96" transform="translate(-80.29 63.862)" fill="#1a1a1a"/>
      <path id="Trazado_12660" data-name="Trazado 12660" d="M120.273,59.874h90.291c0-1.357-90.291-1.357-90.291-1.357-.678,1.055-.377,1.357,0,1.357" transform="translate(13.856 111.165)" fill="#1a1a1a"/>
      <path id="Trazado_12661" data-name="Trazado 12661" d="M200.412,75.551A10.15,10.15,0,1,0,190.26,65.4a10.163,10.163,0,0,0,10.152,10.149m0-18.944a8.793,8.793,0,1,1-8.795,8.795,8.8,8.8,0,0,1,8.795-8.795" transform="translate(-190.26 104.958)" fill="#1a1a1a"/>
      <path id="Trazado_12662" data-name="Trazado 12662" d="M159.759,59.874h90.291c0-1.357-90.291-1.357-90.291-1.357-.679,1.055-.377,1.357,0,1.357" transform="translate(-140.128 111.165)" fill="#1a1a1a"/>
      <path id="Trazado_12663" data-name="Trazado 12663" d="M33.543,62.1h66.835c0-1.354-66.835-1.354-66.835-1.354-.676,1.055-.374,1.354,0,1.354" transform="translate(375.523 115.394)" fill="#1a1a1a"/>
      <path id="Trazado_12664" data-name="Trazado 12664" d="M33.543,67.153h66.835c0-1.357-66.835-1.357-66.835-1.357-.676,1.055-.374,1.357,0,1.357" transform="translate(375.523 124.993)" fill="#1a1a1a"/>
      <path id="Trazado_12665" data-name="Trazado 12665" d="M33.543,78.677h66.835c0-1.357-66.835-1.357-66.835-1.357-.676,1.055-.374,1.357,0,1.357" transform="translate(375.523 146.885)" fill="#1a1a1a"/>
      <path id="Trazado_12666" data-name="Trazado 12666" d="M33.543,83.728h66.835c0-1.354-66.835-1.354-66.835-1.354-.676,1.055-.374,1.354,0,1.354" transform="translate(375.523 156.486)" fill="#1a1a1a"/>
      <path id="Trazado_12667" data-name="Trazado 12667" d="M113.579,80.885c.606-.377,1.78-2.537,4.068-6.075a19.333,19.333,0,0,0-4.669,5.074c.377.977.49,1,.6,1M121.5,68.671c2.033-2.328,3.607-4.419,5.254-6.492-2.717,1.25-4.315,3.352-5.8,5.42.275,1.032.418,1.073.548,1.073m9.705-12.26c2.218-2.2,3.975-4.144,5.736-6.008-2.761.951-4.529,2.905-6.249,4.889.2,1.064.357,1.119.513,1.119m10.723-11.352c2.326-1.986,4.251-3.767,6.182-5.483-2.845.713-4.787,2.508-6.649,4.318.119,1.1.293,1.166.467,1.166M153.633,34.71c2.45-1.78,4.524-3.372,6.6-4.88-2.888.423-4.982,2.03-7.023,3.674.029,1.116.229,1.206.423,1.206m12.631-9.189c2.517-1.511,4.744-2.882,6.985-4.187-2.943.142-5.193,1.525-7.362,2.946-.064,1.137.151,1.241.377,1.241m13.5-7.829c2.618-1.253,4.982-2.375,7.319-3.41-2.911-.2-5.292.937-7.623,2.128-.183,1.145.061,1.282.3,1.282m14.272-6.3c2.659-.951,5.13-1.8,7.583-2.558-2.876-.528-5.376.328-7.823,1.244-.293,1.145-.035,1.314.241,1.314m14.9-4.619c2.688-.641,5.24-1.189,7.745-1.653-2.781-.867-5.359-.31-7.9.316-.429,1.128-.151,1.337.159,1.337" transform="translate(27.708 8.876)" fill="#1a1a1a"/>
      <path id="Trazado_12668" data-name="Trazado 12668" d="M172.538,102.719c.661-.882.3-3.755-.887-8.543a56.4,56.4,0,0,0,.217,7.942.674.674,0,0,0,.67.6M168.821,87.5c.568-.151.763-.534.647-.89-.806-2.476-1.711-4.961-2.679-7.386-.3,2.9.592,5.362,1.389,7.809a.682.682,0,0,0,.644.467m-5.791-14.51a22.412,22.412,0,0,0-2.99-7.954c.081,2.94,1.279,5.26,2.375,7.565a.68.68,0,0,0,.615.389m-7.609-13.643a20.661,20.661,0,0,0-3.917-7.5c.449,2.868,1.943,5.014,3.343,7.183a.689.689,0,0,0,.574.313m-9.343-12.5a19.114,19.114,0,0,0-4.808-6.893c.844,2.784,2.616,4.706,4.294,6.658a.679.679,0,0,0,.513.235M135.118,35.754a17.9,17.9,0,0,0-5.617-6.168c1.215,2.642,3.23,4.294,5.173,6a.652.652,0,0,0,.444.171M122.73,26.292a16.842,16.842,0,0,0-6.316-5.344c1.586,2.462,3.813,3.822,5.941,5.231a.674.674,0,0,0,.374.113m-13.544-7.707a16.248,16.248,0,0,0-6.861-4.492c1.882,2.244,4.265,3.311,6.562,4.425a.679.679,0,0,0,.3.067M94.771,12.649c-2.207-2.154-4.724-2.94-7.255-3.657,2.143,2.012,4.634,2.792,7.032,3.619a.694.694,0,0,0,.223.038m-15-4.251c-2.36-1.914-4.944-2.436-7.528-2.888,2.323,1.786,4.883,2.3,7.38,2.871a.683.683,0,0,0,.148.017M64.417,5.678a5.463,5.463,0,0,0-3.891-1.815A4.087,4.087,0,0,0,63.9,5.62c.461.055.49.058.519.058" transform="translate(223.63 7.339)" fill="#1a1a1a"/>
      <path id="Trazado_12669" data-name="Trazado 12669" d="M211.859,211.673c-2.494-1.757-5.022-2.311-7.42-3,2.073,2.007,4.66,2.575,7.319,2.992a.4.4,0,0,0,.1.009m-14.922-4.344a28,28,0,0,0-6.458-5c1.406,2.546,3.741,3.822,6.171,4.932a.686.686,0,0,0,.287.064m-12.976-8.537a34.12,34.12,0,0,0-4.8-6.794c.606,2.917,2.424,4.86,4.341,6.614a.647.647,0,0,0,.455.18M174.2,186.7a37.618,37.618,0,0,0-2.981-7.881c-.13,3.013,1.087,5.367,2.4,7.551a.679.679,0,0,0,.583.331m-6.426-14.206c.571-.151.763-.536.644-.89-.783-2.363-1.5-4.871-2.125-7.452-.684,2.937.041,5.48.835,7.878a.686.686,0,0,0,.647.464m-3.691-15.148a42.425,42.425,0,0,0-.371-8.5c-1.064,2.816-.71,5.44-.3,7.931a.685.685,0,0,0,.67.565M162.431,141.8a45.48,45.48,0,0,0,.47-8.485c-1.345,2.659-1.273,5.3-1.148,7.838a.679.679,0,0,0,.679.647m-.061-15.612a49.589,49.589,0,0,0,1.148-8.418c-1.563,2.5-1.722,5.124-1.827,7.71a6.468,6.468,0,0,0,.678.708m1.241-15.571a54.557,54.557,0,0,0,1.737-8.3c-1.74,2.334-2.1,4.944-2.41,7.542.621.757.65.757.673.757m2.45-15.412a81.226,81.226,0,0,0,2.433-8.1c-1.917,1.876-2.531,4.524-3.1,7.287.574.809.623.815.667.815" transform="translate(-108.709 165.473)" fill="#1a1a1a"/>
      <path id="Trazado_12670" data-name="Trazado 12670" d="M74.4,52.432a7.415,7.415,0,1,0,7.415-7.415A7.413,7.413,0,0,0,74.4,52.432" transform="translate(267.048 85.519)" opacity="0.4" fill="url(#linear-gradient-2)"/>
      <path id="Trazado_12637" data-name="Trazado 12637" d="M82.257,60.969a8.093,8.093,0,1,0-8.093-8.093,8.1,8.1,0,0,0,8.093,8.093m0-14.829a6.737,6.737,0,1,1-6.739,6.736,6.745,6.745,0,0,1,6.739-6.736" transform="translate(266.603 85.074)" fill="#1a1a1a"/>
      <path id="Trazado_12671" data-name="Trazado 12671" d="M173.886,58.2l27.825,56.643s-3.14,19.419-12.138,30.351H156.807s-8.514-11.344-11.222-29.98Zm-.238,61.189a8.934,8.934,0,1,0-8.934-8.931,8.931,8.931,0,0,0,8.934,8.931" transform="translate(-51.861 110.57)" opacity="0.4" fill="url(#linear-gradient-2)"/>
      <g id="Grupo_9139" data-name="Grupo 9139" transform="translate(93.112 168.473)">
        <path id="Trazado_12651" data-name="Trazado 12651" d="M160.782,146.074c9.183-12.057,12.585-30.351,12.619-30.54-.061-.423-28.072-57.434-28.072-57.434-1.212.6,26.689,57.408,26.689,57.408-.4,2.085-3.839,18.648-11.781,29.487.267,1.035.4,1.079.545,1.079" transform="translate(-115.81 -58.1)" fill="#1a1a1a"/>
        <path id="Trazado_12652" data-name="Trazado 12652" d="M166.553,145.334c-7.156-11.921-9.943-28.188-10.274-30.2l28.214-56.822c-1.218-.6-29.522,56.411-29.522,56.411-.038.58,2.644,18.529,11.03,30.325a.671.671,0,0,0,.551.287" transform="translate(-154.971 -57.708)" fill="#1a1a1a"/>
        <path id="Trazado_12653" data-name="Trazado 12653" d="M150.047,89.328h33.138c0-1.357-33.138-1.357-33.138-1.357-.679,1.055-.377,1.357,0,1.357" transform="translate(-138.213 -1.354)" fill="#1a1a1a"/>
        <path id="Trazado_12656" data-name="Trazado 12656" d="M155.636,100.751c.678-.676.678-42.141.678-42.141-1.357,0-1.357,41.466-1.357,41.466a.673.673,0,0,0,.679.676" transform="translate(-126.751 -57.131)" fill="#1a1a1a"/>
      </g>
      <path id="Trazado_12655" data-name="Trazado 12655" d="M161.491,92.135a9.612,9.612,0,1,0-9.613-9.615,9.621,9.621,0,0,0,9.613,9.615m0-17.868a8.257,8.257,0,1,1-8.258,8.253,8.259,8.259,0,0,1,8.258-8.253" transform="translate(-39.495 138.507)" fill="#1a1a1a"/>
      <path id="Trazado_12588" data-name="Trazado 12588" d="M147.7,216.861h18.738c0-1.357-18.738-1.357-18.738-1.357-9.534,0-17.865-5.017-20.724-12.495L98.313,128.354a14.871,14.871,0,0,1,1.78-14.113c3.915-5.7,11-9.105,18.944-9.105h108.8c9.534,0,17.862,5.016,20.724,12.495l28.666,74.65a14.9,14.9,0,0,1-1.783,14.122c-3.92,5.7-11,9.1-18.947,9.1h-63.64c0,1.357,63.64,1.357,63.64,1.357,8.392,0,15.893-3.625,20.063-9.694a16.218,16.218,0,0,0,1.934-15.377l-28.664-74.65c-3.068-7.992-11.9-13.362-21.994-13.362h-108.8c-8.389,0-15.893,3.625-20.06,9.694a16.2,16.2,0,0,0-1.934,15.371L125.7,203.5c3.071,7.992,11.906,13.362,22,13.362" transform="translate(14.239 197.149)" fill="#1a1a1a"/>
      <path id="Trazado_12673" data-name="Trazado 12673" d="M84.3,151.929l2.685-7.278s2.166,4.176,4.468,4.306Z" transform="translate(236.117 274.793)" opacity="0.4" fill="url(#linear-gradient-2)"/>
      <path id="Trazado_12674" data-name="Trazado 12674" d="M75.169,155.015,94.447,134.5l4.819,3.984L85.643,153.779Z" transform="translate(254.769 255.513)" opacity="0.4" fill="url(#linear-gradient-2)"/>
      <path id="Trazado_12621" data-name="Trazado 12621" d="M75.5,156.1c.5-.226,18.607-20.353,18.607-20.353l3.958,3.5-13.04,14.4c1.009.913,14.516-13.991,14.516-13.991-.055-.966-5.04-5.364-5.04-5.364-.957.058-19.5,20.684-19.5,20.684.177,1.073.342,1.131.5,1.131" transform="translate(255.006 255.107)" fill="#1a1a1a"/>
      <path id="Trazado_12622" data-name="Trazado 12622" d="M84.838,153.368c.278-.058,7.591-3.326,7.591-3.326-.551-1.241-6.507,1.424-6.507,1.424l2.128-7c-1.3-.394-3.862,8.023-3.862,8.023.328.818.487.876.65.876" transform="translate(235.454 274.422)" fill="#1a1a1a"/>
      <path id="Trazado_12624" data-name="Trazado 12624" d="M91.111,152.206a51.976,51.976,0,0,0,9.711-.983c-.42-1.3-14.014,1.517-19.953-2.717a6.055,6.055,0,0,1-2.624-4.381c-1.067,2.392,0,4.178,1.838,5.489,2.836,2.018,7.1,2.592,11.028,2.592" transform="translate(245.523 273.794)" fill="#1a1a1a"/>
    </g>
    <g id="Grupo_9165" data-name="Grupo 9165" transform="translate(1070.312 208)">
      <g id="Grupo_9164" data-name="Grupo 9164" clip-path="url(#clip-path-5)">
        <path id="Trazado_12850" data-name="Trazado 12850" d="M24.812,35.754a3.573,3.573,0,0,1-3.182-1.941L7.206,5.755a3.575,3.575,0,1,1,6.357-3.273L27.987,30.54a3.577,3.577,0,0,1-3.175,5.214" fill="#b3b3b3"/>
        <path id="Trazado_12851" data-name="Trazado 12851" d="M3.578,28.941a3.578,3.578,0,0,1-1.639-6.758L29.981,7.751a3.576,3.576,0,0,1,3.271,6.361L5.21,28.544a3.555,3.555,0,0,1-1.632.4" fill="#b3b3b3"/>
        <path id="Trazado_12852" data-name="Trazado 12852" d="M29.308,35.213a3.573,3.573,0,0,1-3.182-1.941L11.7,5.214a3.575,3.575,0,1,1,6.357-3.273L32.483,30a3.577,3.577,0,0,1-3.175,5.214" fill="#303030"/>
        <path id="Trazado_12853" data-name="Trazado 12853" d="M8.075,28.4a3.577,3.577,0,0,1-1.639-6.758L34.478,7.21a3.576,3.576,0,0,1,3.271,6.361L9.707,28a3.561,3.561,0,0,1-1.632.4" fill="#303030"/>
      </g>
    </g>
    <g id="Grupo_9166" data-name="Grupo 9166" transform="translate(717.312 562)">
      <g id="Grupo_9164-2" data-name="Grupo 9164" transform="translate(0 0)" clip-path="url(#clip-path-6)">
        <path id="Trazado_12850-2" data-name="Trazado 12850" d="M18.462,23.333a2.313,2.313,0,0,1-2.06-1.256L7.066,3.916A2.314,2.314,0,1,1,11.181,1.8l9.336,18.16a2.315,2.315,0,0,1-2.055,3.375" transform="translate(-2.402 -0.191)" fill="#b3b3b3"/>
        <path id="Trazado_12851-2" data-name="Trazado 12851" d="M2.316,21.326a2.316,2.316,0,0,1-1.061-4.374l18.15-9.341a2.315,2.315,0,0,1,2.117,4.117L3.372,21.069a2.3,2.3,0,0,1-1.056.257" transform="translate(0 -2.595)" fill="#b3b3b3"/>
        <path id="Trazado_12852-2" data-name="Trazado 12852" d="M22.958,22.792a2.313,2.313,0,0,1-2.06-1.256L11.562,3.375a2.314,2.314,0,1,1,4.115-2.118l9.336,18.16a2.315,2.315,0,0,1-2.055,3.375" transform="translate(-3.988 0)" fill="#303030"/>
        <path id="Trazado_12853-2" data-name="Trazado 12853" d="M6.813,20.785a2.315,2.315,0,0,1-1.061-4.374L23.9,7.07a2.315,2.315,0,0,1,2.117,4.117L7.869,20.528a2.3,2.3,0,0,1-1.056.257" transform="translate(-1.586 -2.404)" fill="#303030"/>
      </g>
    </g>
  </g>
</svg>
