<svg xmlns="http://www.w3.org/2000/svg" width="289" height="289" fill="none" viewBox="0 0 289 289"><path fill="#fff" d="M272.894 126.269a129.7 129.7 0 01-62.459 129.882 129.71 129.71 0 01-143.899-7.999 129.705 129.705 0 0159.726-232.103 129.841 129.841 0 01146.632 110.22zm-255.49 36.21A128.345 128.345 0 10126.45 17.396 128.48 128.48 0 0017.403 162.48z"></path><path fill="#fff" d="M287.381 124.234a144.313 144.313 0 01-229.6 135.612 144.312 144.312 0 01-9.51-222.91 144.314 144.314 0 0175.97-35.333 144.475 144.475 0 01163.14 122.631zM3.132 164.554a142.847 142.847 0 00188.707 114.785 142.841 142.841 0 0075.688-207.503 142.848 142.848 0 00-143.111-68.71A142.967 142.967 0 003.132 164.553z"></path><path fill="#fff" d="M158.443 248.105l1.981 16.171a120.989 120.989 0 01-29.041 0l1.927-16.171a104.512 104.512 0 0025.133 0zm-26.386-.108l-2.129 16.171a120.491 120.491 0 01-28.084-7.277l5.942-15.174a104.143 104.143 0 0024.298 6.28h-.027zm-25.497-6.738l-6.064 15.093a121.911 121.911 0 01-25.416-14.069l9.555-13.219a104.745 104.745 0 0021.952 12.182l-.027.013zm-23.017-12.923l-9.703 13.098a121.751 121.751 0 01-21.103-19.944l12.546-10.417a105.502 105.502 0 0018.287 17.249l-.027.014zM59.65 85.019l-1.064 1.576-13.584-9.015 1.226-1.82L59.65 85.02zm-1.752 2.695a105.365 105.365 0 00-10.996 22.613l-15.403-5.377a120.765 120.765 0 0112.708-26.13l13.691 8.894zm6.604 122.443l-12.654 10.255a120.05 120.05 0 01-15.444-24.607l14.743-6.94a104.278 104.278 0 0013.355 21.224v.068zm-18.004-98.644a103.929 103.929 0 00-4.96 24.634l-16.251-1.267a120.263 120.263 0 015.74-28.488l15.47 5.121zm4.137 76.152l-14.824 6.738a120.952 120.952 0 01-8.746-27.706l16.023-3.005a104.58 104.58 0 007.547 23.973zm-9.177-50.319a106.05 106.05 0 001.347 25.106l-16.05 2.83a122.377 122.377 0 01-1.603-29.001l16.306 1.065zM254.122 129.988c0 .458.121.903.175 1.348l-1.347.162c0-.445-.108-.89-.175-1.348l1.347-.162zm-.202-1.347l-1.348.202c-.067-.445-.148-.89-.215-1.348l1.347-.215.216 1.361zm.539 4.042c0 .459.108.903.148 1.348l-1.347.135c0-.445-.095-.89-.148-1.348l1.347-.135zm-.97-6.738l-1.348.243-.242-1.348 1.347-.256.243 1.361zm1.253 9.434c0 .458.067.903.108 1.347l-1.348.108c0-.458 0-.903-.107-1.348l1.347-.107zm-1.765-12.129l-1.348.27c-.081-.445-.175-.89-.269-1.348l1.347-.283c.148.472.229.917.324 1.375l-.054-.014zm1.967 14.824l.081 1.347-1.348.068c0-.445 0-.89-.08-1.348l1.347-.067zm-2.533-17.519l-1.348.31-.31-1.348 1.348-.31.31 1.348zm2.695 20.295v1.347h-1.348v-1.347h1.348zm-3.315-22.909l-1.348.337c-.121-.445-.229-.876-.35-1.348l1.347-.35c.162.471.27.903.378 1.347l-.027.014zm3.423 25.671v1.348h-1.348v-1.348h1.348zm-4.043-28.299l-1.348.364-.377-1.348 1.348-.377c.08.458.202.903.323 1.361h.054zm4.043 30.995v1.347h-1.348v-1.347h1.348zm-4.865-33.69l-1.348.404-.39-1.348 1.347-.404.391 1.348zm4.811 36.385c0 .458 0 .916-.068 1.347l-1.347-.067v-1.348l1.415.068zm-5.647-39l-1.347.418a48.51 48.51 0 00-.431-1.267l1.28-.444c.215.485.35.916.498 1.361v-.068zm5.512 41.776c0 .458 0 .916-.094 1.347l-1.348-.107.081-1.348 1.361.108zm-6.414-44.309l-1.281.458c-.148-.418-.296-.849-.458-1.267l1.267-.471c.162.431.323.862.472 1.293v-.013zm6.212 47.045l-.121 1.347-1.348-.135.121-1.347 1.348.135zm-7.169-49.606l-1.267.499-.499-1.253 1.254-.512.512 1.266zm6.899 52.328c0 .444-.094.903-.148 1.347l-1.347-.161c0-.445.107-.89.148-1.348l1.347.162zm-7.923-54.861l-1.254.526-.525-1.24 1.24-.539.539 1.253zm7.6 57.569l-.202 1.348-1.348-.202c0-.445.122-.89.189-1.348l1.361.202zm-8.692-60.076l-1.24.566-.566-1.226 1.24-.58.566 1.24zm8.274 62.785l-.215 1.348-1.348-.229.229-1.348 1.334.229zm-9.433-65.264l-1.213.593a52.026 52.026 0 01-.593-1.213l1.213-.606c.202.417.404.835.593 1.24v-.014zm8.962 67.973c-.081.444-.162.889-.256 1.347l-1.348-.269c.094-.445.175-.89.256-1.348l1.348.27zm-10.175-70.426l-1.199.634c-.216-.405-.418-.809-.634-1.2l1.213-.633.62 1.2zm9.609 73.121c-.095.445-.189.889-.297 1.347l-1.347-.309c.107-.432.202-.876.296-1.348l1.348.31zm-10.902-75.466l-1.2.647-.647-1.172 1.186-.674.661 1.2zm10.295 78.161l-.323 1.348-1.348-.324c.121-.444.229-.876.324-1.347l1.347.323zm-11.63-80.586l-1.185.674-.674-1.16 1.172-.687.687 1.173zm10.956 83.241c-.121.445-.229.876-.363 1.347l-1.348-.363.364-1.348 1.347.364zm-12.357-85.586l-1.159.714c-.229-.377-.458-.768-.701-1.145l1.146-.715.714 1.146zm11.616 88.227l-.391 1.348-1.347-.405.391-1.347 1.347.404zm-13.058-90.532l-1.145.742-.728-1.132 1.132-.742.741 1.132zm12.277 93.133c-.135.431-.27.876-.418 1.348l-1.348-.445c.148-.418.283-.849.418-1.28l1.348.377zm-13.746-95.41l-1.132.755-.755-1.105 1.105-.768.782 1.118zm12.883 98.011c-.148.431-.31.862-.458 1.28l-1.28-.458c.148-.418.31-.849.458-1.28l1.28.458zM234.663 81.003l-1.105.795-.795-1.091 1.091-.809.809 1.105zm13.476 102.822l-.485 1.28-1.267-.499.485-1.266 1.267.485zm-15.12-105.018l-1.092.822-.808-1.065 1.064-.836c.378.364.593.715.863 1.079h-.027zm14.123 107.565c-.176.417-.337.849-.526 1.266l-1.253-.525.525-1.253 1.254.512zM231.348 76.664l-1.065.835-.849-1.037 1.051-.863c.324.35.607.7.89 1.065h-.027zm14.729 112.228c-.175.418-.364.835-.552 1.253l-1.24-.553c.188-.417.377-.822.552-1.239l1.24.539zM229.623 74.548l-1.038.876-.876-1.038 1.038-.876.876 1.038zm15.336 116.837c-.189.418-.391.835-.58 1.24l-1.226-.593.579-1.213 1.227.566zM227.844 72.473l-1.011.903-.903-1.011 1.011-.903.903 1.01zm15.929 121.378c-.202.418-.405.822-.62 1.226l-1.2-.62.607-1.199 1.213.593zm-17.748-123.4l-.997.917-.93-.984.983-.93.944.997zm16.508 125.839l-.647 1.213-1.199-.66c.215-.391.431-.782.633-1.186l1.213.633zM224.138 68.47l-.97.944-.943-.957.956-.957.957.97zm17.088 130.219l-.688 1.199-1.172-.687.674-1.173 1.186.661zm-18.988-132.16l-.943.985-.971-.944.944-.983.97.943zm17.64 134.532c-.229.39-.458.781-.701 1.172l-1.159-.701.701-1.159 1.159.688zM220.271 64.657l-.93.983-.984-.903.903-1.01 1.011.93zm18.192 138.802c-.242.378-.485.768-.741 1.146l-1.132-.728.714-1.145 1.159.727zM218.249 62.757l-.903 1.024-1.01-.89.889-1.024 1.024.89zm18.732 142.845l-.768 1.132-1.119-.755.755-1.132 1.132.755zm-20.794-144.57l-.876 1.037-1.037-.862.862-1.051 1.051.876zm19.257 146.888c-.269.364-.525.741-.795 1.118l-1.105-.795c.27-.364.526-.741.782-1.105l1.118.782zM214.072 59.293l-.849 1.065-1.052-.836.836-1.078 1.065.85zm19.836 150.891l-.822 1.091-1.078-.822.809-1.078 1.091.809zM211.929 57.609l-.822 1.078-1.078-.809.808-1.091 1.092.822zM232.21 212.34l-.849 1.078-1.064-.835.835-1.065 1.078.822zM209.732 56.019l-.795 1.105-1.105-.782.782-1.118 1.118.795zm20.78 158.477c-.296.351-.579.714-.876 1.051l-1.037-.862.849-1.038 1.064.849zM207.495 54.401l-.768 1.119-1.118-.755.754-1.132 1.132.768zm21.265 162.197c-.296.337-.593.688-.902 1.025l-1.011-.89.876-1.024 1.037.889zm-23.529-163.72l-.741 1.146-1.145-.728.727-1.145 1.159.728zm21.724 165.755l-.917 1.011-.997-.916.903-.998 1.011.903zm-24.042-167.21l-.714 1.16-1.145-.701.701-1.173 1.158.714zm22.195 169.232c-.31.337-.633.66-.943.983l-.984-.943.944-.97.983.93zM200.569 50.008l-.688 1.186-1.159-.674.661-1.186 1.186.674zm22.639 172.601l-.97.97-.957-.97c.324-.31.647-.634.957-.957l.97.957zM198.197 48.674l-.66 1.186-1.186-.647.647-1.2 1.199.661zm23.057 175.794l-.983.944-.93-.998.983-.916.93.97zM195.785 47.381l-.634 1.199-1.199-.607.606-1.212 1.227.62zm23.475 179.014l-1.011.903-.903-1.01c.337-.297.674-.593.997-.903l.917 1.01zm-25.928-180.24l-.593 1.212-1.213-.58.58-1.226 1.226.593zM217.225 228.2l-1.038.89-.876-1.038 1.078-.889.836 1.037zM190.852 44.928l-.552 1.24-1.24-.566.553-1.24 1.239.566zm24.257 184.985l-1.064.862-.849-1.065 1.051-.849.862 1.052zM188.359 43.89l-.539 1.24-1.239-.512.512-1.253 1.266.525zm24.661 187.801l-1.078.836-.822-1.092 1.065-.822.835 1.078zM185.826 42.826l-.499 1.266-1.266-.485.498-1.347 1.267.566zm25.025 190.496c-.364.283-.728.539-1.092.809l-.795-1.092 1.078-.795.809 1.078zm-27.586-191.48l-.458 1.348-1.347-.459.458-1.347 1.347.458zm25.389 193.084l-1.118.781-.768-1.118 1.091-.768.795 1.105zM180.692 40.939l-.445 1.348-1.348-.432.418-1.347 1.375.431zm25.712 195.536l-1.132.742-.741-1.132 1.118-.742.755 1.132zm-28.3-196.398l-.418 1.347-1.347-.39.391-1.348 1.374.39zm26.022 197.867l-1.159.728-.714-1.159c.391-.229.768-.472 1.146-.714l.727 1.145zm-28.663-198.65l-.377 1.349-1.348-.364.364-1.348 1.361.364zm26.345 200.092l-1.172.701-.687-1.172 1.159-.688.7 1.159zm-29-200.792l-.337 1.348-1.347-.337.323-1.348 1.361.337zm26.656 202.14l-1.2.66-.647-1.186 1.173-.66.674 1.186zM170.153 37.92l-.31 1.348-1.347-.297.296-1.347 1.361.296zm26.952 204.161l-1.213.634-.619-1.213 1.185-.62.647 1.199zM167.458 37.327l-.269 1.348-1.348-.27.256-1.347 1.361.27zm27.181 206.008l-1.226.606-.593-1.226 1.199-.593.62 1.213zM164.776 36.802l-.242 1.347-1.348-.242.229-1.348 1.361.243zm27.357 207.732l-1.24.58-.553-1.24 1.213-.566.58 1.226zM162.068 36.357l-.202 1.348-1.348-.189.189-1.347 1.361.188zm27.626 209.309l-1.254.539-.539-1.24 1.24-.539.553 1.24zm-30.335-209.7l-.162 1.348-1.347-.162.161-1.347 1.348.161zm27.815 210.778l-1.267.512-.512-1.226 1.253-.512.526 1.226zM156.65 35.656l-.134 1.348-1.348-.135.121-1.347 1.361.134zm27.99 212.085l-1.28.486-.472-1.267 1.267-.485.485 1.266zm-30.712-212.34l-.108 1.347-1.347-.094.094-1.348 1.361.094zm28.152 213.324l-1.348.445-.445-1.348 1.281-.431.512 1.334zm-30.874-213.5v1.348h-1.347l.067-1.348h1.28zm28.3 214.349l-1.348.418-.404-1.348 1.347-.417.405 1.347zM148.511 35.117v1.348h-1.348v-1.348h1.348zm28.407 215.266l-1.347.39-.378-1.347 1.348-.377.377 1.334zM145.735 35.077v1.348h-1.348v-1.348h1.348zm28.515 216.06l-1.348.351-.336-1.348 1.347-.337.337 1.334zM142.999 35.104v1.348h-1.347v-1.348h1.347zm28.61 216.721l-1.348.31-.31-1.348 1.348-.31.31 1.348zM140.277 35.198v1.348h-1.347l-.081-1.348h1.428zm28.664 217.246l-1.348.283-.27-1.347 1.348-.283.27 1.347zm-31.4-217.098l.108 1.348-1.347.108-.122-1.348 1.361-.108zm28.731 217.651l-1.347.243-.256-1.348 1.347-.243.256 1.348zM134.819 35.575l.135 1.348-1.347.135-.149-1.348 1.361-.135zm-2.695.297l.162 1.348-1.348.175-.175-1.348 1.361-.175zm-2.52 1.711l-1.347.203-.203-1.348 1.348-.202.202 1.347zm-2.695.418l-1.348.23-.242-1.348 1.347-.23.243 1.348zm-2.695.485l-1.348.27-.283-1.348 1.348-.27.283 1.348zm-2.695.553l-1.348.296-.31-1.347 1.348-.297.31 1.348zm-2.628.62l-1.348.323-.337-1.347 1.348-.337.337 1.36zm-2.601.674l-1.348.363-.364-1.347 1.348-.364.364 1.348zm-2.588.74l-1.347.392-.404-1.348 1.347-.39.404 1.347zm-2.573.81l-1.267.43-.445-1.347 1.348-.431.364 1.347zm-2.547.875l-1.267.458-.472-1.347 1.28-.458.459 1.347zm-2.52.93l-1.254.485-.498-1.253 1.266-.499.486 1.267zm-2.507.997l-1.24.526-.525-1.253 1.253-.526.512 1.253zm-2.466 1.065l-1.226.539-.566-1.226 1.239-.566.553 1.253zm-2.453 1.118l-1.212.58-.594-1.227 1.227-.579.58 1.226zm-2.425 1.173l-1.186.62-.634-1.2 1.213-.633.607 1.213zm-2.386 1.253l-1.186.633-.646-1.185 1.199-.647.633 1.2zm-2.358 1.348l-1.172.673-.674-1.172 1.172-.674.674 1.173zm-2.331 1.347l-1.146.701-.714-1.145 1.172-.715.688 1.16zm-2.116 1.334c-.377.225-.755.468-1.132.728l-.741-1.145 1.145-.742.728 1.16zm-2.25 1.47l-1.119.754-.768-1.119 1.132-.768.754 1.132zm-2.224 1.522l-1.092.795-.795-1.105 1.105-.795.782 1.105zm-2.264 1.644c-.364.27-.728.54-1.078.822l-.822-1.078 1.078-.835.822 1.091zm-2.143 1.644l-1.05.836-.85-1.051 1.065-.85.835 1.065zm-2.102 1.698L75 62.164l-.875-1.038 1.05-.876.863 1.051zm-2.062 1.739l-1.01.889-.903-1.01 1.024-.904.89 1.025zm-2.008 1.792l-.983.916-.93-.984.997-.93.916.998zM70 66.678l-.97.943-.944-.97.97-.943.944.97zm-1.846 1.9l-.93.957-.984-.943.957-.97.957.956zm-1.873 1.94l-.917.984-.997-.916.93-.997.984.93zM64.46 72.5c-.296.337-.606.674-.89 1.01l-1.023-.889c.296-.35.593-.687.902-1.024l1.011.903zm-1.779 2.035c-.296.337-.58.687-.876 1.037l-1.037-.876c.296-.35.58-.7.876-1.037l1.037.876zm-1.724 2.075l-.85 1.051-1.064-.835.862-1.079 1.052.863zm-1.672 2.116l-.822 1.078-1.091-.876.835-1.078 1.078.876z"></path><path fill="#fff" d="M254.122 129.988c0 .458.121.903.175 1.348l-1.347.162c0-.445-.108-.89-.175-1.348l1.347-.162zm-.202-1.347l-1.348.202c-.067-.445-.148-.89-.215-1.348l1.347-.215.216 1.361zm.539 4.042c0 .459.108.903.148 1.348l-1.347.135c0-.445-.095-.89-.148-1.348l1.347-.135zm-.97-6.738l-1.348.243-.242-1.348 1.347-.256.243 1.361zm1.253 9.434c0 .458.067.903.108 1.347l-1.348.108c0-.458 0-.903-.107-1.348l1.347-.107zm-1.765-12.129l-1.348.27c-.081-.445-.175-.89-.269-1.348l1.347-.283c.148.472.229.917.324 1.375l-.054-.014zm1.967 14.824l.081 1.347-1.348.068c0-.445 0-.89-.08-1.348l1.347-.067zm-2.533-17.519l-1.348.31-.31-1.348 1.348-.31.31 1.348zm2.695 20.295v1.347h-1.348v-1.347h1.348zm-3.315-22.909l-1.348.337c-.121-.445-.229-.876-.35-1.348l1.347-.35c.162.471.27.903.378 1.347l-.027.014zm3.423 25.671v1.348h-1.348v-1.348h1.348zm-4.043-28.299l-1.348.364-.377-1.348 1.348-.377c.08.458.202.903.323 1.361h.054zm4.043 30.995v1.347h-1.348v-1.347h1.348zm-4.865-33.69l-1.348.404-.39-1.348 1.347-.404.391 1.348zm4.811 36.385c0 .458 0 .916-.068 1.347l-1.347-.067v-1.348l1.415.068zm-5.647-39l-1.347.418a48.51 48.51 0 00-.431-1.267l1.28-.444c.215.485.35.916.498 1.361v-.068zm5.512 41.776c0 .458 0 .916-.094 1.347l-1.348-.107.081-1.348 1.361.108zm-6.414-44.309l-1.281.458c-.148-.418-.296-.849-.458-1.267l1.267-.471c.162.431.323.862.472 1.293v-.013zm6.212 47.045l-.121 1.347-1.348-.135.121-1.347 1.348.135zm-7.169-49.606l-1.267.499-.499-1.253 1.254-.512.512 1.266zm6.899 52.328c0 .444-.094.903-.148 1.347l-1.347-.161c0-.445.107-.89.148-1.348l1.347.162zm-7.923-54.861l-1.254.526-.525-1.24 1.24-.539.539 1.253zm7.6 57.569l-.202 1.348-1.348-.202c0-.445.122-.89.189-1.348l1.361.202zm-8.692-60.076l-1.24.566-.566-1.226 1.24-.58.566 1.24zm8.274 62.785l-.215 1.348-1.348-.229.229-1.348 1.334.229zm-9.433-65.264l-1.213.593a52.026 52.026 0 01-.593-1.213l1.213-.606c.202.417.404.835.593 1.24v-.014zm8.962 67.973c-.081.444-.162.889-.256 1.347l-1.348-.269c.094-.445.175-.89.256-1.348l1.348.27zm-10.175-70.426l-1.199.634c-.216-.405-.418-.809-.634-1.2l1.213-.633.62 1.2zm9.609 73.121c-.095.445-.189.889-.297 1.347l-1.347-.309c.107-.432.202-.876.296-1.348l1.348.31zm-10.902-75.466l-1.2.647-.647-1.172 1.186-.674.661 1.2zm10.295 78.161l-.323 1.348-1.348-.324c.121-.444.229-.876.324-1.347l1.347.323zm-11.63-80.586l-1.185.674-.674-1.16 1.172-.687.687 1.173zm10.956 83.241c-.121.445-.229.876-.363 1.347l-1.348-.363.364-1.348 1.347.364zm-12.357-85.586l-1.159.714c-.229-.377-.458-.768-.701-1.145l1.146-.715.714 1.146zm11.616 88.227l-.391 1.348-1.347-.405.391-1.347 1.347.404zm-13.058-90.532l-1.145.742-.728-1.132 1.132-.742.741 1.132zm12.277 93.133c-.135.431-.27.876-.418 1.348l-1.348-.445c.148-.418.283-.849.418-1.28l1.348.377zm-13.746-95.41l-1.132.755-.755-1.105 1.105-.768.782 1.118zm12.883 98.011c-.148.431-.31.862-.458 1.28l-1.28-.458c.148-.418.31-.849.458-1.28l1.28.458zM234.663 81.003l-1.105.795-.795-1.091 1.091-.809.809 1.105zm13.476 102.822l-.485 1.28-1.267-.499.485-1.266 1.267.485zm-15.12-105.018l-1.092.822-.808-1.065 1.064-.836c.378.364.593.715.863 1.079h-.027zm14.123 107.565c-.176.417-.337.849-.526 1.266l-1.253-.525.525-1.253 1.254.512zM231.348 76.664l-1.065.835-.849-1.037 1.051-.863c.324.35.607.7.89 1.065h-.027zm14.729 112.228c-.175.418-.364.835-.552 1.253l-1.24-.553c.188-.417.377-.822.552-1.239l1.24.539zM229.623 74.548l-1.038.876-.876-1.038 1.038-.876.876 1.038zm15.336 116.837c-.189.418-.391.835-.58 1.24l-1.226-.593.579-1.213 1.227.566zM227.844 72.473l-1.011.903-.903-1.011 1.011-.903.903 1.01zm15.929 121.378c-.202.418-.405.822-.62 1.226l-1.2-.62.607-1.199 1.213.593zm-17.748-123.4l-.997.917-.93-.984.983-.93.944.997zm16.508 125.839l-.647 1.213-1.199-.66c.215-.391.431-.782.633-1.186l1.213.633zM224.138 68.47l-.97.944-.943-.957.956-.957.957.97zm17.088 130.219l-.688 1.199-1.172-.687.674-1.173 1.186.661zm-18.988-132.16l-.943.985-.971-.944.944-.983.97.943zm17.64 134.532c-.229.39-.458.781-.701 1.172l-1.159-.701.701-1.159 1.159.688zM220.271 64.657l-.93.983-.984-.903.903-1.01 1.011.93zm18.192 138.802c-.242.378-.485.768-.741 1.146l-1.132-.728.714-1.145 1.159.727zM218.249 62.757l-.903 1.024-1.01-.89.889-1.024 1.024.89zm18.732 142.845l-.768 1.132-1.119-.755.755-1.132 1.132.755zm-20.794-144.57l-.876 1.037-1.037-.862.862-1.051 1.051.876zm19.257 146.888c-.269.364-.525.741-.795 1.118l-1.105-.795c.27-.364.526-.741.782-1.105l1.118.782zM214.072 59.293l-.849 1.065-1.052-.836.836-1.078 1.065.85zm19.836 150.891l-.822 1.091-1.078-.822.809-1.078 1.091.809zM211.929 57.609l-.822 1.078-1.078-.809.808-1.091 1.092.822zM232.21 212.34l-.849 1.078-1.064-.835.835-1.065 1.078.822zM209.732 56.019l-.795 1.105-1.105-.782.782-1.118 1.118.795zm20.78 158.477c-.296.351-.579.714-.876 1.051l-1.037-.862.849-1.038 1.064.849zM207.495 54.401l-.768 1.119-1.118-.755.754-1.132 1.132.768zm21.265 162.197c-.296.337-.593.688-.902 1.025l-1.011-.89.876-1.024 1.037.889zm-23.529-163.72l-.741 1.146-1.145-.728.727-1.145 1.159.728zm21.724 165.755l-.917 1.011-.997-.916.903-.998 1.011.903zm-24.042-167.21l-.714 1.16-1.145-.701.701-1.173 1.158.714zm22.195 169.232c-.31.337-.633.66-.943.983l-.984-.943.944-.97.983.93zM200.569 50.008l-.688 1.186-1.159-.674.661-1.186 1.186.674zm22.639 172.601l-.97.97-.957-.97c.324-.31.647-.634.957-.957l.97.957zM198.197 48.674l-.66 1.186-1.186-.647.647-1.2 1.199.661zm23.057 175.794l-.983.944-.93-.998.983-.916.93.97zM195.785 47.381l-.634 1.199-1.199-.607.606-1.212 1.227.62zm23.475 179.014l-1.011.903-.903-1.01c.337-.297.674-.593.997-.903l.917 1.01zm-25.928-180.24l-.593 1.212-1.213-.58.58-1.226 1.226.593zM217.225 228.2l-1.038.89-.876-1.038 1.078-.889.836 1.037zM190.852 44.928l-.552 1.24-1.24-.566.553-1.24 1.239.566zm24.257 184.985l-1.064.862-.849-1.065 1.051-.849.862 1.052zM188.359 43.89l-.539 1.24-1.239-.512.512-1.253 1.266.525zm24.661 187.801l-1.078.836-.822-1.092 1.065-.822.835 1.078zM185.826 42.826l-.499 1.266-1.266-.485.498-1.347 1.267.566zm25.025 190.496c-.364.283-.728.539-1.092.809l-.795-1.092 1.078-.795.809 1.078zm-27.586-191.48l-.458 1.348-1.347-.459.458-1.347 1.347.458zm25.389 193.084l-1.118.781-.768-1.118 1.091-.768.795 1.105zM180.692 40.939l-.445 1.348-1.348-.432.418-1.347 1.375.431zm25.712 195.536l-1.132.742-.741-1.132 1.118-.742.755 1.132zm-28.3-196.398l-.418 1.347-1.347-.39.391-1.348 1.374.39zm26.022 197.867l-1.159.728-.714-1.159c.391-.229.768-.472 1.146-.714l.727 1.145zm-28.663-198.65l-.377 1.349-1.348-.364.364-1.348 1.361.364zm26.345 200.092l-1.172.701-.687-1.172 1.159-.688.7 1.159zm-29-200.792l-.337 1.348-1.347-.337.323-1.348 1.361.337zm26.656 202.14l-1.2.66-.647-1.186 1.173-.66.674 1.186zM170.153 37.92l-.31 1.348-1.347-.297.296-1.347 1.361.296zm26.952 204.161l-1.213.634-.619-1.213 1.185-.62.647 1.199zM167.458 37.327l-.269 1.348-1.348-.27.256-1.347 1.361.27zm27.181 206.008l-1.226.606-.593-1.226 1.199-.593.62 1.213zM164.776 36.802l-.242 1.347-1.348-.242.229-1.348 1.361.243zm27.357 207.732l-1.24.58-.553-1.24 1.213-.566.58 1.226zM162.068 36.357l-.202 1.348-1.348-.189.189-1.347 1.361.188zm27.626 209.309l-1.254.539-.539-1.24 1.24-.539.553 1.24zm-30.335-209.7l-.162 1.348-1.347-.162.161-1.347 1.348.161zm27.815 210.778l-1.267.512-.512-1.226 1.253-.512.526 1.226zM156.65 35.656l-.134 1.348-1.348-.135.121-1.347 1.361.134zm27.99 212.085l-1.28.486-.472-1.267 1.267-.485.485 1.266zm-30.712-212.34l-.108 1.347-1.347-.094.094-1.348 1.361.094zm28.152 213.324l-1.348.445-.445-1.348 1.281-.431.512 1.334zm-30.874-213.5v1.348h-1.347l.067-1.348h1.28zm28.3 214.349l-1.348.418-.404-1.348 1.347-.417.405 1.347zM148.511 35.117v1.348h-1.348v-1.348h1.348zm28.407 215.266l-1.347.39-.378-1.347 1.348-.377.377 1.334zM145.735 35.077v1.348h-1.348v-1.348h1.348zm28.515 216.06l-1.348.351-.336-1.348 1.347-.337.337 1.334zM142.999 35.104v1.348h-1.347v-1.348h1.347zm28.61 216.721l-1.348.31-.31-1.348 1.348-.31.31 1.348zM140.277 35.198v1.348h-1.347l-.081-1.348h1.428zm28.664 217.246l-1.348.283-.27-1.347 1.348-.283.27 1.347zm-31.4-217.098l.108 1.348-1.347.108-.122-1.348 1.361-.108zm28.731 217.651l-1.347.243-.256-1.348 1.347-.243.256 1.348zM134.819 35.575l.135 1.348-1.347.135-.149-1.348 1.361-.135zm-2.695.297l.162 1.348-1.348.175-.175-1.348 1.361-.175zm-2.52 1.711l-1.347.203-.203-1.348 1.348-.202.202 1.347zm-2.695.418l-1.348.23-.242-1.348 1.347-.23.243 1.348zm-2.695.485l-1.348.27-.283-1.348 1.348-.27.283 1.348zm-2.695.553l-1.348.296-.31-1.347 1.348-.297.31 1.348zm-2.628.62l-1.348.323-.337-1.347 1.348-.337.337 1.36zm-2.601.674l-1.348.363-.364-1.347 1.348-.364.364 1.348zm-2.588.74l-1.347.392-.404-1.348 1.347-.39.404 1.347zm-2.573.81l-1.267.43-.445-1.347 1.348-.431.364 1.347zm-2.547.875l-1.267.458-.472-1.347 1.28-.458.459 1.347zm-2.52.93l-1.254.485-.498-1.253 1.266-.499.486 1.267zm-2.507.997l-1.24.526-.525-1.253 1.253-.526.512 1.253zm-2.466 1.065l-1.226.539-.566-1.226 1.239-.566.553 1.253zm-2.453 1.118l-1.212.58-.594-1.227 1.227-.579.58 1.226zm-2.425 1.173l-1.186.62-.634-1.2 1.213-.633.607 1.213zm-2.386 1.253l-1.186.633-.646-1.185 1.199-.647.633 1.2zm-2.358 1.348l-1.172.673-.674-1.172 1.172-.674.674 1.173zm-2.331 1.347l-1.146.701-.714-1.145 1.172-.715.688 1.16zm-2.116 1.334c-.377.225-.755.468-1.132.728l-.741-1.145 1.145-.742.728 1.16zm-2.25 1.47l-1.119.754-.768-1.119 1.132-.768.754 1.132zm-2.224 1.522l-1.092.795-.795-1.105 1.105-.795.782 1.105zm-2.264 1.644c-.364.27-.728.54-1.078.822l-.822-1.078 1.078-.835.822 1.091zm-2.143 1.644l-1.05.836-.85-1.051 1.065-.85.835 1.065zm-2.102 1.698L75 62.164l-.875-1.038 1.05-.876.863 1.051zm-2.062 1.739l-1.01.889-.903-1.01 1.024-.904.89 1.025zm-2.008 1.792l-.983.916-.93-.984.997-.93.916.998zM70 66.678l-.97.943-.944-.97.97-.943.944.97zm-1.846 1.9l-.93.957-.984-.943.957-.97.957.956zm-1.873 1.94l-.917.984-.997-.916.93-.997.984.93zM64.46 72.5c-.296.337-.606.674-.89 1.01l-1.023-.889c.296-.35.593-.687.902-1.024l1.011.903zm-1.779 2.035c-.296.337-.58.687-.876 1.037l-1.037-.876c.296-.35.58-.7.876-1.037l1.037.876zm-1.724 2.075l-.85 1.051-1.064-.835.862-1.079 1.052.863zm-1.672 2.116l-.822 1.078-1.091-.876.835-1.078 1.078.876z"></path><path fill="#fff" d="M254.122 129.988c0 .458.121.903.175 1.348l-1.347.162c0-.445-.108-.89-.175-1.348l1.347-.162zm-.202-1.347l-1.348.202c-.067-.445-.148-.89-.215-1.348l1.347-.215.216 1.361zm.539 4.042c0 .459.108.903.148 1.348l-1.347.135c0-.445-.095-.89-.148-1.348l1.347-.135zm-.97-6.738l-1.348.243-.242-1.348 1.347-.256.243 1.361zm1.253 9.434c0 .458.067.903.108 1.347l-1.348.108c0-.458 0-.903-.107-1.348l1.347-.107zm-1.765-12.129l-1.348.27c-.081-.445-.175-.89-.269-1.348l1.347-.283c.148.472.229.917.324 1.375l-.054-.014zm1.967 14.824l.081 1.347-1.348.068c0-.445 0-.89-.08-1.348l1.347-.067zm-2.533-17.519l-1.348.31-.31-1.348 1.348-.31.31 1.348zm2.695 20.295v1.347h-1.348v-1.347h1.348zm-3.315-22.909l-1.348.337c-.121-.445-.229-.876-.35-1.348l1.347-.35c.162.471.27.903.378 1.347l-.027.014zm3.423 25.671v1.348h-1.348v-1.348h1.348zm-4.043-28.299l-1.348.364-.377-1.348 1.348-.377c.08.458.202.903.323 1.361h.054zm4.043 30.995v1.347h-1.348v-1.347h1.348zm-4.865-33.69l-1.348.404-.39-1.348 1.347-.404.391 1.348zm4.811 36.385c0 .458 0 .916-.068 1.347l-1.347-.067v-1.348l1.415.068zm-5.647-39l-1.347.418a48.51 48.51 0 00-.431-1.267l1.28-.444c.215.485.35.916.498 1.361v-.068zm5.512 41.776c0 .458 0 .916-.094 1.347l-1.348-.107.081-1.348 1.361.108zm-6.414-44.309l-1.281.458c-.148-.418-.296-.849-.458-1.267l1.267-.471c.162.431.323.862.472 1.293v-.013zm6.212 47.045l-.121 1.347-1.348-.135.121-1.347 1.348.135zm-7.169-49.606l-1.267.499-.499-1.253 1.254-.512.512 1.266zm6.899 52.328c0 .444-.094.903-.148 1.347l-1.347-.161c0-.445.107-.89.148-1.348l1.347.162zm-7.923-54.861l-1.254.526-.525-1.24 1.24-.539.539 1.253zm7.6 57.569l-.202 1.348-1.348-.202c0-.445.122-.89.189-1.348l1.361.202zm-8.692-60.076l-1.24.566-.566-1.226 1.24-.58.566 1.24zm8.274 62.785l-.215 1.348-1.348-.229.229-1.348 1.334.229zm-9.433-65.264l-1.213.593a52.026 52.026 0 01-.593-1.213l1.213-.606c.202.417.404.835.593 1.24v-.014zm8.962 67.973c-.081.444-.162.889-.256 1.347l-1.348-.269c.094-.445.175-.89.256-1.348l1.348.27zm-10.175-70.426l-1.199.634c-.216-.405-.418-.809-.634-1.2l1.213-.633.62 1.2zm9.609 73.121c-.095.445-.189.889-.297 1.347l-1.347-.309c.107-.432.202-.876.296-1.348l1.348.31zm-10.902-75.466l-1.2.647-.647-1.172 1.186-.674.661 1.2zm10.295 78.161l-.323 1.348-1.348-.324c.121-.444.229-.876.324-1.347l1.347.323zm-11.63-80.586l-1.185.674-.674-1.16 1.172-.687.687 1.173zm10.956 83.241c-.121.445-.229.876-.363 1.347l-1.348-.363.364-1.348 1.347.364zm-12.357-85.586l-1.159.714c-.229-.377-.458-.768-.701-1.145l1.146-.715.714 1.146zm11.616 88.227l-.391 1.348-1.347-.405.391-1.347 1.347.404zm-13.058-90.532l-1.145.742-.728-1.132 1.132-.742.741 1.132zm12.277 93.133c-.135.431-.27.876-.418 1.348l-1.348-.445c.148-.418.283-.849.418-1.28l1.348.377zm-13.746-95.41l-1.132.755-.755-1.105 1.105-.768.782 1.118zm12.883 98.011c-.148.431-.31.862-.458 1.28l-1.28-.458c.148-.418.31-.849.458-1.28l1.28.458zM234.663 81.003l-1.105.795-.795-1.091 1.091-.809.809 1.105zm13.476 102.822l-.485 1.28-1.267-.499.485-1.266 1.267.485zm-15.12-105.018l-1.092.822-.808-1.065 1.064-.836c.378.364.593.715.863 1.079h-.027zm14.123 107.565c-.176.417-.337.849-.526 1.266l-1.253-.525.525-1.253 1.254.512zM231.348 76.664l-1.065.835-.849-1.037 1.051-.863c.324.35.607.7.89 1.065h-.027zm14.729 112.228c-.175.418-.364.835-.552 1.253l-1.24-.553c.188-.417.377-.822.552-1.239l1.24.539zM229.623 74.548l-1.038.876-.876-1.038 1.038-.876.876 1.038zm15.336 116.837c-.189.418-.391.835-.58 1.24l-1.226-.593.579-1.213 1.227.566zM227.844 72.473l-1.011.903-.903-1.011 1.011-.903.903 1.01zm15.929 121.378c-.202.418-.405.822-.62 1.226l-1.2-.62.607-1.199 1.213.593zm-17.748-123.4l-.997.917-.93-.984.983-.93.944.997zm16.508 125.839l-.647 1.213-1.199-.66c.215-.391.431-.782.633-1.186l1.213.633zM224.138 68.47l-.97.944-.943-.957.956-.957.957.97zm17.088 130.219l-.688 1.199-1.172-.687.674-1.173 1.186.661zm-18.988-132.16l-.943.985-.971-.944.944-.983.97.943zm17.64 134.532c-.229.39-.458.781-.701 1.172l-1.159-.701.701-1.159 1.159.688zM220.271 64.657l-.93.983-.984-.903.903-1.01 1.011.93zm18.192 138.802c-.242.378-.485.768-.741 1.146l-1.132-.728.714-1.145 1.159.727zM218.249 62.757l-.903 1.024-1.01-.89.889-1.024 1.024.89zm18.732 142.845l-.768 1.132-1.119-.755.755-1.132 1.132.755zm-20.794-144.57l-.876 1.037-1.037-.862.862-1.051 1.051.876zm19.257 146.888c-.269.364-.525.741-.795 1.118l-1.105-.795c.27-.364.526-.741.782-1.105l1.118.782zM214.072 59.293l-.849 1.065-1.052-.836.836-1.078 1.065.85zm19.836 150.891l-.822 1.091-1.078-.822.809-1.078 1.091.809zM211.929 57.609l-.822 1.078-1.078-.809.808-1.091 1.092.822zM232.21 212.34l-.849 1.078-1.064-.835.835-1.065 1.078.822zM209.732 56.019l-.795 1.105-1.105-.782.782-1.118 1.118.795zm20.78 158.477c-.296.351-.579.714-.876 1.051l-1.037-.862.849-1.038 1.064.849zM207.495 54.401l-.768 1.119-1.118-.755.754-1.132 1.132.768zm21.265 162.197c-.296.337-.593.688-.902 1.025l-1.011-.89.876-1.024 1.037.889zm-23.529-163.72l-.741 1.146-1.145-.728.727-1.145 1.159.728zm21.724 165.755l-.917 1.011-.997-.916.903-.998 1.011.903zm-24.042-167.21l-.714 1.16-1.145-.701.701-1.173 1.158.714zm22.195 169.232c-.31.337-.633.66-.943.983l-.984-.943.944-.97.983.93zM200.569 50.008l-.688 1.186-1.159-.674.661-1.186 1.186.674zm22.639 172.601l-.97.97-.957-.97c.324-.31.647-.634.957-.957l.97.957zM198.197 48.674l-.66 1.186-1.186-.647.647-1.2 1.199.661zm23.057 175.794l-.983.944-.93-.998.983-.916.93.97zM195.785 47.381l-.634 1.199-1.199-.607.606-1.212 1.227.62zm23.475 179.014l-1.011.903-.903-1.01c.337-.297.674-.593.997-.903l.917 1.01zm-25.928-180.24l-.593 1.212-1.213-.58.58-1.226 1.226.593zM217.225 228.2l-1.038.89-.876-1.038 1.078-.889.836 1.037zM190.852 44.928l-.552 1.24-1.24-.566.553-1.24 1.239.566zm24.257 184.985l-1.064.862-.849-1.065 1.051-.849.862 1.052zM188.359 43.89l-.539 1.24-1.239-.512.512-1.253 1.266.525zm24.661 187.801l-1.078.836-.822-1.092 1.065-.822.835 1.078zM185.826 42.826l-.499 1.266-1.266-.485.498-1.347 1.267.566zm25.025 190.496c-.364.283-.728.539-1.092.809l-.795-1.092 1.078-.795.809 1.078zm-27.586-191.48l-.458 1.348-1.347-.459.458-1.347 1.347.458zm25.389 193.084l-1.118.781-.768-1.118 1.091-.768.795 1.105zM180.692 40.939l-.445 1.348-1.348-.432.418-1.347 1.375.431zm25.712 195.536l-1.132.742-.741-1.132 1.118-.742.755 1.132zm-28.3-196.398l-.418 1.347-1.347-.39.391-1.348 1.374.39zm26.022 197.867l-1.159.728-.714-1.159c.391-.229.768-.472 1.146-.714l.727 1.145zm-28.663-198.65l-.377 1.349-1.348-.364.364-1.348 1.361.364zm26.345 200.092l-1.172.701-.687-1.172 1.159-.688.7 1.159zm-29-200.792l-.337 1.348-1.347-.337.323-1.348 1.361.337zm26.656 202.14l-1.2.66-.647-1.186 1.173-.66.674 1.186zM170.153 37.92l-.31 1.348-1.347-.297.296-1.347 1.361.296zm26.952 204.161l-1.213.634-.619-1.213 1.185-.62.647 1.199zM167.458 37.327l-.269 1.348-1.348-.27.256-1.347 1.361.27zm27.181 206.008l-1.226.606-.593-1.226 1.199-.593.62 1.213zM164.776 36.802l-.242 1.347-1.348-.242.229-1.348 1.361.243zm27.357 207.732l-1.24.58-.553-1.24 1.213-.566.58 1.226zM162.068 36.357l-.202 1.348-1.348-.189.189-1.347 1.361.188zm27.626 209.309l-1.254.539-.539-1.24 1.24-.539.553 1.24zm-30.335-209.7l-.162 1.348-1.347-.162.161-1.347 1.348.161zm27.815 210.778l-1.267.512-.512-1.226 1.253-.512.526 1.226zM156.65 35.656l-.134 1.348-1.348-.135.121-1.347 1.361.134zm27.99 212.085l-1.28.486-.472-1.267 1.267-.485.485 1.266zm-30.712-212.34l-.108 1.347-1.347-.094.094-1.348 1.361.094zm28.152 213.324l-1.348.445-.445-1.348 1.281-.431.512 1.334zm-30.874-213.5v1.348h-1.347l.067-1.348h1.28zm28.3 214.349l-1.348.418-.404-1.348 1.347-.417.405 1.347zM148.511 35.117v1.348h-1.348v-1.348h1.348zm28.407 215.266l-1.347.39-.378-1.347 1.348-.377.377 1.334zM145.735 35.077v1.348h-1.348v-1.348h1.348zm28.515 216.06l-1.348.351-.336-1.348 1.347-.337.337 1.334zM142.999 35.104v1.348h-1.347v-1.348h1.347zm28.61 216.721l-1.348.31-.31-1.348 1.348-.31.31 1.348zM140.277 35.198v1.348h-1.347l-.081-1.348h1.428zm28.664 217.246l-1.348.283-.27-1.347 1.348-.283.27 1.347zm-31.4-217.098l.108 1.348-1.347.108-.122-1.348 1.361-.108zm28.731 217.651l-1.347.243-.256-1.348 1.347-.243.256 1.348zM134.819 35.575l.135 1.348-1.347.135-.149-1.348 1.361-.135zm-2.695.297l.162 1.348-1.348.175-.175-1.348 1.361-.175zm-2.52 1.711l-1.347.203-.203-1.348 1.348-.202.202 1.347zm-2.695.418l-1.348.23-.242-1.348 1.347-.23.243 1.348zm-2.695.485l-1.348.27-.283-1.348 1.348-.27.283 1.348zm-2.695.553l-1.348.296-.31-1.347 1.348-.297.31 1.348zm-2.628.62l-1.348.323-.337-1.347 1.348-.337.337 1.36zm-2.601.674l-1.348.363-.364-1.347 1.348-.364.364 1.348zm-2.588.74l-1.347.392-.404-1.348 1.347-.39.404 1.347zm-2.573.81l-1.267.43-.445-1.347 1.348-.431.364 1.347zm-2.547.875l-1.267.458-.472-1.347 1.28-.458.459 1.347zm-2.52.93l-1.254.485-.498-1.253 1.266-.499.486 1.267zm-2.507.997l-1.24.526-.525-1.253 1.253-.526.512 1.253zm-2.466 1.065l-1.226.539-.566-1.226 1.239-.566.553 1.253zm-2.453 1.118l-1.212.58-.594-1.227 1.227-.579.58 1.226zm-2.425 1.173l-1.186.62-.634-1.2 1.213-.633.607 1.213zm-2.386 1.253l-1.186.633-.646-1.185 1.199-.647.633 1.2zm-2.358 1.348l-1.172.673-.674-1.172 1.172-.674.674 1.173zm-2.331 1.347l-1.146.701-.714-1.145 1.172-.715.688 1.16zm-2.116 1.334c-.377.225-.755.468-1.132.728l-.741-1.145 1.145-.742.728 1.16zm-2.25 1.47l-1.119.754-.768-1.119 1.132-.768.754 1.132zm-2.224 1.522l-1.092.795-.795-1.105 1.105-.795.782 1.105zm-2.264 1.644c-.364.27-.728.54-1.078.822l-.822-1.078 1.078-.835.822 1.091zm-2.143 1.644l-1.05.836-.85-1.051 1.065-.85.835 1.065zm-2.102 1.698L75 62.164l-.875-1.038 1.05-.876.863 1.051zm-2.062 1.739l-1.01.889-.903-1.01 1.024-.904.89 1.025zm-2.008 1.792l-.983.916-.93-.984.997-.93.916.998zM70 66.678l-.97.943-.944-.97.97-.943.944.97zm-1.846 1.9l-.93.957-.984-.943.957-.97.957.956zm-1.873 1.94l-.917.984-.997-.916.93-.997.984.93zM64.46 72.5c-.296.337-.606.674-.89 1.01l-1.023-.889c.296-.35.593-.687.902-1.024l1.011.903zm-1.779 2.035c-.296.337-.58.687-.876 1.037l-1.037-.876c.296-.35.58-.7.876-1.037l1.037.876zm-1.724 2.075l-.85 1.051-1.064-.835.862-1.079 1.052.863zm-1.672 2.116l-.822 1.078-1.091-.876.835-1.078 1.078.876zM258.057 71.597a134.598 134.598 0 0114.285 29.121L259.23 105.3a120.871 120.871 0 00-12.816-26.13l11.643-7.573zM237.183 46.76l-9.433 10.134-1.065-.97 9.339-10.283 1.159 1.119zm35.684 55.507a135.14 135.14 0 016.536 31.763l-13.826 1.146a121.793 121.793 0 00-5.876-28.502l13.166-4.407zM209.53 26.803l-6.643 12.128a120.75 120.75 0 00-27.033-10.78l3.53-13.477a134.478 134.478 0 0130.173 12.183l-.027-.054zm-31.722-12.385l-3.356 13.476a119.576 119.576 0 00-28.865-3.57V10.442a134.068 134.068 0 0132.248 4.03l-.027-.055zm100.355 151.969c-.08.525-.175 1.065-.269 1.59l-13.678-2.345.242-1.442 13.705 2.197zm-9.608 32.666a136.459 136.459 0 01-10.983 20.146c-1.738 2.696-3.598 5.256-5.525 7.762l-11.023-8.422a134.016 134.016 0 004.972-6.994 122.337 122.337 0 009.878-18.071l12.681 5.579zM113.446 14.324l3.275 13.476-1.347.35-3.437-13.476 1.509-.35zm137.631 213.985a134.403 134.403 0 01-22.909 22.909l-8.544-10.942a120.827 120.827 0 0020.591-20.551l10.862 8.584zM81.63 26.466l6.535 12.236A120.27 120.27 0 0064.38 55.439L55.082 45.13a132.844 132.844 0 0115.107-11.778 129.545 129.545 0 0111.44-6.886zM63.316 56.423a120.976 120.976 0 00-18.867 22.195c-1.927 2.938-3.76 5.983-5.39 9.083l-12.196-6.617c1.86-3.45 3.908-6.846 6.065-10.107 5.964-9.06 13-17.368 20.955-24.742l9.433 10.188zm131.323 198.865l5.674 12.667-1.496.661-5.512-12.735 1.334-.593zm-29.229 8.854l2.318 13.678a134.547 134.547 0 01-32.343 1.55l1.011-13.84c9.692.699 19.433.233 29.014-1.388zM38.358 88.954c-4.53 8.61-8 17.737-10.336 27.181l-13.476-3.329a134.089 134.089 0 0111.536-30.32l12.276 6.468zm96.529 176.427l-1.173 13.84a134.356 134.356 0 01-31.763-6.657l4.474-13.058a119.924 119.924 0 0028.462 5.902v-.027zM24.518 145.001v1.468l-13.88.162v-1.617l13.88-.013zm55.764 101.824l-7.48 11.684a21.764 21.764 0 01-1.347-.89l7.628-11.589 1.2.795zm-51.91-71.49a121.74 121.74 0 0010.606 27.1l-12.223 6.576a135.415 135.415 0 01-11.818-30.213l13.436-3.463zm28.381 51.923l-10.16 9.433a134.27 134.27 0 01-13.1-16.521c-2.115-3.154-4.042-6.428-5.956-9.744l12.128-6.738a104.143 104.143 0 005.39 8.733 119.322 119.322 0 0011.698 14.837z"></path><path fill="#fff" d="M245.066 77.257A121.283 121.283 0 1176.846 44.16a121.392 121.392 0 01168.22 33.097zM44.786 211.679a119.937 119.937 0 1032.8-166.441 120.125 120.125 0 00-32.8 166.441z"></path><path fill="#fff" d="M251.926 74.251a.551.551 0 01-.149.755.551.551 0 01-.84-.563.559.559 0 01.234-.353.552.552 0 01.755.161zm-3.235-3.732a.513.513 0 01-.403.102.528.528 0 01-.351-.224.527.527 0 01.121-.754.539.539 0 01.755.12.543.543 0 01-.081.756h-.041zm6.159 8.341a.566.566 0 01-.189.755.566.566 0 01-.754-.189.526.526 0 01-.06-.41.524.524 0 01.248-.331.526.526 0 01.741.162l.014.013zm-9.433-12.68a.554.554 0 01-.867-.285.533.533 0 01.193-.578.552.552 0 01.768.094.523.523 0 01-.081.768h-.013zm12.128 17.41a.553.553 0 01-.216.741.538.538 0 01-.727-.215.542.542 0 01.05-.606.54.54 0 01.866.04l.027.04zm-15.551-21.629a.536.536 0 01-.768 0 .545.545 0 01-.162-.39.548.548 0 01.162-.391.551.551 0 01.892.603.541.541 0 01-.124.178zm18.085 26.48a.553.553 0 01-.671.759.54.54 0 01-.37-.477.536.536 0 01.299-.524.553.553 0 01.701.189.084.084 0 01.041.054zm-21.71-30.523a.553.553 0 01-.768 0 .551.551 0 010-.768.551.551 0 01.887.176.55.55 0 010 .417.543.543 0 01-.119.175zm24.014 35.456a.549.549 0 01.008.416.535.535 0 01-.291.298.54.54 0 01-.714-.27.553.553 0 01.269-.727.552.552 0 01.674.202s.054.054.054.08zm-27.801-39.35a.567.567 0 01-.768 0 .55.55 0 01.176-.887.537.537 0 01.592.119l.081.094a.542.542 0 01-.081.674zm29.903 44.39a.526.526 0 01-.296.7.552.552 0 01-.752-.518.545.545 0 01.168-.38.549.549 0 01.544-.123.571.571 0 01.296.213l.04.108zM230.634 50.29a.548.548 0 01-.385.16.54.54 0 01-.384-.16.543.543 0 01-.119-.592.543.543 0 01.51-.333c.146 0 .286.056.391.157l.094.108a.567.567 0 01-.107.66zm35.724 53.244a.546.546 0 01-.019.416.547.547 0 01-.304.284.548.548 0 01-.411-.03.546.546 0 01-.31-.519.53.53 0 01.183-.381.54.54 0 01.807.108.459.459 0 01.054.122zm-39.835-56.801a.552.552 0 01-.768.08.561.561 0 01-.162-.39.568.568 0 01.162-.391.54.54 0 01.755 0 .467.467 0 01.108.121.53.53 0 01-.095.58zm41.493 61.989a.528.528 0 01-.187.569.522.522 0 01-.19.091.54.54 0 01-.674-.364.552.552 0 01.364-.673.557.557 0 01.62.215.288.288 0 01.067.175v-.013zm-45.751-65.372a.521.521 0 01-.566.203.532.532 0 01-.189-.095.524.524 0 01-.108-.755.535.535 0 01.355-.216.524.524 0 01.4.108.507.507 0 01.214.44.549.549 0 01-.106.315zm47.166 70.668a.56.56 0 01.013.212.556.556 0 01-.212.358.554.554 0 01-.608.028.546.546 0 01-.181-.745.54.54 0 01.328-.244.52.52 0 01.579.216.499.499 0 01.108.121l-.027.054zm-51.559-73.848a.567.567 0 01-.768.134.551.551 0 01-.135-.754.531.531 0 01.349-.225.54.54 0 01.406.09c.061.03.112.077.148.135a.586.586 0 010 .62zm52.799 79.185a.554.554 0 01-.418.646.548.548 0 01-.647-.417.53.53 0 01.228-.571.532.532 0 01.203-.076.508.508 0 01.553.229.793.793 0 01.081.189zm-57.327-82.204a.536.536 0 01-.557.242.552.552 0 01-.36-.835.554.554 0 01.755-.162c.067.04.122.095.162.162a.522.522 0 010 .593zm58.297 87.594a.565.565 0 01-.458.633.527.527 0 01-.407-.098.548.548 0 01-.213-.36.53.53 0 01.094-.402.539.539 0 01.351-.218.564.564 0 01.539.243.475.475 0 01.094.202zm-62.933-90.37a.566.566 0 01-.755.202.57.57 0 01-.246-.33.572.572 0 01.044-.411.553.553 0 01.741-.202.55.55 0 01.189.162.583.583 0 01.089.286.585.585 0 01-.062.293zm63.688 95.76a.556.556 0 01-.119.398.531.531 0 01-.367.195.54.54 0 01-.592-.471.532.532 0 01.104-.406.52.52 0 01.367-.201.54.54 0 01.512.243c.05.072.082.155.095.242zm-68.458-98.374a.555.555 0 01-.742.242.564.564 0 01-.229-.741.567.567 0 01.728-.243c.085.041.156.107.202.19a.54.54 0 01.041.552zm68.956 103.765a.52.52 0 01-.124.397.531.531 0 01-.374.182.523.523 0 01-.58-.498.554.554 0 01.129-.394.538.538 0 01.37-.186.526.526 0 01.498.243.443.443 0 01.081.323v-.067zM199.073 29.39a.553.553 0 01-1.012-.053.553.553 0 01.015-.419.551.551 0 01.727-.256c.089.04.165.106.216.189a.537.537 0 01.054.54zm74.118 111.662a.535.535 0 01-.318.51.533.533 0 01-.208.042.509.509 0 01-.552-.525.54.54 0 01.785-.49.507.507 0 01.279.463h.014zM194.1 27.193a.55.55 0 01-.714.31.58.58 0 01-.297-.727.544.544 0 01.507-.33.542.542 0 01.208.046.442.442 0 01.242.203.544.544 0 01.054.498zm79.131 119.33a.564.564 0 01-.566.539.563.563 0 01-.484-.77.52.52 0 01.498-.321.569.569 0 01.458.229.645.645 0 01.094.323zM189.033 25.239a.521.521 0 01-.687.323.554.554 0 01-.337-.687.53.53 0 01.282-.309.543.543 0 01.419-.014.51.51 0 01.354.431.502.502 0 01-.031.243v.013zm83.956 126.742a.553.553 0 01-.788.46.543.543 0 01-.304-.528.552.552 0 01.566-.512.58.58 0 01.244.072.559.559 0 01.282.508zm-89.09-128.507a.542.542 0 01-.674.35.523.523 0 01-.389-.462.542.542 0 01.025-.211.538.538 0 01.687-.364.559.559 0 01.374.443.531.531 0 01-.023.244zm88.712 133.938a.538.538 0 01-.795.437.531.531 0 01-.263-.321.537.537 0 01.041-.413.546.546 0 01.321-.263.539.539 0 01.211-.02.539.539 0 01.404.243.43.43 0 01.081.337zM178.657 21.938a.553.553 0 01-1.065-.297.553.553 0 01.853-.295c.053.04.098.09.131.147a.573.573 0 01.081.445zm93.28 140.905a.54.54 0 01-.619.458.53.53 0 01-.45-.396.536.536 0 01-.009-.211.539.539 0 01.062-.203.527.527 0 01.332-.251.527.527 0 01.213-.004.509.509 0 01.377.229.61.61 0 01.135.378h-.041zM173.415 20.617a.534.534 0 01-.436.415.524.524 0 01-.211-.01.505.505 0 01-.341-.23.511.511 0 01-.064-.404.532.532 0 01.423-.422.528.528 0 01.211.004.5.5 0 01.337.23.523.523 0 01.081.417zm97.673 147.616a.548.548 0 01-.83.353.549.549 0 01-.233-.344.542.542 0 01.226-.559.527.527 0 01.406-.083.488.488 0 01.351.229.52.52 0 01.08.404zM168.092 19.525a.557.557 0 01-.634.445.534.534 0 01-.348-.227.534.534 0 01-.083-.406.55.55 0 01.633-.445.58.58 0 01.351.23.526.526 0 01.081.404zM269.983 173.57a.552.552 0 01-.646.418.533.533 0 01-.416-.446.552.552 0 01.011-.214.547.547 0 01.437-.411.53.53 0 01.21.007.591.591 0 01.337.229.56.56 0 01.067.417zM162.728 18.663a.538.538 0 01-.606.458.514.514 0 01-.459-.606.528.528 0 01.593-.472.633.633 0 01.391.243.58.58 0 01.081.377zm105.921 160.202a.526.526 0 01-.66.378.535.535 0 01-.396-.461.535.535 0 01.679-.577.458.458 0 01.177.076.456.456 0 01.133.14.474.474 0 01.067.444zM157.338 18.03a.58.58 0 01-.607.498.565.565 0 01-.485-.606.567.567 0 01.593-.499.552.552 0 01.404.256.588.588 0 01.095.35zm109.775 166.01a.55.55 0 01-.687.351.535.535 0 01-.319-.262.516.516 0 01-.032-.412.53.53 0 01.475-.382.533.533 0 01.213.031.531.531 0 01.283.203.582.582 0 01.067.471zM151.893 17.612a.528.528 0 01-.343.493.523.523 0 01-.209.032.542.542 0 01-.35-.944.553.553 0 01.39-.147.592.592 0 01.432.242c.061.097.089.21.08.324zm113.441 171.643a.552.552 0 01-.884.214.535.535 0 01-.14-.591.527.527 0 01.282-.309.542.542 0 01.419-.014.483.483 0 01.256.202.515.515 0 01.067.498zM146.463 17.437a.54.54 0 01-.539.539.525.525 0 01-.54-.54.532.532 0 01.331-.501.527.527 0 01.209-.037.598.598 0 01.458.229c.059.092.087.2.081.31zM263.34 194.336a.526.526 0 01-.701.283.552.552 0 01-.296-.714.536.536 0 01.943-.081.562.562 0 01.054.512zM141.032 17.504a.554.554 0 01-.526.553.553.553 0 01-.534-.735.532.532 0 01.286-.301.526.526 0 01.208-.043.523.523 0 01.471.23.65.65 0 01.095.296zm120.111 181.818a.553.553 0 01-.89.132.525.525 0 01-.113-.183.546.546 0 01.019-.421.553.553 0 01.728-.269.52.52 0 01.229.188.575.575 0 01.027.553zM135.601 17.774a.558.558 0 01-.133.402.552.552 0 01-.773.061.554.554 0 01-.186-.37.551.551 0 01.129-.393.542.542 0 01.37-.186.528.528 0 01.485.256.532.532 0 01.108.23zm123.13 186.48a.518.518 0 01-.315.271.518.518 0 01-.413-.042.536.536 0 01-.242-.741.58.58 0 01.741-.229c.08.048.148.112.202.189a.54.54 0 01.027.552zM130.143 18.286a.513.513 0 01-.104.405.526.526 0 01-.368.201.523.523 0 01-.592-.472.53.53 0 01.104-.405.514.514 0 01.367-.201.525.525 0 01.512.23c.053.07.081.154.081.242zM256.09 208.97a.53.53 0 01-.332.248.528.528 0 01-.41-.06.51.51 0 01-.164-.136.514.514 0 01-.111-.404.558.558 0 01.403-.452.558.558 0 01.412.049.727.727 0 01.175.175.571.571 0 01.054.593l-.027-.013zM124.753 19.054a.556.556 0 01-.445.633.552.552 0 01-.62-.458.54.54 0 01.089-.406.534.534 0 01.356-.214.525.525 0 01.62.445zm128.534 194.633a.523.523 0 01-.545.253.556.556 0 01-.436-.421.527.527 0 01.078-.411.565.565 0 01.754-.189.92.92 0 01.162.162.511.511 0 01-.013.606zM119.362 20.037a.527.527 0 01-.073.412.54.54 0 01-.344.235.554.554 0 01-.412-.995.539.539 0 01.762.16c.044.053.067.12.067.189zm130.866 198.097a.553.553 0 01-.755.135.542.542 0 01-.221-.561.55.55 0 01.086-.193.538.538 0 01.755-.149.723.723 0 01.135.162.556.556 0 01.054.647l-.054-.041zM114.12 21.25a.552.552 0 01-.391.66.563.563 0 01-.673-.39.552.552 0 01.39-.66.527.527 0 01.593.215.706.706 0 01.081.175zm132.941 201.332a.553.553 0 01-.355.21.53.53 0 01-.604-.467.541.541 0 01.864-.498l.122.121a.553.553 0 01-.027.634zM108.851 22.679a.524.524 0 01-.364.674.538.538 0 01-.694-.561.534.534 0 01.384-.464.513.513 0 01.607.203.293.293 0 01.067.148zm134.76 204.174a.527.527 0 01-.384.161.53.53 0 01-.384-.161.533.533 0 01-.119-.592.527.527 0 01.119-.176.582.582 0 01.768-.067.384.384 0 01.094.121.522.522 0 01-.04.714h-.054zM103.676 24.35a.503.503 0 01.033.21.524.524 0 01-.37.477.537.537 0 01-.657-.748.554.554 0 01.307-.276.567.567 0 01.633.202.39.39 0 01.054.135zM240.08 230.977a.55.55 0 01-.768 0 .568.568 0 010-.782.555.555 0 01.768 0l.081.095a.525.525 0 01-.081.687zM98.582 26.223a.54.54 0 01-.31.7.525.525 0 01-.7-.296.566.566 0 01.296-.714.525.525 0 01.647.189l.067.121zm137.752 208.716a.55.55 0 01-.768 0 .552.552 0 01.384-.935.519.519 0 01.384.167v.081a.555.555 0 010 .687zM93.569 28.325a.539.539 0 01-.27.715.553.553 0 01-.727-.27.566.566 0 01.27-.728.565.565 0 01.687.202l.04.081zM232.372 238.74a.527.527 0 01-.384.161.53.53 0 01-.384-.161.527.527 0 01-.161-.384.533.533 0 01.161-.384.55.55 0 01.768 0 .533.533 0 01.181.376.519.519 0 01-.031.21.523.523 0 01-.11.182h-.04zM88.651 30.629a.566.566 0 01-.243.742.552.552 0 01-.653-.855.54.54 0 01.855.06l.04.054zm139.692 211.735a.555.555 0 01-.769-.067.559.559 0 01-.119-.176.55.55 0 010-.416.559.559 0 01.119-.176.555.555 0 01.769.067.555.555 0 010 .768zM83.84 33.109a.553.553 0 01-.216.741.553.553 0 01-.807-.418.539.539 0 01.282-.538.539.539 0 01.714.188l.027.027zM224.11 245.814a.551.551 0 01-.768-.094.568.568 0 01.094-.768.555.555 0 01.755.094.551.551 0 01-.081.768zM79.123 35.872a.527.527 0 01-.175.741.527.527 0 01-.741-.175.54.54 0 01.903-.593l.013.027zm140.608 213.203a.486.486 0 01-.188.092.51.51 0 01-.553-.213.539.539 0 01.521-.852.54.54 0 01.355.232.54.54 0 01-.135.741zM74.393 39.537a.526.526 0 01-.755-.148.539.539 0 01.149-.741.553.553 0 01.754.148.566.566 0 01-.148.741zM215.392 251.42a.546.546 0 01.078.412.54.54 0 01-.24.343.525.525 0 01-.741-.162.523.523 0 01-.089-.403.508.508 0 01.238-.338.53.53 0 01.409-.09.521.521 0 01.345.238zM72.439 40.871a.54.54 0 01-.755-.134.553.553 0 01.122-.755.54.54 0 01.768.135.54.54 0 01-.135.754zm138.358 213.433a.567.567 0 01-.189.755.558.558 0 01-.199.071.54.54 0 01-.542-.26.545.545 0 01-.066-.418.528.528 0 01.255-.337.568.568 0 01.727.162l.014.027zM68.073 44.079a.54.54 0 01-.768-.108.553.553 0 01.107-.768.553.553 0 01.755.108.58.58 0 01-.094.754v.014zm138.007 212.92a.55.55 0 01-.215.741.552.552 0 01-.742-.229.537.537 0 01.216-.727.536.536 0 01.701.188s.04.014.04.041v-.014zM63.841 47.434a.539.539 0 01-.754-.768.537.537 0 11.754.768zm137.415 212.072a.547.547 0 01.032.426.533.533 0 01-.288.315.552.552 0 01-.728-.27.537.537 0 01.256-.714.54.54 0 01.687.175l.041.068zM59.745 50.978a.552.552 0 01-.768 0 .551.551 0 010-.781.552.552 0 01.768 0 .525.525 0 010 .781zM196.324 261.81a.552.552 0 01.008.416.547.547 0 01-.291.298.541.541 0 01-.749-.488.542.542 0 01.688-.535c.123.035.23.11.303.215.022.027.036.06.041.094zM55.824 54.67a.54.54 0 01-.924-.383c0-.144.055-.281.155-.384a.551.551 0 01.782 0l.067.08a.553.553 0 01-.08.688zm135.473 209.215a.537.537 0 01-.127.591.537.537 0 01-.87-.2.522.522 0 01-.002-.414.545.545 0 01.298-.287.528.528 0 01.647.203.159.159 0 01.054.107zM52.05 58.579a.537.537 0 01-.768 0 .566.566 0 010-.782.552.552 0 01.768 0l.08.095a.552.552 0 01-.08.687zm134.153 207.166a.564.564 0 01-.35.687.528.528 0 01-.585-.163.553.553 0 01.248-.874.521.521 0 01.606.215.28.28 0 01.081.135zM48.452 62.622a.552.552 0 01-.768 0 .539.539 0 010-.769.54.54 0 01.768 0l.094.095a.553.553 0 01-.094.674zm132.563 204.754a.553.553 0 01-.364.687.566.566 0 01-.674-.377.548.548 0 01.047-.417.528.528 0 01.331-.257.535.535 0 01.66.364zM45.029 66.799a.539.539 0 01-.966-.264.553.553 0 01.103-.396.552.552 0 01.769-.094c.05.03.091.071.12.12a.526.526 0 01-.026.634zm130.717 201.992a.556.556 0 01-.404.66.551.551 0 01-.661-.391.583.583 0 01.405-.674.579.579 0 01.592.229.659.659 0 01.081.189l-.013-.013zM41.795 71.151a.526.526 0 01-.755.122.526.526 0 01-.121-.754.523.523 0 01.74-.122c.056.034.102.08.136.135a.526.526 0 010 .62zm128.641 198.853a.512.512 0 01-.073.405.529.529 0 01-.344.228.554.554 0 01-.647-.431.537.537 0 01.444-.634.53.53 0 01.539.229.338.338 0 01.081.203zM38.749 75.612a.525.525 0 01-.741.162.552.552 0 01-.015-.91.54.54 0 01.756.142.552.552 0 010 .606zm126.337 195.402a.55.55 0 01-.458.62.549.549 0 01-.62-.458.557.557 0 01.458-.62.53.53 0 01.526.243.618.618 0 01.094.161v.054zM35.906 80.194a.566.566 0 01-.742.203.566.566 0 01-.202-.755.552.552 0 01.741-.189.553.553 0 01.19.162.525.525 0 01.013.58zm123.776 191.44a.505.505 0 01-.104.401.517.517 0 01-.367.192.522.522 0 01-.401-.105.506.506 0 01-.192-.367.526.526 0 01.472-.593.543.543 0 01.512.23.523.523 0 01.08.242zM33.251 84.897a.552.552 0 01-.741.216.553.553 0 01-.216-.741.553.553 0 01.741-.216c.08.031.146.088.189.162a.54.54 0 01.027.58zm121.028 187.317a.57.57 0 01-.526.579.551.551 0 01-.54-.727.55.55 0 01.486-.378.548.548 0 01.472.256.54.54 0 01.108.256v.014zM30.799 89.708a.526.526 0 01-.715.243.54.54 0 01-.256-.728.539.539 0 01.714-.256c.091.05.17.118.23.202a.54.54 0 01.026.54zm118.035 182.735a.552.552 0 01-.525.566.547.547 0 01-.51-.33.535.535 0 01-.043-.209.55.55 0 01.526-.566.545.545 0 01.458.256c.061.086.094.19.094.296v-.013zM28.561 94.56a.526.526 0 01-.714.27.538.538 0 01.017-1 .553.553 0 01.414.002c.091.049.17.118.23.202a.499.499 0 01.053.593v-.067zM143.39 272.443a.55.55 0 01-.761.505.54.54 0 01-.317-.519.537.537 0 01.803-.455.583.583 0 01.194.172.443.443 0 01.081.337v-.04zM26.526 99.64a.552.552 0 01-.7.324.54.54 0 01-.31-.701.54.54 0 01.7-.324c.102.044.19.114.256.203a.54.54 0 01.054.498zM137.96 272.294a.536.536 0 01-.579.513.556.556 0 01-.512-.58.53.53 0 01.186-.37.539.539 0 01.393-.129.545.545 0 01.418.243.539.539 0 01.094.323zM24.761 104.748a.568.568 0 01-.687.336.54.54 0 01-.37-.487.54.54 0 01.72-.537.426.426 0 01.283.202.514.514 0 010 .486h.054zM132.569 271.85a.552.552 0 01-.607.498.555.555 0 01-.485-.606.552.552 0 01.607-.485.567.567 0 01.39.242.647.647 0 01.068.364l.027-.013zM23.103 109.922a.54.54 0 01-.851.269.533.533 0 01-.205-.366.539.539 0 01.019-.213.541.541 0 01.66-.377.54.54 0 01.31.229.487.487 0 01.067.458zM127.138 271.23a.53.53 0 01-.214.359.528.528 0 01-.406.099.528.528 0 01-.437-.398.521.521 0 01-.008-.208.527.527 0 01.607-.472.588.588 0 01.214.082c.064.042.12.096.163.16a.51.51 0 01.081.364v.014zM21.728 115.138a.569.569 0 01-.646.404.55.55 0 01-.404-.661.534.534 0 01.244-.341.54.54 0 01.416-.063c.128.043.24.123.323.229.078.13.102.284.068.432zm100.06 155.149a.582.582 0 01-.647.431.554.554 0 01-.352-.842.516.516 0 01.344-.227.512.512 0 01.21.004c.14.026.265.102.351.216a.646.646 0 01.094.418zM20.57 120.42a.553.553 0 01-.647.431.564.564 0 01-.418-.646.555.555 0 01.634-.432.593.593 0 01.35.243.52.52 0 01.08.404zm95.882 148.802a.538.538 0 01-.237.341.521.521 0 01-.41.063.512.512 0 01-.341-.236.527.527 0 01-.064-.411.555.555 0 01.647-.417.537.537 0 01.324.229.502.502 0 01.081.431zM19.64 125.743a.52.52 0 01-.405.454.518.518 0 01-.215.004.538.538 0 01-.458-.62.524.524 0 01.62-.444.512.512 0 01.364.229c.076.11.11.244.094.377zm91.556 142.158a.554.554 0 01-1.003.113.557.557 0 01-.062-.409.547.547 0 01.265-.332.557.557 0 01.423-.046.488.488 0 01.296.216.553.553 0 01.081.458zM18.939 131.12a.565.565 0 01-.606.485.554.554 0 01-.485-.606.55.55 0 01.606-.485.58.58 0 01.391.242c.065.11.098.236.094.364zm87.042 135.218a.552.552 0 01-.27.32.528.528 0 01-.418.03.532.532 0 01-.365-.477.517.517 0 01.029-.21.542.542 0 01.475-.377.544.544 0 01.212.027.634.634 0 01.283.215.575.575 0 01.054.472zM18.454 136.51a.544.544 0 01-.37.474.532.532 0 01-.21.025.525.525 0 01-.498-.579.512.512 0 01.566-.499.567.567 0 01.418.243.47.47 0 01.094.336zm82.406 128.022a.557.557 0 01-.701.324.545.545 0 01-.359-.49.54.54 0 01.036-.211.525.525 0 01.7-.31.48.48 0 01.256.202.56.56 0 01.068.512v-.027zM18.198 141.901a.522.522 0 01-.343.493.515.515 0 01-.21.032.528.528 0 01-.493-.343.523.523 0 01-.032-.209.533.533 0 01.167-.377.548.548 0 01.386-.149.564.564 0 01.43.243c.067.094.1.208.095.323v-.013zm77.608 120.664a.565.565 0 01-.714.283.553.553 0 01-.296-.714.549.549 0 01.714-.283c.1.04.185.11.242.202a.56.56 0 01.054.525v-.013zM18.185 147.318a.553.553 0 01-.747.517.546.546 0 01-.345-.49.535.535 0 01.32-.506.539.539 0 01.472.015.544.544 0 01.3.478v-.014zm72.662 113.037a.567.567 0 01-.727.269.548.548 0 01-.257-.741.535.535 0 01.306-.272.521.521 0 01.409.029.458.458 0 01.215.176.553.553 0 01.054.552v-.013zm-72.46-107.606a.543.543 0 01-.305.527.534.534 0 01-.593-.09.555.555 0 01-.18-.37.552.552 0 01.512-.579.536.536 0 01.485.242.636.636 0 01.08.27zm67.595 105.207a.551.551 0 01-.74.243.539.539 0 01-.216-.742.552.552 0 01.316-.265.55.55 0 01.411.036c.078.04.144.101.189.175a.542.542 0 01.04.553zm-67.15-99.817a.527.527 0 01-.486.607.554.554 0 01-.593-.472.542.542 0 01.28-.544.535.535 0 01.206-.062.538.538 0 01.512.229.582.582 0 01.08.242zm62.393 97.216a.532.532 0 01-.331.249.555.555 0 01-.21.011.553.553 0 01-.401-.812.551.551 0 01.741-.203.551.551 0 01.202.755zM19.52 163.53a.567.567 0 01-.472.62.554.554 0 01-.62-.459.554.554 0 01.458-.619.536.536 0 01.526.229c.05.069.086.147.108.229zm57.07 89.009a.551.551 0 01-.754.161.537.537 0 01-.162-.741.555.555 0 01.755-.175.39.39 0 01.148.148.554.554 0 01.014.607zm-56.18-83.673a.54.54 0 01-.836.559.55.55 0 01-.23-.343.542.542 0 01.235-.555.521.521 0 01.197-.078.548.548 0 01.566.229c.03.059.053.123.067.188zm51.68 80.668a.567.567 0 01-.769.134.551.551 0 01.634-.903.705.705 0 01.135.149.55.55 0 010 .62zM21.54 174.176a.535.535 0 01-.199.569.528.528 0 01-.604.024.554.554 0 01-.186-.753.534.534 0 01.66-.215.551.551 0 01.33.375zm46.155 72.15a.55.55 0 01-.768.095.553.553 0 01-.21-.365.536.536 0 01.116-.404.529.529 0 01.568-.192.53.53 0 01.187.098l.134.121a.566.566 0 01-.027.647zm-44.794-66.895a.543.543 0 01-.186.579.538.538 0 01-.852-.282.541.541 0 01.364-.674.558.558 0 01.607.229c.03.046.053.096.067.148zm40.55 63.499a.55.55 0 01-.769.068.553.553 0 010-.768.542.542 0 01.37-.196.544.544 0 01.398.128l.095.108a.552.552 0 01-.095.66zm-38.96-58.31a.539.539 0 01-.765.638.55.55 0 01-.3-.527.541.541 0 01.724-.469.55.55 0 01.274.209.78.78 0 01.067.149zm34.863 54.739a.55.55 0 01-.768 0 .553.553 0 010-.768.516.516 0 01.582-.118.512.512 0 01.172.118l.095.094a.554.554 0 01-.081.674zm-33.07-49.645a.55.55 0 01-.31.7.552.552 0 01-.7-.31.553.553 0 01.309-.714.566.566 0 01.647.202.486.486 0 01.054.122zm29.135 45.899a.555.555 0 01-.768 0 .538.538 0 010-.768.529.529 0 01.384-.161.532.532 0 01.384.161v.081a.563.563 0 010 .687zm-27.114-40.886a.538.538 0 01-.283.714.549.549 0 01-.416.008.534.534 0 01-.298-.291.536.536 0 01.108-.595.54.54 0 01.175-.119.547.547 0 01.66.202c.023.023.041.051.054.081zm23.327 36.978a.555.555 0 01-.768 0 .567.567 0 010-.768.53.53 0 01.384-.161.532.532 0 01.384.161.551.551 0 010 .768zM30.53 199.659a.54.54 0 11-.97.472.544.544 0 01.083-.602.548.548 0 01.86.063.144.144 0 01.027.067zm17.518 27.976a.545.545 0 01-.384.161.532.532 0 01-.384-.161.553.553 0 010-.768.555.555 0 01.768.067.542.542 0 01-.013.701h.014zm-15.066-23.152a.553.553 0 01-.97.526.554.554 0 01.614-.793c.13.032.244.114.316.227l.04.04zm11.63 18.934a.556.556 0 01-.768-.094.553.553 0 01.094-.768.563.563 0 01.768.094.553.553 0 01-.094.768zm-9.002-14.204a.528.528 0 01-.175.742.556.556 0 01-.755-.189.552.552 0 01.202-.755.552.552 0 01.728.175v.027zm5.74 9.865a.534.534 0 01-.398.089.541.541 0 01-.194-.077.54.54 0 01-.148-.147.53.53 0 01-.027-.602.555.555 0 01.903-.031.533.533 0 01.097.413.543.543 0 01-.232.355zm-2.842-5.256a.54.54 0 11-.903.593.538.538 0 01.161-.755.54.54 0 01.742.162z"></path><path fill="#fff" d="M49.422 50.628l3.248 3.302A129.243 129.243 0 0042.55 65.1l-3.626-2.883a132.624 132.624 0 0110.498-11.59zm68.498-35.9a132.677 132.677 0 0131.251-2.17l-.161 4.555c-10.101-.5-20.225.201-30.16 2.09l-.93-4.475zM22.403 88.846l4.19 1.968a128.171 128.171 0 00-10.7 73.875l-4.568.687a132.698 132.698 0 0111.078-76.584v.054zm142.36-74.603a132.636 132.636 0 0169.24 34.431l-3.181 3.302a127.911 127.911 0 00-66.841-33.232l.782-4.501zM14.613 180.671l4.461-1.239a129.37 129.37 0 0031.345 54.914l-3.328 3.221a133.68 133.68 0 01-32.477-56.896zM254.042 72.675c1.725 2.695 3.383 5.39 4.919 8.18a149.385 149.385 0 012.857 5.39l-4.151 2.116c-.862-1.765-1.792-3.53-2.695-5.256-1.496-2.695-3.086-5.39-4.743-7.897l3.813-2.533zM61.551 244.6a128.38 128.38 0 0025.469 16.252l-2.008 4.178A133.395 133.395 0 0158.6 248.24l2.951-3.639zm208.352-82.648l4.581.607a134.173 134.173 0 01-7.708 30.348l-4.326-1.658a129.578 129.578 0 007.453-29.297zm-13.692 43.123l4.043 2.143a132.348 132.348 0 01-53.19 54.308l-1.199.647-2.197-4.043 1.146-.62a127.774 127.774 0 0051.397-52.475v.04zm-95.41 67.219c4.997-.71 9.947-1.718 14.824-3.019l1.199 4.474a129.87 129.87 0 01-15.376 3.126l-.647-4.581z"></path></svg>