<svg xmlns="http://www.w3.org/2000/svg" viewBox="0 0 1920 1080" width="1920" height="1080" preserveAspectRatio="xMidYMid meet" style="width: 100%; height: 100%; transform: translate3d(0px, 0px, 0px);"><defs><clipPath id="__lottie_element_2"><rect width="1920" height="1080" x="0" y="0"></rect></clipPath></defs><g clip-path="url(#__lottie_element_2)"><g style="display: block;" transform="matrix(7.791216850280762,0,0,7.791216850280762,960,540)" opacity="0.02483553311682428"><g opacity="1" transform="matrix(1,0,0,1,45.25,-60.75)"><path fill="rgb(3,255,152)" fill-opacity="1" d=" M0,-7.75 C4.277225017547607,-7.75 7.75,-4.277225017547607 7.75,0 C7.75,4.277225017547607 4.277225017547607,7.75 0,7.75 C-4.277225017547607,7.75 -7.75,4.277225017547607 -7.75,0 C-7.75,-4.277225017547607 -4.277225017547607,-7.75 0,-7.75z"></path></g><g opacity="1" transform="matrix(1,0,0,1,-46.75,-50.25)"><path fill="rgb(3,255,152)" fill-opacity="1" d=" M0,-6.25 C3.4493749141693115,-6.25 6.25,-3.4493749141693115 6.25,0 C6.25,3.4493749141693115 3.4493749141693115,6.25 0,6.25 C-3.4493749141693115,6.25 -6.25,3.4493749141693115 -6.25,0 C-6.25,-3.4493749141693115 -3.4493749141693115,-6.25 0,-6.25z"></path></g><g opacity="1" transform="matrix(1,0,0,1,-50.25,41.25)"><path fill="rgb(3,255,152)" fill-opacity="1" d=" M0,-7.25 C4.001275062561035,-7.25 7.25,-4.001275062561035 7.25,0 C7.25,4.001275062561035 4.001275062561035,7.25 0,7.25 C-4.001275062561035,7.25 -7.25,4.001275062561035 -7.25,0 C-7.25,-4.001275062561035 -4.001275062561035,-7.25 0,-7.25z"></path></g><g opacity="1" transform="matrix(1,0,0,1,54.25,32.75)"><path fill="rgb(3,255,152)" fill-opacity="1" d=" M0,-5.75 C3.1734249591827393,-5.75 5.75,-3.1734249591827393 5.75,0 C5.75,3.1734249591827393 3.1734249591827393,5.75 0,5.75 C-3.1734249591827393,5.75 -5.75,3.1734249591827393 -5.75,0 C-5.75,-3.1734249591827393 -3.1734249591827393,-5.75 0,-5.75z"></path></g><g opacity="1" transform="matrix(1,0,0,1,-56.5,9.5)"><path fill="rgb(3,255,152)" fill-opacity="1" d=" M0,-3 C1.6556999683380127,-3 3,-1.6556999683380127 3,0 C3,1.6556999683380127 1.6556999683380127,3 0,3 C-1.6556999683380127,3 -3,1.6556999683380127 -3,0 C-3,-1.6556999683380127 -1.6556999683380127,-3 0,-3z"></path></g><g opacity="1" transform="matrix(1,0,0,1,55,-14)"><path fill="rgb(3,255,152)" fill-opacity="1" d=" M0,-3.5 C1.9316500425338745,-3.5 3.5,-1.9316500425338745 3.5,0 C3.5,1.9316500425338745 1.9316500425338745,3.5 0,3.5 C-1.9316500425338745,3.5 -3.5,1.9316500425338745 -3.5,0 C-3.5,-1.9316500425338745 -1.9316500425338745,-3.5 0,-3.5z"></path></g><g opacity="1" transform="matrix(1,0,0,1,-4.25,-61.75)"><path fill="rgb(3,255,152)" fill-opacity="1" d=" M0,-3.25 C1.7936749458312988,-3.25 3.25,-1.7936749458312988 3.25,0 C3.25,1.7936749458312988 1.7936749458312988,3.25 0,3.25 C-1.7936749458312988,3.25 -3.25,1.7936749458312988 -3.25,0 C-3.25,-1.7936749458312988 -1.7936749458312988,-3.25 0,-3.25z"></path></g><g opacity="1" transform="matrix(1,0,0,1,-0.25,58.75)"><path fill="rgb(3,255,152)" fill-opacity="1" d=" M0,-3.75 C2.069624900817871,-3.75 3.75,-2.069624900817871 3.75,0 C3.75,2.069624900817871 2.069624900817871,3.75 0,3.75 C-2.069624900817871,3.75 -3.75,2.069624900817871 -3.75,0 C-3.75,-2.069624900817871 -2.069624900817871,-3.75 0,-3.75z"></path></g></g><g style="display: block;" transform="matrix(5.520991802215576,0,0,5.520991802215576,960,540)" opacity="0.02483553311682428"><g opacity="1" transform="matrix(1,0,0,1,89.5,-14.5)"><path fill="rgb(255,137,3)" fill-opacity="1" d=" M4.457714172833097e-16,-7.28000020980835 C4.457714172833097e-16,-7.28000020980835 2.139538288116455,-2.944821834564209 2.139538288116455,-2.944821834564209 C2.139538288116455,-2.944821834564209 6.923691272735596,-2.2496438026428223 6.923691272735596,-2.2496438026428223 C6.923691272735596,-2.2496438026428223 3.461845636367798,1.1248219013214111 3.461845636367798,1.1248219013214111 C3.461845636367798,1.1248219013214111 4.27907657623291,5.889643669128418 4.27907657623291,5.889643669128418 C4.27907657623291,5.889643669128418 2.2288570864165483e-16,3.640000104904175 2.2288570864165483e-16,3.640000104904175 C2.2288570864165483e-16,3.640000104904175 -4.27907657623291,5.889643669128418 -4.27907657623291,5.889643669128418 C-4.27907657623291,5.889643669128418 -3.461845636367798,1.1248219013214111 -3.461845636367798,1.1248219013214111 C-3.461845636367798,1.1248219013214111 -6.923691272735596,-2.2496438026428223 -6.923691272735596,-2.2496438026428223 C-6.923691272735596,-2.2496438026428223 -2.139538288116455,-2.944821834564209 -2.139538288116455,-2.944821834564209 C-2.139538288116455,-2.944821834564209 4.457714172833097e-16,-7.28000020980835 4.457714172833097e-16,-7.28000020980835z"></path></g><g opacity="1" transform="matrix(1,0,0,1,-82,-12)"><path fill="rgb(255,137,3)" fill-opacity="1" d=" M5.267206090469494e-16,-8.60200023651123 C5.267206090469494e-16,-8.60200023651123 2.528064250946045,-3.4795820713043213 2.528064250946045,-3.4795820713043213 C2.528064250946045,-3.4795820713043213 8.180988311767578,-2.6581642627716064 8.180988311767578,-2.6581642627716064 C8.180988311767578,-2.6581642627716064 4.090494155883789,1.3290821313858032 4.090494155883789,1.3290821313858032 C4.090494155883789,1.3290821313858032 5.05612850189209,6.959164142608643 5.05612850189209,6.959164142608643 C5.05612850189209,6.959164142608643 2.633603045234747e-16,4.301000118255615 2.633603045234747e-16,4.301000118255615 C2.633603045234747e-16,4.301000118255615 -5.05612850189209,6.959164142608643 -5.05612850189209,6.959164142608643 C-5.05612850189209,6.959164142608643 -4.090494155883789,1.3290821313858032 -4.090494155883789,1.3290821313858032 C-4.090494155883789,1.3290821313858032 -8.180988311767578,-2.6581642627716064 -8.180988311767578,-2.6581642627716064 C-8.180988311767578,-2.6581642627716064 -2.528064250946045,-3.4795820713043213 -2.528064250946045,-3.4795820713043213 C-2.528064250946045,-3.4795820713043213 5.267206090469494e-16,-8.60200023651123 5.267206090469494e-16,-8.60200023651123z"></path></g><g opacity="1" transform="matrix(1,0,0,1,-3.5,-91.75)"><path fill="rgb(255,137,3)" fill-opacity="1" d=" M3.3818621570207434e-16,-5.5229997634887695 C3.3818621570207434e-16,-5.5229997634887695 1.6228750944137573,-2.2336959838867188 1.6228750944137573,-2.2336959838867188 C1.6228750944137573,-2.2336959838867188 5.252685070037842,-1.7067008018493652 5.252685070037842,-1.7067008018493652 C5.252685070037842,-1.7067008018493652 2.6258671283721924,0.8531959056854248 2.6258671283721924,0.8531959056854248 C2.6258671283721924,0.8531959056854248 3.246337890625,4.46820068359375 3.246337890625,4.46820068359375 C3.246337890625,4.46820068359375 1.690624955509278e-16,2.760999917984009 1.690624955509278e-16,2.760999917984009 C1.690624955509278e-16,2.760999917984009 -3.246337890625,4.46820068359375 -3.246337890625,4.46820068359375 C-3.246337890625,4.46820068359375 -2.6258671283721924,0.8531959056854248 -2.6258671283721924,0.8531959056854248 C-2.6258671283721924,0.8531959056854248 -5.252685070037842,-1.7067008018493652 -5.252685070037842,-1.7067008018493652 C-5.252685070037842,-1.7067008018493652 -1.6228750944137573,-2.2336959838867188 -1.6228750944137573,-2.2336959838867188 C-1.6228750944137573,-2.2336959838867188 3.3818621570207434e-16,-5.5229997634887695 3.3818621570207434e-16,-5.5229997634887695z"></path></g><g opacity="1" transform="matrix(1,0,0,1,2.5,81)"><path fill="rgb(255,137,3)" fill-opacity="1" d=" M5.267206090469494e-16,-8.60200023651123 C5.267206090469494e-16,-8.60200023651123 2.528064250946045,-3.4795820713043213 2.528064250946045,-3.4795820713043213 C2.528064250946045,-3.4795820713043213 8.180988311767578,-2.6581642627716064 8.180988311767578,-2.6581642627716064 C8.180988311767578,-2.6581642627716064 4.090494155883789,1.3290821313858032 4.090494155883789,1.3290821313858032 C4.090494155883789,1.3290821313858032 5.05612850189209,6.959164142608643 5.05612850189209,6.959164142608643 C5.05612850189209,6.959164142608643 2.633603045234747e-16,4.301000118255615 2.633603045234747e-16,4.301000118255615 C2.633603045234747e-16,4.301000118255615 -5.05612850189209,6.959164142608643 -5.05612850189209,6.959164142608643 C-5.05612850189209,6.959164142608643 -4.090494155883789,1.3290821313858032 -4.090494155883789,1.3290821313858032 C-4.090494155883789,1.3290821313858032 -8.180988311767578,-2.6581642627716064 -8.180988311767578,-2.6581642627716064 C-8.180988311767578,-2.6581642627716064 -2.528064250946045,-3.4795820713043213 -2.528064250946045,-3.4795820713043213 C-2.528064250946045,-3.4795820713043213 5.267206090469494e-16,-8.60200023651123 5.267206090469494e-16,-8.60200023651123z"></path></g></g><g style="display: none;" transform="matrix(5.349515914916992,0,0,5.349515914916992,1284.983154296875,559.5728149414062)" opacity="0.00007962891895189727"><g opacity="1" transform="matrix(1,0,0,1,-60.75,-4.25)"><path fill="rgb(58,246,90)" fill-opacity="1" d=" M0,-61.25 C33.80387496948242,-61.25 61.25,-33.80387496948242 61.25,0 C61.25,33.80387496948242 33.80387496948242,61.25 0,61.25 C-33.80387496948242,61.25 -61.25,33.80387496948242 -61.25,0 C-61.25,-33.80387496948242 -33.80387496948242,-61.25 0,-61.25z"></path></g></g><g style="display: block;" transform="matrix(5.087500095367432,0,0,5.087500095367432,1275.425048828125,558.3937377929688)" opacity="1"><g opacity="1" transform="matrix(1,0,0,1,-62,-4.5)"><path fill="rgb(0,207,51)" fill-opacity="1" d=" M0,-40 C22.076000213623047,-40 40,-22.076000213623047 40,0 C40,22.076000213623047 22.076000213623047,40 0,40 C-22.076000213623047,40 -40,22.076000213623047 -40,0 C-40,-22.076000213623047 -22.076000213623047,-40 0,-40z"></path></g></g><g transform="matrix(3.763040065765381,0,0,3.763040065765381,961.1409912109375,540)" opacity="1" style="display: block;"><g opacity="1" transform="matrix(1,0,0,1,0,0)"><path stroke-linecap="round" stroke-linejoin="miter" fill-opacity="0" stroke-miterlimit="4" stroke="rgb(255,255,255)" stroke-opacity="1" stroke-width="12" d=" M-23,-3.5 C-23,-3.5 -7.5,12 -7.5,12 C-7.5,12 20.5,-16 20.5,-16"></path></g></g><g fill="rgb(0,255,151)" font-size="64" font-family="SF UI Display" font-style="normal" font-weight="700" aria-label="" transform="matrix(1,0,0,1,664.6409912109375,864)" opacity="0.48730955638223244" style="display: block;"></g></g></svg>