<svg width="423" height="433" viewBox="0 0 423 433" fill="none" xmlns="http://www.w3.org/2000/svg">
<g clip-path="url(#clip0)">
<path opacity="0.41" d="M156.458 302.687C152.29 302.666 148.122 302.503 143.943 302.165C98.1949 298.423 45.1957 276.61 22.4086 236.891C2.49933 202.163 -5.31484 157.208 3.74879 118.492C12.2696 82.0862 38.7026 52.6039 75.7048 41.4061C117.326 28.8176 163.32 44.1161 204.265 26.9155C263.87 1.89191 338.786 21.7615 380.56 69.3852C417.593 111.609 426.564 179.686 414.93 232.432C409.052 259.092 393.597 284.77 368.998 298.187C349.426 308.864 325.758 310.97 303.371 308.189C285.377 305.949 268.806 300.089 251.488 295.263C237.611 291.397 226.222 293.412 212.018 296.214C193.747 299.834 175.159 302.769 156.458 302.687Z" fill="#AFAFAF"/>
<path d="M166.67 277.213C163.301 277.203 159.921 277.06 156.552 276.784C119.529 273.757 76.6482 256.106 58.2137 223.965C42.104 195.874 35.7748 159.499 43.1077 128.155C50.0104 98.7038 71.3841 74.846 101.33 65.7855C135.004 55.6002 172.221 67.974 205.362 54.0663C253.589 33.8183 314.207 49.8939 348.014 88.4265C377.981 122.592 385.231 177.681 375.83 220.366C371.078 241.933 358.573 262.712 338.664 273.573C322.82 282.214 303.679 283.922 285.562 281.662C270.999 279.852 257.593 275.107 243.583 271.2C232.348 268.071 223.141 269.697 211.64 271.967C196.841 274.902 181.807 277.275 166.67 277.213Z" stroke="white" stroke-width="1.9456" stroke-miterlimit="10" stroke-dasharray="3.85 3.85"/>
<path opacity="0.87" d="M382.936 419.685C392.886 419.685 400.951 419.072 400.951 418.315C400.951 417.558 392.886 416.945 382.936 416.945C372.987 416.945 364.922 417.558 364.922 418.315C364.922 419.072 372.987 419.685 382.936 419.685Z" fill="#515159"/>
<path d="M385.221 366.591C385.221 366.591 369.797 356.129 379.701 340.913C389.604 325.706 387.136 320.419 383.664 316.134C392.082 325.706 390.239 336.607 385.221 343.52C380.202 350.433 379.404 359.852 385.221 366.591Z" fill="#AFAFAF"/>
<path d="M397.807 379.578H368.066L370.965 417.18H394.909L397.807 379.578Z" fill="#FEFEFE"/>
<path d="M400.951 377.656H364.922V382.063H400.951V377.656Z" fill="#8B8B8C"/>
<path d="M393.875 373.688H371.989C369.818 373.688 368.057 375.447 368.057 377.615V377.656H397.798V377.615C397.808 375.447 396.046 373.688 393.875 373.688Z" fill="#5A5A63"/>
<path d="M396.157 400.992L396.854 391.89H369.018L369.714 400.992H396.157Z" fill="#254BB7"/>
<path d="M397.807 377.656V377.615C397.807 375.447 396.046 373.688 393.874 373.688H383.039C385.21 373.688 386.972 375.447 386.972 377.615V377.656H390.116V382.063H386.777L384.063 417.18H394.899L397.613 382.063H400.951V377.656H397.807Z" fill="#AFAFAF"/>
<path d="M238.112 143.832C238.112 143.832 244.349 124.31 235.234 118.645C229.448 115.669 226.283 119.371 226.283 119.371C226.283 119.371 223.559 105.566 204.807 110.127C192.661 113.082 188.82 106.823 188.82 106.823C188.82 106.823 188.708 124.126 197.075 129.27C203.138 134.455 200.813 148.485 200.813 148.485L238.112 143.832Z" fill="#2F2F35"/>
<path opacity="0.87" d="M293.374 398.926C293.374 398.926 327.15 399.939 336.572 408.631C346.486 417.763 356.881 432.039 314.215 431.763C271.54 431.487 233.718 419.757 197.924 423.479C162.131 427.202 132.769 433.614 124.207 432.192C115.655 430.771 176.633 401.595 176.633 401.595L289.851 405.747L293.374 398.926Z" fill="#515159"/>
<path d="M261.791 323.078L219.218 318.803L176.644 323.078C176.644 323.078 174.114 343.162 165.891 353.879C219.218 373.003 219.218 373.003 219.218 373.003C219.218 373.003 219.218 373.003 272.544 353.879C264.321 343.162 261.791 323.078 261.791 323.078Z" fill="#A87D1D"/>
<path d="M217.537 372.399C219.216 373.003 219.216 373.003 219.216 373.003C219.216 373.003 219.216 373.003 220.896 372.399C230.707 349.861 228.362 324.581 227.778 319.662L219.216 318.803L208.258 319.898C208.043 325.307 207.674 350.004 217.537 372.399Z" fill="#A87D1D"/>
<path d="M176.398 324.714C176.398 324.714 221.194 344.441 264.464 335.871C262.518 328.856 261.791 323.078 261.791 323.078L219.218 318.803L185.022 322.229L176.398 324.714Z" fill="#895436"/>
<path d="M197.075 129.27C203.138 134.455 200.813 148.485 200.813 148.485L208.74 147.493C216.882 140.263 226.068 131.101 224.737 127.654C222.402 121.611 215.643 115.577 203.189 114.882C190.736 114.197 188.82 106.823 188.82 106.823C188.82 106.823 188.708 124.126 197.075 129.27Z" fill="#515159"/>
<path d="M217.67 178.264L182.47 191.078L176.643 323.078C176.643 323.078 189.086 328.897 219.216 328.897C219.216 191.691 219.216 180.309 219.216 180.309L217.67 178.264Z" fill="white"/>
<path d="M220.763 178.264L255.963 191.078L261.79 323.078C261.79 323.078 249.347 328.897 219.217 328.897C219.217 191.691 219.217 180.309 219.217 180.309L220.763 178.264Z" fill="white"/>
<path d="M182.471 191.067L182.307 191.129C172.025 194.8 163.811 202.684 159.745 212.798L121.965 304.108L154.092 307.933L181.293 241.381L182.471 191.067Z" fill="#FF7E6E"/>
<path d="M255.963 191.067L256.127 191.129C266.409 194.8 274.623 202.684 278.689 212.798L316.469 304.108L284.342 307.933L257.141 241.381L255.963 191.067Z" fill="#FF7E6E"/>
<path d="M293.354 248.263L278.689 212.808C274.623 202.695 266.409 194.8 256.127 191.139L255.963 191.078L257.151 241.38L264.852 260.238C275.135 251.627 285.458 248.835 293.354 248.263Z" fill="#E8E8E8"/>
<path d="M145.068 248.263L159.734 212.808C163.8 202.695 172.024 194.8 182.296 191.139L182.46 191.078L181.272 241.38L173.57 260.238C163.298 251.627 152.975 248.835 145.068 248.263Z" fill="#E8E8E8"/>
<path d="M258.256 243.119C258.256 243.119 257.304 241.79 255.962 239.284L257.15 241.38C257.15 241.38 243.755 315.603 207.961 328.61C211.402 328.795 215.14 328.907 219.216 328.907C249.346 328.907 261.79 323.088 261.79 323.088L258.256 243.119Z" fill="#D3D3D3"/>
<path opacity="0.52" d="M165.889 233.394C174.973 207.961 175.475 208.155 195.302 203.502C215.13 198.839 211.238 180.606 211.238 180.606L192.752 187.335L189.895 188.378L182.48 191.078L182.316 191.139C172.034 194.81 163.82 202.695 159.755 212.808L123.541 300.335C138.821 289.086 158.157 255.053 165.889 233.394Z" fill="#FFF6E7"/>
<path opacity="0.28" d="M272.543 233.394C263.459 207.961 262.957 208.155 243.13 203.502C223.302 198.839 227.194 180.606 227.194 180.606L245.68 187.335L248.537 188.378L255.952 191.078L256.116 191.139C266.398 194.81 274.612 202.695 278.677 212.808L314.891 300.335C299.611 289.086 280.275 255.053 272.543 233.394Z" fill="#4C2A29"/>
<path d="M219.31 194.544H219.115C213.913 194.544 209.693 190.331 209.693 185.136V162.679H228.722V185.136C228.732 190.331 224.513 194.544 219.31 194.544Z" fill="#FF7E6E"/>
<path d="M228.578 180.003C228.629 180.003 228.68 179.992 228.732 179.992V162.679H219.852L209.703 166.34C209.703 166.34 213.472 180.003 228.578 180.003Z" fill="#4C2A29"/>
<path d="M241.347 149.181C241.347 152.555 238.613 155.286 235.233 155.286C231.854 155.286 229.119 152.555 229.119 149.181C229.119 145.806 231.854 143.076 235.233 143.076C238.613 143.086 241.347 145.816 241.347 149.181Z" fill="#C64F4F"/>
<path d="M236.431 155.163C237.312 151.625 237.835 147.105 238.111 143.822C237.251 143.362 236.278 143.076 235.233 143.076C231.854 143.076 229.119 145.806 229.119 149.181C229.119 152.555 231.854 155.286 235.233 155.286C235.653 155.286 236.042 155.245 236.431 155.163Z" fill="#803D3D"/>
<path d="M197.074 149.181C197.074 152.555 199.809 155.286 203.188 155.286C206.568 155.286 209.302 152.555 209.302 149.181C209.302 145.806 206.568 143.076 203.188 143.076C199.809 143.086 197.074 145.816 197.074 149.181Z" fill="#C64F4F"/>
<path d="M202.002 155.163C201.121 151.625 200.599 147.105 200.322 143.822C201.183 143.362 202.155 143.076 203.2 143.076C206.58 143.076 209.314 145.806 209.314 149.181C209.314 152.555 206.58 155.286 203.2 155.286C202.78 155.286 202.381 155.245 202.002 155.163Z" fill="#803D3D"/>
<path d="M229.969 127.849H219.216H208.462L203.137 139.466L204.028 150.96C204.509 157.096 208.472 167.68 214.054 170.288C215.713 171.065 217.475 171.576 219.205 171.576C220.947 171.576 222.698 171.065 224.357 170.288C229.938 167.69 233.912 157.096 234.383 150.96L235.274 139.466L229.969 127.849Z" fill="#FF7E6E"/>
<path d="M224.736 142.421C224.736 142.421 228.341 143.434 232.428 142.421" stroke="#2F2F35" stroke-width="1.3362" stroke-miterlimit="10" stroke-linecap="round"/>
<path d="M223.568 135.815C223.568 135.815 228.843 134.935 232.007 136.766" stroke="#2F2F35" stroke-width="2.6723" stroke-miterlimit="10" stroke-linecap="round"/>
<path d="M213.697 142.421C213.697 142.421 210.092 143.434 206.006 142.421" stroke="#2F2F35" stroke-width="1.3362" stroke-miterlimit="10" stroke-linecap="round"/>
<path d="M214.865 135.815C214.865 135.815 209.59 134.935 206.426 136.766" stroke="#2F2F35" stroke-width="2.6723" stroke-miterlimit="10" stroke-linecap="round"/>
<path opacity="0.52" d="M210.644 152.443C209.937 140.826 208.463 127.849 208.463 127.849L203.137 139.466L203.424 143.116C203.342 143.116 203.27 143.096 203.188 143.096C199.809 143.096 197.074 145.826 197.074 149.201C197.074 152.576 199.809 155.306 203.188 155.306C203.721 155.306 204.233 155.214 204.725 155.091C206.169 161.023 209.589 168.222 214.054 170.298C215.714 171.075 217.475 171.586 219.206 171.586C219.216 171.566 211.351 164.05 210.644 152.443Z" fill="#FFF6E7"/>
<path d="M255.962 374.71L134.326 337.865C118.175 332.977 101.184 342.467 96.924 358.767L96.7601 359.381C92.3666 376.183 103.274 393.148 120.397 396.144C165.367 403.998 246.889 417.343 289.79 418.98L307.876 431.016C310.61 432.836 314.236 432.529 316.622 430.29L316.714 430.198C319.561 427.539 319.705 423.07 317.042 420.227L314.226 417.221C314.226 417.221 311.717 404.99 299.294 399.754C286.881 394.508 285.714 381.705 282.795 374.71C279.866 367.726 261.206 364.228 255.962 374.71Z" fill="#8C4242"/>
<path d="M96.9132 358.768C101.184 342.467 118.164 332.967 134.315 337.865L175.567 350.362C169.351 358.103 161.157 373.81 160.912 402.976C145.847 400.532 131.918 398.159 120.397 396.145C103.273 393.159 92.3558 376.183 96.7596 359.381L96.9132 358.768Z" fill="#254BB7"/>
<path opacity="0.67" d="M135.288 384.384C135.288 389.334 134.1 394.007 132 398.149C127.924 397.454 124.032 396.779 120.397 396.145C103.273 393.159 92.3558 376.183 96.7596 359.381L96.9234 358.768C97.3023 357.305 97.7939 355.894 98.3777 354.544C100.436 354.105 102.556 353.88 104.748 353.88C121.605 353.88 135.288 367.532 135.288 384.384Z" fill="#A87D1D"/>
<path d="M261.789 391.604C261.789 391.604 260.037 401.779 243.129 398.149" stroke="#7B3C38" stroke-width="1.139" stroke-miterlimit="10"/>
<path opacity="0.28" d="M272.542 386.941C272.542 386.941 246.631 385.775 191.799 376.009C147.382 368.094 134.355 345.402 131.006 337.068C132.112 337.272 133.218 337.528 134.314 337.865L255.951 374.71C261.205 364.229 279.864 367.726 282.783 374.71C285.702 381.695 286.87 394.508 299.282 399.755C311.695 405.001 314.214 417.221 314.214 417.221C314.214 417.221 301.443 409.071 293.373 407.322C285.303 405.573 272.542 386.941 272.542 386.941Z" fill="#4C2A29"/>
<path d="M278.156 418.315C278.156 418.315 300.492 439.657 319.531 430.873C322.696 429.411 323.689 425.371 321.62 422.569C305.582 400.818 285.356 377.124 277.644 368.217C275.718 365.987 272.656 365.088 269.83 365.906L247.893 372.266L278.156 418.315Z" fill="#2F2F35"/>
<path d="M247.892 372.266L226.887 365.906L242.802 414.808L278.155 418.315L247.892 372.266Z" fill="#A5A5A5"/>
<path d="M182.47 374.71L304.107 337.865C320.258 332.977 337.248 342.467 341.509 358.768L341.673 359.381C346.066 376.183 335.159 393.148 318.035 396.145C273.065 403.998 191.544 417.344 148.643 418.98L130.557 431.016C127.822 432.836 124.197 432.53 121.81 430.29L121.718 430.198C118.871 427.539 118.728 423.07 121.39 420.227L124.207 417.221C124.207 417.221 126.726 404.99 139.139 399.755C151.551 394.508 152.719 381.705 155.638 374.71C158.556 367.726 177.227 364.229 182.47 374.71Z" fill="#FF7E6E"/>
<path d="M341.509 358.768C337.239 342.467 320.258 332.967 304.108 337.865L262.855 350.362C269.072 358.103 277.265 373.81 277.511 402.976C292.576 400.532 306.504 398.159 318.026 396.145C335.16 393.159 346.067 376.183 341.663 359.381L341.509 358.768Z" fill="#254BB7"/>
<path opacity="0.67" d="M303.145 384.384C303.145 389.334 304.333 394.007 306.432 398.149C310.508 397.454 314.4 396.779 318.036 396.145C335.169 393.159 346.076 376.183 341.673 359.381L341.509 358.768C341.13 357.305 340.638 355.894 340.055 354.544C337.996 354.105 335.876 353.88 333.684 353.88C316.817 353.88 303.145 367.532 303.145 384.384Z" fill="#A87D1D"/>
<path opacity="0.28" d="M165.889 386.941C165.889 386.941 191.8 385.775 246.632 376.009C291.049 368.094 304.076 345.402 307.425 337.068C306.319 337.272 305.213 337.528 304.117 337.865L182.48 374.71C177.226 364.229 158.566 367.726 155.648 374.71C152.729 381.695 151.561 394.508 139.149 399.755C126.736 405.001 124.217 417.221 124.217 417.221C124.217 417.221 136.988 409.071 145.058 407.322C153.118 405.573 165.889 386.941 165.889 386.941Z" fill="#4C2A29"/>
<path opacity="0.57" d="M139.139 399.755L120.91 396.38C104.411 393.752 93.2272 378.167 96.0436 361.723L96.1562 361.079C99.2287 343.142 117.458 332.057 134.828 337.548L169.259 348.449" stroke="white" stroke-width="1.1139" stroke-miterlimit="10"/>
<path d="M212.959 152.248C212.304 152.248 211.915 153.005 212.324 153.527C214.147 155.869 216.564 157.3 219.227 157.3C221.879 157.3 224.307 155.869 226.13 153.527C226.529 153.015 226.15 152.248 225.495 152.248H212.959Z" fill="white"/>
<path d="M221.019 142.165V148.485C221.019 148.485 219.565 147.667 217.537 148.485" stroke="#2F2F35" stroke-width="0.8212" stroke-miterlimit="10" stroke-linecap="round"/>
<path d="M226.293 119.371H224.736V129.26H226.293V119.371Z" fill="#FF7E6E"/>
<path d="M316.468 304.108L316.53 304.282C320.175 314.365 315.813 325.584 306.298 330.553L241.347 364.556L241.03 363.727C235.305 348.961 241.296 332.251 255.091 324.448L284.341 307.923L316.468 304.108Z" fill="#FF7E6E"/>
<path opacity="0.28" d="M302.756 324.939C302.756 327.332 303.35 329.582 304.405 331.566L306.31 330.564C313.806 326.637 318.087 318.834 317.78 310.766C317.514 310.755 317.258 310.725 316.991 310.725C309.126 310.725 302.756 317.086 302.756 324.939Z" fill="#4C2A29"/>
<path d="M284.34 307.933L302.754 297.512" stroke="#4C2A29" stroke-width="1.3362" stroke-miterlimit="10" stroke-linecap="round"/>
<path d="M122.149 304.108L122.087 304.282C118.441 314.365 122.804 325.584 132.319 330.553L197.269 364.556L197.587 363.727C203.312 348.961 197.321 332.251 183.525 324.448L154.276 307.923L122.149 304.108Z" fill="#FF7E6E"/>
<path opacity="0.28" d="M135.862 324.939C135.862 327.332 135.268 329.582 134.213 331.566L132.308 330.564C124.811 326.637 120.531 318.834 120.838 310.766C121.104 310.755 121.36 310.725 121.626 310.725C129.492 310.725 135.862 317.086 135.862 324.939Z" fill="#4C2A29"/>
<path d="M154.275 307.933L135.861 297.512" stroke="#4C2A29" stroke-width="1.3362" stroke-miterlimit="10" stroke-linecap="round"/>
<path d="M190.06 360.792C190.06 360.792 193.337 342.835 182.666 337.068" stroke="#4C2A29" stroke-width="1.3362" stroke-miterlimit="10" stroke-linecap="round"/>
<path d="M248.373 360.792C248.373 360.792 245.096 342.835 255.767 337.068" stroke="#4C2A29" stroke-width="1.3362" stroke-miterlimit="10" stroke-linecap="round"/>
<path d="M160.278 418.315C160.278 418.315 137.942 439.657 118.903 430.873C115.739 429.411 114.745 425.371 116.814 422.569C132.852 400.818 153.079 377.124 160.79 368.217C162.716 365.987 165.778 365.088 168.605 365.906L190.542 372.266L160.278 418.315Z" fill="#2F2F35"/>
<path d="M190.53 372.266L211.546 365.906L195.631 414.808L160.277 418.315L190.53 372.266Z" fill="#ECECEC"/>
<path opacity="0.28" d="M181.795 385.571C188.032 384.906 196.123 383.935 206.139 382.523L211.546 365.906L190.541 372.266L181.795 385.571Z" fill="#4C2A29"/>
<path d="M166.976 403.467L154.789 422.017C154.031 423.173 152.679 423.786 151.307 423.602L151.225 423.592C148.582 423.234 147.241 420.227 148.736 418.029L161.2 399.652C161.999 398.476 163.443 397.914 164.825 398.241L164.897 398.261C167.211 398.793 168.277 401.473 166.976 403.467Z" fill="#FFF6E7"/>
<path d="M217.537 296.265H142.949L161.343 361.672H217.537H273.742L292.136 296.265H217.537Z" fill="#AFAFAF"/>
<path d="M273.743 361.672H161.344V371.203H273.743V361.672Z" fill="#8B8B8C"/>
<path d="M217.67 343.449C227.743 343.449 235.91 339.273 235.91 334.122C235.91 328.972 227.743 324.796 217.67 324.796C207.596 324.796 199.43 328.972 199.43 334.122C199.43 339.273 207.596 343.449 217.67 343.449Z" fill="#5A5A63"/>
<path d="M292.125 291.919H142.949V296.255H292.125V291.919Z" fill="#5A5A63"/>
<path d="M178.824 364.402H167.568V368.237H178.824V364.402Z" fill="#5A5A63"/>
<path d="M195.068 364.402H183.812V368.237H195.068V364.402Z" fill="#5A5A63"/>
<path d="M273.743 366.437H205.33" stroke="#0F1201" stroke-miterlimit="10"/>
<path opacity="0.54" d="M142.949 296.265L161.343 361.672H201.376C225.147 334.153 239.587 296.265 239.587 296.265L239.536 291.929H142.949V296.265Z" fill="white"/>
<path opacity="0.57" d="M142.949 296.265H292.136" stroke="#0F1201" stroke-miterlimit="10"/>
<path opacity="0.87" d="M65.4537 419.686C80.3917 419.686 92.5012 419.072 92.5012 418.315C92.5012 417.558 80.3917 416.945 65.4537 416.945C50.5158 416.945 38.4062 417.558 38.4062 418.315C38.4062 419.072 50.5158 419.686 65.4537 419.686Z" fill="#515159"/>
<path d="M69.4068 404.868L71.1786 402.935L70.2876 403.896L71.1786 402.935C70.9635 402.73 49.6102 381.112 75.398 283.738L72.8582 283.073C46.548 382.493 68.4646 403.998 69.4068 404.868Z" fill="#5A5A63"/>
<path d="M61.4599 285.425C71.2302 294.291 69.5199 304.763 69.5199 304.763C69.5199 304.763 59.7394 300.601 57.4658 287.613C57.0664 285.343 59.7496 283.871 61.4599 285.425Z" fill="#5A5A63"/>
<path d="M85.8955 291.683C73.0631 294.762 69.5195 304.763 69.5195 304.763C69.5195 304.763 80.0989 305.806 88.3432 295.518C89.7872 293.718 88.1486 291.141 85.8955 291.683Z" fill="#5A5A63"/>
<path d="M54.7723 310.888C65.3824 318.722 64.7372 329.326 64.7372 329.326C64.7372 329.326 54.588 326.166 51.024 313.476C50.389 311.257 52.9084 309.518 54.7723 310.888Z" fill="#5A5A63"/>
<path d="M79.7097 314.662C67.2562 319.008 64.7266 329.326 64.7266 329.326C64.7266 329.326 75.3571 329.306 82.5261 318.241C83.7858 316.298 81.8911 313.905 79.7097 314.662Z" fill="#5A5A63"/>
<path d="M50.5217 333.223C61.6848 340.258 61.818 350.873 61.818 350.873C61.818 350.873 51.464 348.47 46.968 336.076C46.1896 333.908 48.5656 331.995 50.5217 333.223Z" fill="#5A5A63"/>
<path d="M75.675 335.145C63.5696 340.401 61.8184 350.873 61.8184 350.873C61.8184 350.873 72.4182 350.065 78.7474 338.509C79.8637 336.474 77.8052 334.225 75.675 335.145Z" fill="#5A5A63"/>
<path d="M82.3832 265.913C82.6085 279.085 73.7805 285.016 73.7805 285.016C73.7805 285.016 70.1243 275.045 78.0409 264.502C79.4337 262.661 82.3423 263.602 82.3832 265.913Z" fill="#5A5A63"/>
<path d="M78.6142 361.692H50.2559V417.712H78.6142V361.692Z" fill="#254BB7"/>
<path opacity="0.67" d="M78.6043 361.692H67.2773V417.712H78.6043V361.692Z" fill="#A87D1D"/>
<path d="M91.056 94.5315L80.8555 97.0676C79.3705 97.4357 77.8753 96.5358 77.5066 95.053L76.5234 91.1057L92.0903 87.2402L93.0735 91.1875C93.4422 92.6601 92.541 94.1633 91.056 94.5315Z" fill="#A87D1D"/>
<path d="M128.98 82.3827L40.8325 104.277C39.3065 104.656 37.7498 103.725 37.3709 102.201L22.8384 43.8195C22.4594 42.2958 23.3914 40.7414 24.9174 40.3631L113.065 18.4687C114.591 18.0903 116.148 19.0209 116.527 20.5446L131.059 78.9058C131.438 80.45 130.506 81.9941 128.98 82.3827Z" fill="#A87D1D"/>
<path d="M126.358 72.2894L123.91 79.3455L45.6966 98.7652L38.7529 94.0509L24.3535 36.2214L111.958 14.46L126.358 72.2894Z" fill="#254BB7"/>
<path d="M67.0285 25.618L24.3438 36.2163L38.7437 94.0409L81.4284 83.4425L67.0285 25.618Z" fill="white"/>
<path d="M64.3963 30.5688L29.3242 39.2769L29.8284 41.3013L64.9004 32.5932L64.3963 30.5688Z" fill="#AFAFAF"/>
<path d="M66.0096 37.0361L30.9375 45.7479L31.4418 47.7723L66.5139 39.0605L66.0096 37.0361Z" fill="#AFAFAF"/>
<path d="M67.6209 43.5041L32.5488 52.2123L33.053 54.2367L68.125 45.5285L67.6209 43.5041Z" fill="#AFAFAF"/>
<path d="M69.2283 49.9779L34.1562 58.6861L34.6604 60.7105L69.7325 52.0024L69.2283 49.9779Z" fill="#AFAFAF"/>
<path d="M70.8435 56.4448L35.7715 65.1566L36.2758 67.181L71.3479 58.4692L70.8435 56.4448Z" fill="#AFAFAF"/>
<path d="M72.4549 62.9232L37.3828 71.6313L37.8869 73.6558L72.959 64.9476L72.4549 62.9232Z" fill="#AFAFAF"/>
<path d="M74.0603 69.3871L38.9883 78.0953L39.4924 80.1197L74.5645 71.4115L74.0603 69.3871Z" fill="#AFAFAF"/>
<path d="M75.6775 75.8536L40.6055 84.5654L41.1098 86.5898L76.1819 77.878L75.6775 75.8536Z" fill="#AFAFAF"/>
<path d="M111.956 14.4515L69.2715 25.0542L83.6774 82.8788L126.362 72.276L111.956 14.4515Z" fill="white"/>
<path d="M109 19.4861L73.9277 28.1979L74.4321 30.2223L109.504 21.5105L109 19.4861Z" fill="#AFAFAF"/>
<path d="M110.605 25.9707L75.5332 34.6788L76.0373 36.7032L111.109 27.9951L110.605 25.9707Z" fill="#AFAFAF"/>
<path d="M112.22 32.4321L77.1484 41.1403L77.6526 43.1647L112.725 34.4565L112.22 32.4321Z" fill="#AFAFAF"/>
<path d="M113.834 38.8948L78.7617 47.6066L79.2661 49.631L114.338 40.9192L113.834 38.8948Z" fill="#AFAFAF"/>
<path d="M115.447 45.3775L80.375 54.0856L80.8791 56.11L115.951 47.4019L115.447 45.3775Z" fill="#AFAFAF"/>
<path d="M117.054 51.8413L81.9824 60.5494L82.4866 62.5738L117.559 53.8657L117.054 51.8413Z" fill="#AFAFAF"/>
<path d="M118.668 58.3036L83.5957 67.0153L84.1 69.0397L119.172 60.328L118.668 58.3036Z" fill="#AFAFAF"/>
<path d="M120.279 64.7866L85.207 73.4947L85.7112 75.5191L120.783 66.811L120.279 64.7866Z" fill="#AFAFAF"/>
<path d="M88.3824 91.1466L81.6333 92.8237C80.1586 93.1919 78.6531 92.292 78.2844 90.8092L77.6699 88.3344L89.7855 85.3279L90.4 87.8026C90.7687 89.2854 89.8674 90.7785 88.3824 91.1466Z" fill="#254BB7"/>
<path d="M238.275 7.99693C234.773 4.6734 230.348 2.40317 225.791 0.889684C225.76 0.879458 225.689 0.859005 225.586 0.828326C221.459 -0.276109 217.106 -0.276109 212.979 0.828326C212.877 0.859005 212.805 0.879458 212.774 0.889684C208.217 2.40317 203.792 4.6734 200.29 7.99693C189.864 17.8959 191.554 35.8635 201.713 45.3432C204.561 48.002 205.81 51.438 206.681 55.2218C206.947 56.3569 208.452 68.25 207.93 68.25C213.02 68.25 219.288 68.25 219.288 68.25C219.288 68.25 225.545 68.25 230.635 68.25C230.113 68.25 231.618 56.3569 231.885 55.2218C232.755 51.438 234.005 48.002 236.852 45.3432C247.001 35.8635 248.701 17.8959 238.275 7.99693Z" fill="#254BB7"/>
<path opacity="0.52" d="M215.201 55.2116C214.33 51.4279 213.081 47.9919 210.234 45.333C200.085 35.8533 198.385 17.8858 208.81 7.98676C212.313 4.66323 216.737 2.393 221.295 0.879516C221.325 0.86929 221.397 0.848838 221.499 0.818159C222.175 0.634086 222.861 0.501145 223.548 0.37843C220.045 -0.245371 216.44 -0.102204 212.989 0.818159C212.886 0.848838 212.815 0.86929 212.784 0.879516C208.227 2.393 203.802 4.66323 200.3 7.98676C189.874 17.8858 191.564 35.8533 201.723 45.333C204.57 47.9919 205.82 51.4279 206.69 55.2116C206.957 56.3467 208.462 68.2398 207.94 68.2398C210.869 68.2398 214.167 68.2398 216.461 68.2398C216.973 68.2398 215.457 56.3569 215.201 55.2116Z" fill="#FFF6E7"/>
<path d="M219.278 68.2399V40.5165L224.163 37.7043C225.781 36.7737 225.453 34.3603 223.651 33.8796L214.761 31.5378C213.246 31.139 213.072 29.0529 214.505 28.4188L219.278 26.2713V16.8632" stroke="#FEFEFE" stroke-width="2.2387" stroke-miterlimit="10" stroke-linecap="round"/>
<path d="M232.888 72.0542C232.888 72.8928 232.201 73.5779 231.362 73.5779H206.393C205.553 73.5779 204.867 72.8928 204.867 72.0542C204.867 71.2157 205.553 70.5305 206.393 70.5305H231.362C232.212 70.5305 232.888 71.2157 232.888 72.0542Z" fill="#2F2F35"/>
<path d="M232.888 76.6356C232.888 77.4742 232.201 78.1593 231.362 78.1593H206.393C205.553 78.1593 204.867 77.4742 204.867 76.6356C204.867 75.797 205.553 75.1119 206.393 75.1119H231.362C232.212 75.1119 232.888 75.797 232.888 76.6356Z" fill="#2F2F35"/>
<path d="M232.888 81.2169C232.888 82.0555 232.201 82.7407 231.362 82.7407H206.393C205.553 82.7407 204.867 82.0555 204.867 81.2169C204.867 80.3784 205.553 79.6932 206.393 79.6932H231.362C232.212 79.6932 232.888 80.3682 232.888 81.2169Z" fill="#2F2F35"/>
<path d="M218.879 93.4271C223.805 93.4271 227.799 89.4389 227.799 84.52H209.969C209.969 89.4389 213.963 93.4271 218.879 93.4271Z" fill="#2F2F35"/>
<path d="M324.509 99.2766V92.1079H321.334C320.73 88.7026 319.337 85.5836 317.35 82.9248L319.869 80.4091L314.79 75.3369L312.178 77.9446C309.505 76.1243 306.402 74.8971 303.053 74.4165V70.6737H295.874V74.5597C292.668 75.163 289.719 76.472 287.169 78.3229L284.629 75.7868L279.549 80.8591L282.12 83.4259C280.235 86.0949 278.955 89.2037 278.443 92.5784H274.879V99.747H278.525C279.109 103.03 280.44 106.057 282.324 108.644L279.518 111.446L284.598 116.518L287.435 113.685C290.036 115.516 293.057 116.774 296.335 117.316V121.181H303.514V117.316C306.771 116.774 309.782 115.526 312.383 113.706L314.759 116.078L319.839 111.006L317.504 108.674C319.49 105.954 320.852 102.764 321.395 99.2868H324.509V99.2766ZM299.929 108.092C293.19 108.092 287.722 102.631 287.722 95.9019C287.722 89.173 293.19 83.7122 299.929 83.7122C306.668 83.7122 312.137 89.173 312.137 95.9019C312.137 102.631 306.668 108.092 299.929 108.092Z" fill="#666666"/>
<path d="M353.124 126.458V122.326H351.291C350.943 120.363 350.144 118.563 348.997 117.029L350.451 115.577L347.522 112.652L346.017 114.156C344.47 113.102 342.688 112.397 340.753 112.121V109.963H336.615V112.203C334.761 112.55 333.061 113.307 331.597 114.37L330.132 112.908L327.203 115.833L328.688 117.316C327.603 118.86 326.865 120.649 326.568 122.592H324.51V126.724H326.609C326.947 128.616 327.715 130.364 328.801 131.857L327.183 133.473L330.112 136.398L331.75 134.762C333.256 135.815 334.997 136.541 336.881 136.858V139.087H341.019V136.858C342.903 136.541 344.634 135.825 346.14 134.772L347.512 136.142L350.441 133.217L349.099 131.878C350.246 130.303 351.035 128.462 351.342 126.458H353.124ZM338.95 131.54C335.058 131.54 331.904 128.391 331.904 124.505C331.904 120.619 335.058 117.469 338.95 117.469C342.842 117.469 345.996 120.619 345.996 124.505C345.996 128.391 342.842 131.54 338.95 131.54Z" fill="#9E9E9E"/>
<path d="M418.36 72.9132V58.1977H411.847C410.618 51.2029 407.75 44.791 403.664 39.3302L408.836 34.166L398.41 23.7556L393.054 29.104C387.564 25.3612 381.184 22.8557 374.312 21.8638V14.1736H359.575V22.1501C352.99 23.3875 346.927 26.0872 341.704 29.8709L336.491 24.6658L326.065 35.0761L331.349 40.3528C327.488 45.8341 324.856 52.2255 323.791 59.1385H316.469V73.8541H323.945C325.153 80.6034 327.878 86.8005 331.749 92.1284L325.993 97.8755L336.419 108.286L342.246 102.467C347.592 106.22 353.799 108.807 360.517 109.922V117.868H375.254V109.922C381.942 108.807 388.138 106.241 393.463 102.508L398.338 107.376L408.764 96.9654L403.971 92.1795C408.047 86.596 410.843 80.0307 411.959 72.903H418.36V72.9132ZM367.891 91.0137C354.044 91.0137 342.82 79.8057 342.82 65.9798C342.82 52.1539 354.044 40.946 367.891 40.946C381.737 40.946 392.962 52.1539 392.962 65.9798C392.972 79.7955 381.737 91.0137 367.891 91.0137Z" fill="#8B8B8C"/>
<path d="M367.42 80.7261C375.548 80.7261 382.137 74.1469 382.137 66.031C382.137 57.9151 375.548 51.3359 367.42 51.3359C359.292 51.3359 352.703 57.9151 352.703 66.031C352.703 74.1469 359.292 80.7261 367.42 80.7261Z" fill="#666666"/>
<path d="M80.8142 141.184C49.1991 143.096 24.6198 162.015 25.9204 183.439C27.2211 204.863 53.9101 220.672 85.5253 218.76C85.5458 218.76 85.5765 218.76 85.597 218.76C88.7103 218.566 90.8815 215.569 90.1134 212.553C89.7345 211.09 89.5297 209.546 89.4989 207.961C89.3351 197.745 97.2517 188.981 107.432 188.061C114.826 187.396 121.575 190.863 125.477 196.508C127.402 199.289 131.489 199.494 133.568 196.815C138.32 190.709 140.849 183.756 140.409 176.505C139.108 155.081 112.429 139.271 80.8142 141.184Z" fill="#5A5A63"/>
<path d="M80.5994 137.717C48.9842 139.629 24.4049 158.548 25.7056 179.972C27.0062 201.396 53.6953 217.206 85.3104 215.293C85.3309 215.293 85.3617 215.293 85.3821 215.293C88.4955 215.099 90.6667 212.103 89.8986 209.086C89.5197 207.624 89.3148 206.08 89.2943 204.494C89.1305 194.278 97.0471 185.515 107.227 184.594C114.621 183.929 121.37 187.396 125.272 193.041C127.198 195.823 131.284 196.027 133.363 193.348C138.115 187.243 140.645 180.289 140.204 173.039C138.904 151.615 112.215 135.805 80.5994 137.717Z" fill="#8B8B8C"/>
<path d="M69.4359 198.451C69.6715 202.255 66.7629 205.527 62.9531 205.763C59.1433 205.998 55.8661 203.093 55.6305 199.289C55.395 195.485 58.3035 192.213 62.1133 191.978C65.9231 191.742 69.2004 194.636 69.4359 198.451Z" fill="#254BB7"/>
<path d="M50.6019 185.382C50.8375 189.186 47.9289 192.458 44.1192 192.693C40.3094 192.929 37.0321 190.024 36.7966 186.22C36.561 182.416 39.4696 179.144 43.2794 178.908C47.0892 178.683 50.3664 181.577 50.6019 185.382Z" fill="#254BB7"/>
<path d="M56.1332 162.526C56.3688 166.33 53.4602 169.602 49.6504 169.838C45.8406 170.073 42.5634 167.169 42.3278 163.364C42.0923 159.56 45.0008 156.288 48.8106 156.053C52.6306 155.828 55.9079 158.722 56.1332 162.526Z" fill="#254BB7"/>
<path d="M79.4828 150.183C79.7184 153.987 76.8098 157.259 73 157.495C69.1902 157.73 65.913 154.826 65.6774 151.021C65.4419 147.217 68.3504 143.945 72.1602 143.71C75.97 143.474 79.2473 146.379 79.4828 150.183Z" fill="#254BB7"/>
<path d="M105.772 150.52C106.007 154.324 103.099 157.597 99.2891 157.832C95.4793 158.067 92.202 155.163 91.9665 151.359C91.7309 147.555 94.6395 144.282 98.4493 144.047C102.259 143.812 105.536 146.716 105.772 150.52Z" fill="#254BB7"/>
<path d="M127.955 163.007C128.191 166.811 125.282 170.083 121.473 170.318C117.663 170.554 114.386 167.649 114.15 163.845C113.915 160.041 116.823 156.769 120.633 156.533C124.453 156.298 127.73 159.202 127.955 163.007Z" fill="#254BB7"/>
<path opacity="0.68" d="M111.375 141.807L104.862 155.408C104.001 155.368 103.172 155.858 102.834 156.697L102.813 156.738C102.383 157.801 102.895 159.018 103.96 159.448L104.575 159.693C104.452 159.652 103.837 159.581 102.527 161.483C102.445 161.595 102.363 161.718 102.281 161.851C102.27 161.861 102.26 161.882 102.26 161.892C102.178 162.015 102.096 162.148 102.014 162.28C101.994 162.311 101.984 162.332 101.963 162.362C101.881 162.485 101.81 162.628 101.728 162.761C101.707 162.802 101.676 162.843 101.656 162.884C101.584 163.017 101.502 163.16 101.42 163.303C101.39 163.364 101.359 163.416 101.328 163.477C101.257 163.62 101.175 163.763 101.093 163.917C101.052 163.988 101.011 164.07 100.97 164.142C100.898 164.285 100.816 164.438 100.734 164.592C100.683 164.684 100.642 164.776 100.591 164.878C100.519 165.031 100.437 165.185 100.366 165.348C100.314 165.461 100.253 165.573 100.202 165.686C100.13 165.849 100.048 166.003 99.9662 166.177C99.9047 166.299 99.8433 166.432 99.7818 166.565C99.6999 166.729 99.6282 166.903 99.5463 167.077C99.4746 167.23 99.4131 167.383 99.3415 167.537C99.2698 167.711 99.1878 167.884 99.1161 168.058C99.0445 168.232 98.9625 168.416 98.8908 168.59C98.8191 168.774 98.7372 168.948 98.6655 169.132C98.5836 169.326 98.5017 169.531 98.4197 169.735C98.348 169.919 98.2661 170.104 98.1944 170.298C98.1022 170.523 98.0101 170.758 97.9179 170.993C97.8462 171.188 97.7643 171.372 97.6926 171.566C97.5902 171.832 97.4775 172.108 97.3751 172.384C97.3034 172.568 97.242 172.732 97.1703 172.916C97.0474 173.243 96.9142 173.591 96.7811 173.938C96.7299 174.082 96.6684 174.225 96.6172 174.378C96.4329 174.879 96.2383 175.401 96.0437 175.943C95.5214 177.395 94.9172 179.103 94.2412 180.994C94.1593 181.209 94.0876 181.424 94.0057 181.649C93.9033 181.935 93.8009 182.232 93.6984 182.528C93.6165 182.774 93.5243 183.009 93.4424 183.265C93.3093 183.653 93.1659 184.052 93.0225 184.451C92.9611 184.635 92.8996 184.809 92.8279 184.993C92.6846 185.392 92.5412 185.801 92.3978 186.2C92.3261 186.404 92.2544 186.609 92.1827 186.823C92.0496 187.202 91.9062 187.601 91.7731 187.989C91.6911 188.235 91.6092 188.47 91.517 188.715C91.3532 189.165 91.1995 189.625 91.0357 190.096C90.9742 190.27 90.9128 190.444 90.8513 190.617C90.6875 191.088 90.5134 191.568 90.3495 192.049C90.2778 192.254 90.2061 192.458 90.1344 192.663C89.9808 193.113 89.817 193.563 89.6633 194.023C89.5814 194.258 89.4995 194.483 89.4175 194.718C89.2537 195.199 89.0796 195.69 88.9055 196.18C88.8338 196.395 88.7621 196.6 88.6904 196.814C88.5265 197.295 88.3524 197.786 88.1886 198.267C88.1067 198.512 88.0247 198.747 87.9325 198.993C87.7789 199.432 87.6253 199.872 87.4717 200.312C87.359 200.629 87.2566 200.936 87.144 201.253C87.0108 201.631 86.8777 202.009 86.7445 202.398C86.6216 202.756 86.4988 203.124 86.3656 203.482C86.2222 203.891 86.0891 204.3 85.9457 204.709C85.874 204.924 85.8023 205.139 85.7204 205.353C84.5734 208.687 83.4161 212.062 82.2793 215.416C83.283 215.396 84.2969 215.344 85.3108 215.283C85.3312 215.283 85.362 215.283 85.3824 215.283C88.4958 215.089 90.667 212.092 89.8989 209.076C89.52 207.613 89.3151 206.069 89.2947 204.484C89.1513 195.546 95.1937 187.713 103.53 185.279C104.452 183.285 105.271 181.496 105.968 179.992C113.3 163.958 111.477 162.516 111.252 162.403L111.867 162.649C112.932 163.078 114.151 162.567 114.581 161.503L114.601 161.462C115.011 160.47 114.581 159.346 113.649 158.855L118.524 144.855C116.26 143.72 113.874 142.697 111.375 141.807ZM104.585 159.703L104.759 159.775L104.585 159.703Z" fill="#2F2F35"/>
<path opacity="0.42" d="M54.9452 161.473C55.0373 163.068 53.8288 164.428 52.2312 164.53C50.6335 164.622 49.2714 163.416 49.169 161.82C49.0768 160.225 50.2853 158.865 51.883 158.763C53.4704 158.671 54.8427 159.877 54.9452 161.473Z" fill="white"/>
<path opacity="0.42" d="M78.2947 149.375C78.3869 150.97 77.1784 152.33 75.5808 152.433C73.9831 152.525 72.621 151.318 72.5186 149.723C72.4264 148.127 73.6349 146.767 75.2326 146.665C76.8302 146.563 78.2026 147.78 78.2947 149.375Z" fill="white"/>
<path opacity="0.42" d="M103.029 148.751C103.121 150.346 101.913 151.707 100.315 151.809C98.7175 151.901 97.3554 150.694 97.253 149.099C97.1608 147.504 98.3693 146.143 99.967 146.041C101.565 145.949 102.927 147.166 103.029 148.751Z" fill="white"/>
<path opacity="0.42" d="M47.6834 183.347C47.7756 184.942 46.5671 186.302 44.9695 186.404C43.3718 186.496 42.0097 185.29 41.9073 183.694C41.8151 182.099 43.0236 180.739 44.6213 180.637C46.2189 180.545 47.5913 181.751 47.6834 183.347Z" fill="white"/>
<path opacity="0.42" d="M68.1756 196.446C68.2678 198.042 67.0593 199.402 65.4616 199.504C63.864 199.596 62.5019 198.389 62.3995 196.794C62.3073 195.199 63.5158 193.839 65.1134 193.736C66.7111 193.644 68.0834 194.851 68.1756 196.446Z" fill="white"/>
<path d="M136.651 137.697C136.651 137.697 146.084 132.553 146.688 124.597C146.647 119.893 144.609 116.037 144.609 116.037L143.318 120.885C143.318 120.885 142.612 113.276 137.163 109.595C131.725 105.913 133.057 106.946 133.057 106.946C133.057 106.946 137.624 113 132.555 123.042C127.485 133.084 133.886 136.572 133.886 136.572L136.651 137.697Z" fill="#254BB7"/>
<path d="M136.066 134.434C136.066 134.434 134.356 125.701 138.258 121.007C133.188 127.419 132.144 132.583 133.414 136.745C136.066 134.434 136.066 134.434 136.066 134.434Z" fill="#A87D1D"/>
<path d="M131.51 136.163C132.34 134.485 134.327 133.729 136.068 134.434L136.098 134.445L136.129 134.455C137.87 135.16 138.761 137.083 138.177 138.873L131.971 157.904L127.301 156.002L122.631 154.099L131.51 136.163Z" fill="white"/>
<path d="M121.913 158.354L129.809 161.565C130.874 161.994 132.092 161.483 132.523 160.419L132.543 160.378C132.973 159.315 132.461 158.098 131.396 157.668L123.5 154.457C122.435 154.028 121.216 154.539 120.786 155.603L120.766 155.644C120.335 156.707 120.847 157.924 121.913 158.354Z" fill="#CCCCCC"/>
<path d="M122.548 158.619L125.866 159.969L129.184 161.319C129.184 161.319 131.703 161.912 123.93 178.919C118.154 191.558 103.284 223.249 94.7218 240.184C93.923 241.769 91.5163 240.787 92.0488 239.1C97.7635 221.01 109.306 187.959 114.006 174.879C120.325 157.29 122.548 158.619 122.548 158.619Z" fill="#2F2F35"/>
<path d="M104.851 219.476C101.154 227.186 97.5796 234.508 94.7121 240.174C93.9132 241.759 91.5065 240.777 92.0391 239.09C93.9542 233.036 96.5145 225.295 99.2592 217.195L104.851 219.476Z" fill="white"/>
<path opacity="0.75" d="M103.684 204.28C115.871 189.216 120.449 160.522 120.469 160.399C119.117 162.362 117.028 166.443 113.997 174.879C111.703 181.26 107.77 192.427 103.684 204.28Z" fill="white"/>
<path d="M339.635 168.958L341.796 173.325L346.63 174.02L343.138 177.426L343.957 182.222L339.635 179.962L335.323 182.222L336.143 177.426L332.65 174.02L337.484 173.325L339.635 168.958Z" fill="#9E9E9E"/>
<path d="M401.801 162.853L404.822 168.948L411.561 169.93L406.686 174.675L407.833 181.383L401.801 178.213L395.768 181.383L396.926 174.675L392.051 169.93L398.79 168.948L401.801 162.853Z" fill="#666666"/>
<path d="M382.937 254.266L384.616 257.671L388.385 258.213L385.661 260.862L386.306 264.604L382.937 262.845L379.567 264.604L380.212 260.862L377.488 258.213L381.257 257.671L382.937 254.266Z" fill="#9E9E9E"/>
<path d="M322.901 231.195L325.912 237.3L332.65 238.282L327.776 243.027L328.923 249.735L322.901 246.565L316.868 249.735L318.016 243.027L313.141 238.282L319.879 237.3L322.901 231.195Z" fill="#666666"/>
<path d="M380.708 245.611C397.944 238.709 406.313 219.163 399.402 201.953C392.49 184.742 372.915 176.385 355.679 183.286C338.443 190.187 330.074 209.734 336.985 226.944C343.896 244.155 363.472 252.512 380.708 245.611Z" fill="#254BB7"/>
<g opacity="0.67">
<path opacity="0.67" d="M359.134 246.78C371.014 250.093 383.17 246.596 391.466 238.64C385.843 240.143 379.77 240.215 373.758 238.548C355.877 233.568 345.42 215.048 350.408 197.193C352.087 191.19 355.293 186.036 359.492 182.017C348.39 184.993 339.091 193.573 335.783 205.425C330.796 223.28 341.252 241.8 359.134 246.78Z" fill="#A87D1D"/>
</g>
<path opacity="0.52" d="M377.21 182.109C375.531 181.639 373.851 181.312 372.182 181.107C371.301 184.246 370.83 187.55 370.83 190.965C370.83 208.442 383.079 223.045 399.475 226.716C399.885 225.663 400.254 224.579 400.561 223.464C405.548 205.609 395.092 187.1 377.21 182.109Z" fill="#FFF6E7"/>
<path d="M334.667 211.683C321.62 206.611 313.508 202.02 314.195 199.576C315.331 195.516 340.361 198.952 370.123 207.235C399.874 215.529 423.071 225.53 421.944 229.59C421.268 232.023 412 231.768 398.287 229.385" stroke="#666666" stroke-width="2" stroke-miterlimit="10"/>
</g>
<defs>
<clipPath id="clip0">
<rect width="423" height="433" fill="white"/>
</clipPath>
</defs>
</svg>
